<?xml version="1.0" standalone="no"?>
<!DOCTYPE svg PUBLIC "-//W3C//DTD SVG 20010904//EN"
 "http://www.w3.org/TR/2001/REC-SVG-20010904/DTD/svg10.dtd">
<svg version="1.0" xmlns="http://www.w3.org/2000/svg"
 width="233.000000pt" height="233.000000pt" viewBox="0 0 233.000000 233.000000"
 preserveAspectRatio="xMidYMid meet">
<metadata>
Created by potrace 1.14, written by Peter Selinger 2001-2017
</metadata>
<g transform="translate(0.000000,233.000000) scale(0.100000,-0.100000)"
fill="#000000" stroke="none">
<path d="M670 1990 c-113 -23 -194 -58 -293 -124 -380 -252 -486 -769 -237
-1149 130 -200 343 -339 575 -374 55 -8 200 -8 257 0 247 37 485 205 607 429
140 257 132 580 -20 832 -184 305 -538 459 -889 386z m345 -144 c345 -90 572
-440 511 -788 -48 -276 -243 -489 -511 -558 -330 -86 -672 82 -812 398 -57
129 -70 302 -34 443 71 279 288 471 586 522 45 8 204 -3 260 -17z"/>
<path d="M1969 1893 c-12 -31 -199 -576 -199 -580 0 -2 33 -3 74 -3 l73 0 13
45 13 45 102 0 103 0 14 -42 15 -43 75 -3 75 -3 -23 68 c-13 37 -59 173 -104
302 -44 129 -80 235 -80 237 0 2 -32 4 -70 4 -68 0 -71 -1 -81 -27z m109 -274
c12 -36 22 -70 22 -75 0 -6 -25 -10 -56 -11 -37 0 -54 3 -51 11 2 6 15 44 28
84 12 39 26 69 29 65 4 -5 17 -38 28 -74z"/>
</g>
</svg>
