<?xml version="1.0" encoding="UTF-8"?>
<svg width="110px" height="50px" viewBox="0 0 110 50" version="1.1" xmlns="http://www.w3.org/2000/svg" xmlns:xlink="http://www.w3.org/1999/xlink">
    <title>egoe</title>
    <g id="Page-1" stroke="none" stroke-width="1" fill="none" fill-rule="evenodd">
        <g id="egoe" fill="#010202" fill-rule="nonzero">
            <path d="M47.2564176,17.0714777 C46.6071997,21.7543301 42.1419829,25.284452 37.2433393,25.284452 C31.7692527,25.284452 27.1583307,20.67353 27.1583307,14.9836522 C27.1583307,9.43763518 31.7692527,4.89864355 37.2433393,4.89864355 C40.4138093,4.89864355 43.5105045,6.26716521 45.0948173,8.6445566 L51.0023306,8.6445566 C48.5530088,3.5301219 43.3666438,-5.24201143e-15 37.2433393,-5.24201143e-15 C29.0322094,-5.24201143e-15 22.1877567,6.77067789 22.1877567,14.9836522 C22.1877567,23.4124176 29.030365,30.1830955 37.2433393,30.1830955 C46.6090441,30.1830955 54.0270955,21.6104693 52.1550611,12.2466089 L35.2993746,12.2466089 L35.2993746,17.073322 L47.2564176,17.073322 L47.2564176,17.0714777 Z M110,29.4619473 L89.4684864,29.4619473 L89.4684864,12.2447645 L107.333043,12.2447645 L107.333043,17.0714777 L94.5109908,17.0714777 L94.5109908,24.5633038 L109.998156,24.5633038 L109.998156,29.4619473 L110,29.4619473 Z M110,5.546017 L89.4684864,5.546017 L89.4684864,0.647373451 L109.998156,0.647373451 L109.998156,5.546017 L110,5.546017 Z M70.6669908,25.284452 C65.1929042,25.284452 60.5819822,20.67353 60.5819822,14.9836522 C60.5819822,9.43763518 65.1929042,4.89864355 70.6669908,4.89864355 C76.2849382,4.89864355 80.8958602,9.43763518 80.8958602,14.9836522 C80.8958602,20.67353 76.2867826,25.284452 70.6669908,25.284452 M70.6669908,-5.24201143e-15 C62.4540165,-5.24201143e-15 55.6114083,6.77067789 55.6114083,14.9836522 C55.6114083,23.4124176 62.4540165,30.1830955 70.6669908,30.1830955 C79.0957563,30.1830955 85.8664342,23.4124176 85.8664342,14.9836522 C85.8664342,6.77067789 79.0957563,-5.24201143e-15 70.6669908,-5.24201143e-15 M20.5315136,5.546017 L20.5315136,0.647373451 L0,0.647373451 L0,29.4619473 L20.5296692,29.4619473 L20.5296692,24.5633038 L5.04250432,24.5633038 L5.04250432,17.0714777 L17.8645563,17.0714777 L17.8645563,12.2447645 L5.04250432,12.2447645 L5.04250432,5.546017 L20.5315136,5.546017 Z" id="Shape"></path>
            <g id="Group" transform="translate(52.772925, 38.750189)">
                <path d="M7.95291829,4.73818346 L2.27410674,4.73818346 C2.49358663,5.71016583 3.15202629,6.24503278 4.12585302,6.24503278 C4.90970976,6.24503278 5.49068594,5.88353649 5.66405661,5.22509683 L7.82934558,5.806073 C7.35903154,7.296323 5.94624503,8.1594876 4.06314448,8.1594876 C1.33347865,8.1594876 0,6.04215221 0,4.0797438 C0,2.11917976 1.19330662,1.04840229e-14 3.92297245,1.04840229e-14 C6.77805536,1.04840229e-14 7.98611693,2.11733539 7.98611693,3.87501886 C7.98427256,4.19040593 7.96767324,4.56665717 7.95291829,4.73818346 Z M5.52019584,3.10776144 C5.44088798,2.30730538 4.93921966,1.71157425 3.91928371,1.71157425 C3.08747338,1.71157425 2.52309653,2.1818883 2.30361664,3.10776144 L5.52019584,3.10776144 Z" id="Shape"></path>
                <path d="M16.9091732,0.127261448 L16.9091732,7.46969367 C16.9091732,9.58702906 15.2935061,11.0145705 12.8607837,11.0145705 C11.0090374,11.0145705 9.48743314,10.0112339 9.20524471,8.51913952 L11.3078252,8.1889975 C11.4166429,8.83268222 12.0916819,9.20893345 12.8607837,9.20893345 C13.9434282,9.20893345 14.6498214,8.59660301 14.6498214,7.71868346 L14.6498214,6.96618098 C14.2422159,7.48444862 13.4731141,7.781392 12.6099495,7.781392 C10.3671971,7.781392 8.98576483,6.27454268 8.98576483,3.88977381 C8.98576483,1.50500495 10.3671971,1.04840229e-14 12.5638403,1.04840229e-14 C13.4897135,1.04840229e-14 14.2108617,0.313542697 14.6350665,0.800456062 L14.6350665,0.125417079 L16.9091732,0.125417079 L16.9091732,0.127261448 Z M14.7604836,3.89161818 C14.7604836,2.71491088 14.0706896,1.96240841 12.9880451,1.96240841 C11.922,1.96240841 11.2303617,2.71491088 11.2303617,3.89161818 C11.2303617,5.06832548 11.9201556,5.82082795 12.9880451,5.82082795 C14.0706896,5.82082795 14.7604836,5.06832548 14.7604836,3.89161818 Z" id="Shape"></path>
                <path d="M18.3219597,4.0797438 C18.3219597,1.7263292 20.0482889,1.04840229e-14 22.4957663,1.04840229e-14 C24.9118895,1.04840229e-14 26.6695729,1.7263292 26.6695729,4.0797438 C26.6695729,6.4331584 24.9118895,8.1594876 22.4957663,8.1594876 C20.0464446,8.1594876 18.3219597,6.4331584 18.3219597,4.0797438 Z M24.3604232,4.0797438 C24.3604232,2.82557301 23.6079207,1.96240841 22.493922,1.96240841 C21.3633239,1.96240841 20.6108214,2.82557301 20.6108214,4.0797438 C20.6108214,5.33391459 21.3633239,6.19708214 22.493922,6.19708214 C23.6079207,6.19892356 24.3604232,5.33575896 24.3604232,4.0797438 Z" id="Shape"></path>
                <path d="M35.6092286,4.73818346 L29.930417,4.73818346 C30.1498969,5.71016583 30.8083365,6.24503278 31.7821633,6.24503278 C32.56602,6.24503278 33.1469962,5.88353649 33.3203669,5.22509683 L35.4856558,5.806073 C35.0153418,7.296323 33.6025553,8.1594876 31.7194547,8.1594876 C28.9897889,8.1594876 27.6563103,6.04215221 27.6563103,4.0797438 C27.6563103,2.11917976 28.8496169,1.04840229e-14 31.5792827,1.04840229e-14 C34.4343656,1.04840229e-14 35.6424272,2.11733539 35.6424272,3.87501886 C35.6405828,4.19040593 35.6239835,4.56665717 35.6092286,4.73818346 Z M33.1765061,3.10776144 C33.0971982,2.30730538 32.5955299,1.71157425 31.575594,1.71157425 C30.7437836,1.71157425 30.1794068,2.1818883 29.9599269,3.10776144 L33.1765061,3.10776144 Z" id="Shape"></path>
                <path d="M36.566456,6.82600895 C36.566456,6.05690716 37.1621871,5.47777536 37.9312889,5.47777536 C38.7003907,5.47777536 39.2961218,6.05875153 39.2961218,6.82600895 C39.2961218,7.57851143 38.7003907,8.1594876 37.9312889,8.1594876 C37.1621871,8.1594876 36.566456,7.57851143 36.566456,6.82600895 Z" id="Path"></path>
                <path d="M48.1749132,4.73818346 L42.4961017,4.73818346 C42.7155816,5.71016583 43.3740212,6.24503278 44.347848,6.24503278 C45.1317047,6.24503278 45.7126809,5.88353649 45.8860515,5.22509683 L48.0513405,5.806073 C47.5810265,7.296323 46.16824,8.1594876 44.2851394,8.1594876 C41.5554736,8.1594876 40.2219949,6.04215221 40.2219949,4.0797438 C40.2219949,2.11917976 41.4134572,1.04840229e-14 44.143123,1.04840229e-14 C46.9982059,1.04840229e-14 48.2062675,2.11733539 48.2062675,3.87501886 C48.2062675,4.19040593 48.1896682,4.56665717 48.1749132,4.73818346 Z M45.7421908,3.10776144 C45.6628829,2.30730538 45.1612146,1.71157425 44.1412787,1.71157425 C43.3094683,1.71157425 42.7450915,2.1818883 42.5256116,3.10776144 L45.7421908,3.10776144 Z" id="Shape"></path>
                <path d="M57.2270753,8.03407052 L54.9216143,8.03407052 L54.9216143,6.9827803 C54.4513003,7.67257424 53.5881357,8.1594876 52.5054912,8.1594876 C50.764407,8.1594876 49.6024547,7.02888952 49.6024547,5.28780537 L49.6024547,0.127261448 L51.8931607,0.127261448 L51.8931607,4.67731929 C51.8931607,5.5404839 52.4261833,6.1196157 53.2579937,6.1196157 C54.3553931,6.1196157 54.9216143,5.22509683 54.9216143,3.5946748 L54.9216143,0.127261448 L57.2270753,0.127261448 L57.2270753,8.03407052 L57.2270753,8.03407052 Z" id="Path"></path>
            </g>
        </g>
    </g>
</svg>