<?xml version="1.0" encoding="UTF-8"?>
<svg width="150px" height="63px" viewBox="0 0 150 63" version="1.1" xmlns="http://www.w3.org/2000/svg" xmlns:xlink="http://www.w3.org/1999/xlink">
    <title>Plan de travail 1</title>
    <defs>
        <filter id="filter-1">
            <feColorMatrix in="SourceGraphic" type="matrix" values="0 0 0 0 0.000000 0 0 0 0 0.000000 0 0 0 0 0.000000 0 0 0 1.000000 0"></feColorMatrix>
        </filter>
        <linearGradient x1="-0.11821928%" y1="49.9959632%" x2="100.276971%" y2="49.9959632%" id="linearGradient-2">
            <stop stop-color="#4EB0B4" offset="10%"></stop>
            <stop stop-color="#0095D4" offset="30%"></stop>
            <stop stop-color="#17428C" offset="42%"></stop>
            <stop stop-color="#E4003A" offset="55%"></stop>
            <stop stop-color="#EC6608" offset="84%"></stop>
        </linearGradient>
    </defs>
    <g id="Page-1" stroke="none" stroke-width="1" fill="none" fill-rule="evenodd">
        <g filter="url(#filter-1)" id="Plan-de-travail-1">
            <g>
                <path d="M6.08441737,54.1025908 C4.00225058,53.4703692 3.09366871,53.0728646 3.09366871,51.8803509 C3.09366871,50.816553 4.50954213,50.4379772 5.74369917,50.4379772 C6.79452287,50.4337312 7.82636943,50.7178818 8.72687631,51.2594867 C8.90978919,51.3807167 9.13630054,51.416627 9.34774059,51.3579164 C9.55909959,51.301627 9.73578981,51.1566858 9.83231759,50.9604118 L10.1881788,50.2562608 C10.3686486,49.9070614 10.2518859,49.4778352 9.91939002,49.2681781 C8.67530494,48.5002401 7.2435511,48.0902319 5.78155675,48.0832359 C2.75295051,48.0832359 0.738927364,49.6316108 0.738927364,51.9371373 C0.738927364,54.9316717 3.26781357,55.6888233 5.28183672,56.2983303 C7.4094326,56.9343376 8.33694326,57.3431994 8.31044296,58.6114283 C8.28394265,59.8796572 6.81506863,60.3339481 5.418124,60.3339481 C4.04812768,60.2671598 2.74424059,59.7249891 1.73079591,58.8007162 C1.56191917,58.6336293 1.32743375,58.55038 1.09100284,58.5735707 C0.850959898,58.6013134 0.638575959,58.741965 0.519353412,58.9521465 L0.11049157,59.6411544 C-0.0738632994,59.9438876 -0.0235260873,60.334001 0.231635819,60.5800223 C1.62708063,61.9072567 3.4734774,62.6566368 5.39919521,62.6773322 C8.56030297,62.6773322 10.6992561,61.038099 10.6992561,58.6076425 C10.6992561,55.5033211 8.12872658,54.723455 6.08441737,54.1025908" id="Path" fill="#17428C" fill-rule="nonzero"></path>
                <path d="M16.6163956,56.6276912 L18.8878502,51.6380624 L21.1593049,56.6276912 L16.6163956,56.6276912 Z M19.9932915,48.5640271 C19.8696529,48.2889139 19.5945199,48.1134237 19.2929263,48.1172445 L18.4562739,48.1172445 C18.153785,48.1140835 17.8784064,48.291219 17.7559087,48.5678129 L11.8652695,61.5605336 C11.7521695,61.7978304 11.7702435,62.0768086 11.9130167,62.2975283 C12.05579,62.518248 12.3028286,62.6491196 12.5656347,62.6432603 L13.421216,62.6432603 C13.7223351,62.6449696 13.9958451,62.46808 14.1177954,62.1927552 L15.5866694,58.944575 L22.2003883,58.944575 L23.6881911,62.1965409 C23.8112782,62.4703854 24.0845447,62.6456323 24.3847706,62.6432603 L25.2403518,62.6432603 C25.5025462,62.6459127 25.7474487,62.5127202 25.8877164,62.2911849 C26.0271227,62.0706505 26.047014,61.7950134 25.940717,61.5567479 L19.9932915,48.5640271 Z" id="Shape" fill="#17428C" fill-rule="nonzero"></path>
                <path d="M29.7946185,48.1173077 L29.0147523,48.1173077 C28.5965891,48.1173077 28.2576008,48.456296 28.2576008,48.8744592 L28.2576008,61.8633942 C28.2576008,62.2815575 28.5965891,62.6205458 29.0147523,62.6205458 L29.7946185,62.6205458 C30.2127817,62.6205458 30.55177,62.2815575 30.55177,61.8633942 L30.55177,48.8858165 C30.55177,48.4676533 30.2127817,48.128665 29.7946185,48.128665" id="Path" fill="#17428C" fill-rule="nonzero"></path>
                <path d="M46.0014476,48.1173077 L45.244296,48.1173077 C44.8261328,48.1173077 44.4871445,48.456296 44.4871445,48.8744592 L44.4871445,58.3388537 L37.1806319,48.4239541 C37.0360945,48.2261171 36.8047597,48.1104497 36.5597676,48.1134622 L35.6474,48.1134622 C35.2292367,48.1134622 34.8902484,48.4525102 34.8902484,48.8706735 L34.8902484,61.8596085 C34.8902484,62.2777717 35.2292367,62.61676 35.6474,62.61676 L36.4272661,62.61676 C36.8454294,62.61676 37.1844177,62.2777717 37.1844177,61.8596085 L37.1844177,52.395214 L44.4606442,62.3101137 C44.6051816,62.5079507 44.8365164,62.6236181 45.0815084,62.6206055 L45.9900903,62.6206055 C46.4082536,62.6206055 46.7472419,62.2815575 46.7472419,61.8633942 L46.7472419,48.8858165 C46.7472419,48.4676533 46.4082536,48.128665 45.9900903,48.128665" id="Path" fill="#17428C" fill-rule="nonzero"></path>
                <path d="M59.4030302,48.1173077 L49.8477775,48.1173077 C49.4296142,48.1173077 49.0906259,48.456296 49.0906259,48.8744592 L49.0906259,49.6316108 C49.0906259,50.0497741 49.4296142,50.3887624 49.8477775,50.3887624 L53.466962,50.3887624 L53.466962,61.8482512 C53.466962,62.2664145 53.8059503,62.6054028 54.2241135,62.6054028 L55.0039796,62.6054028 C55.4221429,62.6054028 55.7611312,62.2664145 55.7611312,61.8482512 L55.7611312,50.4152627 L59.3803156,50.4152627 C59.7984789,50.4152627 60.1374672,50.0762744 60.1374672,49.6581111 L60.1374672,48.9009595 C60.1374672,48.4827963 59.7984789,48.143808 59.3803156,48.143808" id="Path" fill="#17428C" fill-rule="nonzero"></path>
                <path d="M65.1157387,55.2004605 L60.9779054,55.2004605 C60.5597422,55.2004605 60.2207539,55.5394488 60.2207539,55.9576121 L60.2207539,56.5898336 C60.2207539,57.0079969 60.5597422,57.3469852 60.9779054,57.3469852 L65.142239,57.3469852 C65.5604023,57.3469852 65.8993906,57.0079969 65.8993906,56.5898336 L65.8993906,55.9576121 C65.8993906,55.5394488 65.5604023,55.2004605 65.142239,55.2004605" id="Path" fill="#17428C" fill-rule="nonzero"></path>
                <path d="M81.2582099,54.7348123 L78.2296037,54.7348123 C77.8114404,54.7348123 77.4724521,55.0738006 77.4724521,55.4919639 L77.4724521,56.27183 C77.4724521,56.6899932 77.8114404,57.0289815 78.2296037,57.0289815 L79.7817644,57.0289815 L79.7817644,59.4026517 C78.8694612,60.0263611 77.7901437,60.3601843 76.6850145,60.3604484 C73.8659638,60.409003 71.5393128,58.1670191 71.4833833,55.3481051 C71.4833833,52.5958592 73.8154101,50.3546905 76.6850145,50.3546905 C78.0065822,50.3523114 79.2837625,50.8314222 80.2776987,51.7024203 C80.4333853,51.8468269 80.6425572,51.9192193 80.8542011,51.9019423 C81.0658449,51.8846652 81.2605065,51.7793068 81.3907115,51.6115621 L81.8525739,51.0361269 C82.117459,50.7174586 82.0769674,50.2450571 81.7617157,49.9761148 C80.3552098,48.7500736 78.5508657,48.0773129 76.6850145,48.0831971 C72.5396097,48.0831971 69.1664995,51.3427733 69.1664995,55.3556766 C69.2225891,59.4332186 72.5695166,62.6954566 76.6471569,62.6470461 C78.5210954,62.6409092 80.3320901,61.9701704 81.75793,60.7541672 C81.9281475,60.6085933 82.0251779,60.3951264 82.022933,60.1711605 L82.022933,55.5033211 C82.022933,55.0851579 81.6839447,54.7461696 81.2657814,54.7461696" id="Path" fill="#17428C" fill-rule="nonzero"></path>
                <path d="M92.1498351,60.3642342 C89.4236744,60.2627283 87.2852819,57.9890845 87.3509512,55.2618252 C87.4166204,52.5345658 89.6619645,50.3664773 92.3898514,50.3962985 C95.1177382,50.4261198 97.3151484,52.6427764 97.3211803,55.3708196 C97.2693544,58.1735716 94.9603202,60.406428 92.1574066,60.3642342 M92.1574066,48.0983789 C88.0233591,48.0983789 84.6616062,51.3617021 84.6616062,55.3708196 C84.6616062,59.3799371 88.0233591,62.6621891 92.1574066,62.6621891 C96.2914541,62.6621891 99.6569928,59.3912944 99.6569928,55.3708196 C99.6569928,51.3503448 96.2914541,48.0983789 92.1574066,48.0983789" id="Shape" fill="#17428C" fill-rule="nonzero"></path>
                <path d="M104.578478,56.3059018 L108.326378,56.3059018 C109.51132,56.3059018 111.498843,56.5633333 111.498843,58.2896389 C111.498843,60.0159444 109.776323,60.3453054 108.326378,60.3453054 L104.578478,60.3453054 L104.578478,56.3059018 Z M108.326378,54.0079468 L104.578478,54.0079468 L104.578478,50.4152627 L108.326378,50.4152627 C109.462106,50.4152627 110.847693,50.721909 110.847693,52.1945688 C110.847693,53.3984398 109.999683,54.0079468 108.326378,54.0079468 M111.949348,54.9695293 C112.762099,54.2420863 113.207715,53.1898223 113.164577,52.0999249 C113.164577,49.6429681 111.317127,48.1173077 108.345307,48.1173077 L103.045246,48.1173077 C102.627083,48.1173077 102.288094,48.456296 102.288094,48.8744592 L102.288094,61.86718 C102.288094,62.2853433 102.627083,62.6243316 103.045246,62.6243316 L108.398308,62.6243316 C111.80549,62.6243316 113.83087,61.0343133 113.83087,58.365354 C113.883325,56.9726649 113.166346,55.6637786 111.964491,54.958172" id="Shape" fill="#17428C" fill-rule="nonzero"></path>
                <path d="M119.869154,56.6276912 L122.12168,51.6380624 L124.393134,56.6276912 L119.869154,56.6276912 Z M123.24605,48.5640271 C123.122411,48.2889139 122.847278,48.1134237 122.545684,48.1172445 L121.709032,48.1172445 C121.406543,48.1140835 121.131165,48.291219 121.008667,48.5678129 L115.114242,61.5605336 C115.001142,61.7978304 115.019216,62.0768086 115.161989,62.2975283 C115.304762,62.518248 115.551801,62.6491196 115.814607,62.6432603 L116.670188,62.6432603 C116.972677,62.6464845 117.248056,62.4693491 117.370554,62.1927552 L118.839428,58.944575 L125.449361,58.944575 L126.937164,62.1965409 C127.060251,62.4703854 127.333517,62.6456323 127.633743,62.6432603 L128.489324,62.6432603 C128.753198,62.6497846 129.001425,62.5184169 129.144434,62.2965598 C129.287443,62.0747026 129.30459,61.7943819 129.189689,61.5567479 L123.24605,48.5640271 Z" id="Shape" fill="#17428C" fill-rule="nonzero"></path>
                <path d="M133.047377,48.1173077 L132.263725,48.1173077 C131.845561,48.1173077 131.506573,48.456296 131.506573,48.8744592 L131.506573,61.8633942 C131.506573,62.2815575 131.845561,62.6205458 132.263725,62.6205458 L133.047377,62.6205458 C133.46554,62.6205458 133.804528,62.2815575 133.804528,61.8633942 L133.804528,48.8858165 C133.804528,48.4676533 133.46554,48.128665 133.047377,48.128665" id="Path" fill="#17428C" fill-rule="nonzero"></path>
                <path d="M149.254206,48.1173077 L148.497054,48.1173077 C148.078891,48.1173077 147.739903,48.456296 147.739903,48.8744592 L147.739903,58.3388537 L140.429604,48.4239541 C140.285847,48.2272101 140.056187,48.1116759 139.812526,48.1135001 L138.900158,48.1135001 C138.481995,48.1135001 138.143007,48.4525102 138.143007,48.8706735 L138.143007,61.8596085 C138.143007,62.2777717 138.481995,62.61676 138.900158,62.61676 L139.680024,62.61676 C140.098188,62.61676 140.437176,62.2777717 140.437176,61.8596085 L140.437176,52.395214 L147.713402,62.3101137 C147.85716,62.5068576 148.086819,62.6223918 148.330481,62.6205676 L149.242848,62.6205676 C149.661012,62.6205676 150,62.2815575 150,61.8633942 L150,48.8858165 C150,48.4676533 149.661012,48.128665 149.242848,48.128665" id="Path" fill="#17428C" fill-rule="nonzero"></path>
                <path d="M129.924126,40.4738627 L120.671734,40.4738627 L120.607376,40.4095048 L112.464211,32.3496265 C112.127513,32.0207117 111.627271,31.9239386 111.192197,32.1035522 C110.755435,32.2835888 110.471105,32.710084 110.472903,33.1824932 L110.472903,40.5041488 L108.053804,40.5041488 L108.053804,22.3855119 C108.049278,22.0617844 107.912488,21.7540065 107.675228,21.5337164 L100.913864,15.1509288 C100.696876,14.9461492 100.409643,14.83234 100.111284,14.8329251 L96.730602,14.8329251 C96.0845398,14.8329251 95.5608029,15.3566621 95.5608029,16.0027243 L95.5608029,40.5041488 L93.1606324,40.5041488 L93.1606324,1.16633949 C93.1616801,0.691012936 92.8740951,0.262631136 92.4337669,0.0836127632 C91.9931403,-0.0903470794 91.4913678,0.0120857672 91.1541808,0.344830051 L79.959695,11.7021034 C79.7434358,11.9207875 79.6223345,12.2160571 79.6227626,12.5236129 L79.6227626,21.2989995 L75.0419956,17.8918174 C74.6109809,17.5823754 74.028197,17.5916016 73.6071934,17.914532 L63.1850022,26.2734852 C62.9091809,26.4959674 62.7490783,26.8314866 62.7496401,27.1858528 L62.7496401,40.515506 L60.3835414,40.515506 L60.3835414,33.1559929 C60.3835414,30.5778918 58.608021,27.8332174 55.3181975,27.8332174 C52.028374,27.8332174 50.2528536,30.5892491 50.2528536,33.1824932 L50.2528536,40.5041488 L47.8791834,40.5041488 L47.8791834,35.5183057 C47.8791834,33.5004968 46.4860246,31.3539722 43.9079235,31.3539722 C41.3298225,31.3539722 39.9404493,33.5004968 39.9404493,35.5183057 L39.9404493,40.500363 L37.5629934,40.500363 L37.5629934,40.2770033 C37.5629934,39.2737775 37.5629934,37.9866198 37.5629934,37.4717568 C37.5629934,35.7568085 35.9426891,34.2500769 34.0952393,34.2500769 C32.2477895,34.2500769 30.6274852,35.76438 30.6274852,37.4566137 L30.6274852,40.48522 L20.1825794,40.48522 C19.5365172,40.48522 19.0127802,41.0089569 19.0127802,41.6550191 C19.0127802,42.3010814 19.5365172,42.8248183 20.1825794,42.8248183 L31.7897128,42.8248183 C32.1006199,42.8248199 32.398738,42.701054 32.6182271,42.4808547 C32.8377161,42.2606553 32.9605181,41.9621388 32.959512,41.6512334 L32.959512,37.6761877 C33.0174312,37.084938 33.5017053,36.6264919 34.0952393,36.6010325 C34.7080981,36.6144662 35.2051559,37.1015828 35.2309666,37.7140453 C35.2309666,38.0131201 35.2309666,41.6853052 35.2309666,41.6853052 C35.2371791,42.3296368 35.7601933,42.8492766 36.4045516,42.8513186 L41.1216058,42.8513186 C41.7682799,42.8492325 42.2914083,42.3244112 42.2914049,41.6777337 L42.2914049,35.5220915 C42.2914049,34.8898699 42.6321231,33.6935705 43.915495,33.6935705 C45.1988669,33.6935705 45.5433709,34.8860842 45.5433709,35.5183057 L45.5433709,41.6739479 C45.5454488,42.3191475 46.0679705,42.8416691 46.71317,42.8437471 L51.4453673,42.8437471 C52.0911787,42.8395972 52.6131032,42.3159836 52.6151664,41.6701622 L52.6151664,33.1824932 C52.6151664,32.1414098 53.1868159,30.1766015 55.3409121,30.1766015 C57.3397922,30.1766015 58.0666577,31.9596934 58.0666577,33.1559929 L58.0666577,41.6739479 C58.0666543,42.3206254 58.5897827,42.8454468 59.2364568,42.8475328 L63.9421538,42.8475328 C64.5888279,42.8454468 65.1119563,42.3206254 65.1119529,41.6739479 L65.1119529,27.7347877 L65.1952396,27.6704298 L74.3870595,20.2995594 L79.6454771,24.2253902 L79.6454771,41.6739479 C79.6454771,42.322101 80.170909,42.8475328 80.819062,42.8475328 L85.5134017,42.8475328 C86.1600758,42.8454468 86.6832042,42.3206254 86.6832009,41.6739479 L86.6832009,27.1442095 C86.6814347,26.7752342 86.5078874,26.4281396 86.2137669,26.2053416 L81.9812897,23.0593768 L81.9812897,13.0081899 L82.0456476,12.943832 L90.8361772,4.02458663 L90.8361772,41.6739479 C90.835171,41.9848534 90.957973,42.2833698 91.1774621,42.5035692 C91.3969511,42.7237686 91.6950693,42.8475345 92.0059763,42.8475328 L96.7457451,42.8475328 C97.0566521,42.8475345 97.3547703,42.7237686 97.5742593,42.5035692 C97.7937484,42.2833698 97.9165504,41.9848534 97.9155442,41.6739479 L97.9155442,17.1725235 L99.6607786,17.1725235 L99.7251365,17.2330956 L105.714205,22.8890177 L105.714205,41.6739479 C105.714205,42.322101 106.239637,42.8475328 106.88779,42.8475328 L111.646488,42.8475328 C112.293162,42.8454468 112.81629,42.3206254 112.816287,41.6739479 L112.816287,35.9953112 L119.365648,42.4727428 C119.584792,42.6906392 119.881916,42.8119417 120.190943,42.8096753 L129.924126,42.8096753 C130.570189,42.8096753 131.093926,42.2859383 131.093926,41.6398761 C131.093926,40.9938139 130.570189,40.4700769 129.924126,40.4700769 L129.924126,40.4738627 Z M84.3322453,27.7310019 L84.3322453,40.5041488 L81.9812897,40.5041488 L81.9812897,25.9744103 L84.3322453,27.7310019 Z" id="Shape" fill="url(#linearGradient-2)" fill-rule="nonzero"></path>
            </g>
        </g>
    </g>
</svg>