<?xml version="1.0" encoding="UTF-8"?>
<svg width="397px" height="166px" viewBox="0 0 397 166" version="1.1" xmlns="http://www.w3.org/2000/svg" xmlns:xlink="http://www.w3.org/1999/xlink">
    <title>SG logo CMYK</title>
    <defs>
        <filter id="filter-1">
            <feColorMatrix in="SourceGraphic" type="matrix" values="0 0 0 0 0.000000 0 0 0 0 0.000000 0 0 0 0 0.000000 0 0 0 1.000000 0"></feColorMatrix>
        </filter>
        <linearGradient x1="-0.0348970638%" y1="49.958297%" x2="100.279109%" y2="49.958297%" id="linearGradient-2">
            <stop stop-color="#4EB0B4" offset="10%"></stop>
            <stop stop-color="#0095D4" offset="30%"></stop>
            <stop stop-color="#17428C" offset="42%"></stop>
            <stop stop-color="#E4003A" offset="55%"></stop>
            <stop stop-color="#EC6608" offset="84%"></stop>
        </linearGradient>
    </defs>
    <g id="GPA-2022" stroke="none" stroke-width="1" fill="none" fill-rule="evenodd">
        <g filter="url(#filter-1)" id="SG-logo-CMYK">
            <g transform="translate(0.000000, 0.000000)">
                <g id="Group" transform="translate(0.000000, 127.040867)" fill="#17428C" fill-rule="nonzero">
                    <path d="M15.9833859,15.9 C10.4833859,14.2 8.08338588,13.2 8.08338588,10 C8.08338588,7.2 11.7833859,6.2 15.0833859,6.2 C17.8833859,6.2 20.8833859,7 22.9833859,8.4 C23.4833859,8.7 24.0833859,8.8 24.5833859,8.7 C25.1833859,8.6 25.5833859,8.2 25.8833859,7.6 L26.7833859,5.7 C27.2833859,4.8 26.9833859,3.7 26.0833859,3.1 C23.0833859,1.2 18.9833859,2.84217094e-14 15.1833859,2.84217094e-14 C7.18338588,2.84217094e-14 1.88338588,4.1 1.88338588,10.2 C1.88338588,18.1 8.58338588,20.1 13.8833859,21.7 C19.4833859,23.4 21.9833859,24.5 21.8833859,27.8 C21.8833859,31.2 17.9833859,32.4 14.2833859,32.4 C10.7833859,32.4 6.88338588,30.5 4.58338588,28.4 C4.08338588,28 3.48338588,27.7 2.88338588,27.8 C2.28338588,27.9 1.68338588,28.2 1.38338588,28.8 L0.283385876,30.6 C-0.216614124,31.4 -0.0166141239,32.4 0.583385876,33.1 C4.08338588,36.5 9.28338588,38.6 14.1833859,38.6 C22.4833859,38.6 28.1833859,34.3 28.1833859,27.8 C28.1833859,19.6 21.3833859,17.5 15.9833859,15.9" id="Path"></path>
                    <path d="M43.7833859,22.6 L49.7833859,9.4 L55.7833859,22.6 L43.7833859,22.6 Z M52.6833859,1.3 C52.3833859,0.6 51.5833859,0.1 50.8833859,0.1 L48.6833859,0.1 C47.8833859,0.1 47.1833859,0.6 46.8833859,1.3 L31.2833859,35.6 C30.9833859,36.2 31.0833859,37 31.3833859,37.5 C31.7833859,38.1 32.3833859,38.4 33.0833859,38.4 L35.3833859,38.4 C36.1833859,38.4 36.8833859,37.9 37.1833859,37.2 L41.0833859,28.6 L58.5833859,28.6 L62.4833859,37.2 C62.7833859,37.9 63.5833859,38.4 64.2833859,38.4 L66.5833859,38.4 C67.2833859,38.4 67.8833859,38 68.2833859,37.5 C68.6833859,36.9 68.6833859,36.2 68.3833859,35.6 L52.6833859,1.3 Z" id="Shape"></path>
                    <path d="M78.5833859,0.1 L76.4833859,0.1 C75.3833859,0.1 74.4833859,1 74.4833859,2.1 L74.4833859,36.4 C74.4833859,37.5 75.3833859,38.4 76.4833859,38.4 L78.5833859,38.4 C79.6833859,38.4 80.5833859,37.5 80.5833859,36.4 L80.5833859,2.1 C80.6833859,1 79.6833859,0.1 78.5833859,0.1" id="Path"></path>
                    <path d="M121.383386,0.1 L119.383386,0.1 C118.283386,0.1 117.383386,1 117.383386,2.1 L117.383386,27.1 L98.0833859,0.9 C97.6833859,0.4 97.0833859,0.1 96.4833859,0.1 L94.0833859,0.1 C92.9833859,0.1 92.0833859,1 92.0833859,2.1 L92.0833859,36.4 C92.0833859,37.5 92.9833859,38.4 94.0833859,38.4 L96.1833859,38.4 C97.2833859,38.4 98.1833859,37.5 98.1833859,36.4 L98.1833859,11.4 L117.383386,37.6 C117.783386,38.1 118.383386,38.4 118.983386,38.4 L121.383386,38.4 C122.483386,38.4 123.383386,37.5 123.383386,36.4 L123.383386,2.1 C123.483386,1 122.583386,0.1 121.383386,0.1" id="Path"></path>
                    <path d="M156.783386,0.1 L131.583386,0.1 C130.483386,0.1 129.583386,1 129.583386,2.1 L129.583386,4.1 C129.583386,5.2 130.483386,6.1 131.583386,6.1 L141.183386,6.1 L141.183386,36.4 C141.183386,37.5 142.083386,38.4 143.183386,38.4 L145.283386,38.4 C146.383386,38.4 147.283386,37.5 147.283386,36.4 L147.283386,6.1 L156.883386,6.1 C157.983386,6.1 158.883386,5.2 158.883386,4.1 L158.883386,2.1 C158.883386,1 157.983386,0.1 156.783386,0.1" id="Path"></path>
                    <path d="M171.883386,18.8 L160.883386,18.8 C159.783386,18.8 158.883386,19.7 158.883386,20.8 L158.883386,22.5 C158.883386,23.6 159.783386,24.5 160.883386,24.5 L171.883386,24.5 C172.983386,24.5 173.883386,23.6 173.883386,22.5 L173.883386,20.8 C173.983386,19.7 173.083386,18.8 171.883386,18.8" id="Path"></path>
                    <path d="M214.583386,17.6 L212.683386,17.6 C212.683386,17.6 212.683386,17.6 212.683386,17.6 L206.583386,17.6 C205.483386,17.6 204.583386,18.5 204.583386,19.6 L204.583386,21.7 C204.583386,22.8 205.483386,23.7 206.583386,23.7 L210.683386,23.7 L210.683386,30 C208.283386,31.6 205.383386,32.5 202.483386,32.5 C194.883386,32.5 188.783386,26.6 188.783386,19.3 C188.783386,12 194.983386,6.1 202.483386,6.1 C205.983386,6.1 209.483386,7.4 211.983386,9.7 C212.383386,10.1 212.983386,10.3 213.483386,10.2 C214.083386,10.2 214.583386,9.9 214.883386,9.5 L216.083386,8 C216.783386,7.2 216.683386,5.9 215.883386,5.2 C212.183386,2 207.383386,0.2 202.483386,0.2 C191.583386,0.2 182.583386,8.8 182.583386,19.4 C182.583386,30 191.483386,38.7 202.383386,38.7 C207.283386,38.7 212.183386,36.9 215.883386,33.7 C216.283386,33.3 216.583386,32.8 216.583386,32.2 L216.583386,19.8 C216.583386,18.5 215.683386,17.6 214.583386,17.6" id="Path"></path>
                    <path d="M243.283386,32.4 C235.783386,32.4 229.683386,26.5 229.683386,19.2 C229.683386,12 235.783386,6.1 243.283386,6.1 C250.783386,6.1 256.883386,12 256.883386,19.2 C256.983386,26.5 250.883386,32.4 243.283386,32.4 M243.283386,0 C232.383386,0 223.483386,8.6 223.483386,19.2 C223.483386,29.8 232.383386,38.5 243.283386,38.5 C254.183386,38.5 263.083386,29.9 263.083386,19.2 C263.083386,8.7 254.283386,0 243.283386,0" id="Shape"></path>
                    <path d="M276.183386,21.7 L286.083386,21.7 C289.183386,21.7 294.483386,22.4 294.483386,26.9 C294.483386,31.4 289.883386,32.3 286.083386,32.3 L276.183386,32.3 L276.183386,21.7 Z M286.083386,15.7 L276.183386,15.7 L276.183386,6.2 L286.083386,6.2 C289.083386,6.2 292.783386,7 292.783386,10.9 C292.683386,14 290.483386,15.7 286.083386,15.7 M295.583386,18.2 C297.683386,16.4 298.783386,13.8 298.783386,10.6 C298.783386,4.1 293.883386,0.1 286.083386,0.1 L272.083386,0.1 C270.983386,0.1 270.083386,1 270.083386,2.1 L270.083386,36.4 C270.083386,37.5 270.983386,38.4 272.083386,38.4 L286.183386,38.4 C295.183386,38.4 300.583386,34.2 300.583386,27.1 C300.583386,23.2 298.783386,20 295.583386,18.2" id="Shape"></path>
                    <path d="M316.583386,22.6 L322.583386,9.4 L328.583386,22.6 L316.583386,22.6 Z M325.483386,1.3 C325.183386,0.6 324.383386,0.1 323.683386,0.1 L321.483386,0.1 C320.683386,0.1 319.983386,0.6 319.683386,1.3 L303.983386,35.6 C303.683386,36.2 303.783386,37 304.083386,37.5 C304.483386,38.1 305.083386,38.4 305.783386,38.4 L308.083386,38.4 C308.883386,38.4 309.583386,37.9 309.883386,37.2 L313.783386,28.6 L331.283386,28.6 L335.183386,37.2 C335.483386,37.9 336.283386,38.4 336.983386,38.4 L339.283386,38.4 C339.983386,38.4 340.583386,38 340.983386,37.5 C341.383386,36.9 341.383386,36.2 341.083386,35.6 L325.483386,1.3 Z" id="Shape"></path>
                    <path d="M351.383386,0.1 L349.283386,0.1 C348.183386,0.1 347.283386,1 347.283386,2.1 L347.283386,36.4 C347.283386,37.5 348.183386,38.4 349.283386,38.4 L351.383386,38.4 C352.483386,38.4 353.383386,37.5 353.383386,36.4 L353.383386,2.1 C353.383386,1 352.483386,0.1 351.383386,0.1" id="Path"></path>
                    <path d="M394.183386,0.1 L392.183386,0.1 C391.083386,0.1 390.183386,1 390.183386,2.1 L390.183386,27.1 L370.883386,0.9 C370.483386,0.4 369.883386,0.1 369.283386,0.1 L366.883386,0.1 C365.783386,0.1 364.883386,1 364.883386,2.1 L364.883386,36.4 C364.883386,37.5 365.783386,38.4 366.883386,38.4 L368.983386,38.4 C370.083386,38.4 370.983386,37.5 370.983386,36.4 L370.983386,11.4 L390.183386,37.6 C390.583386,38.1 391.183386,38.4 391.783386,38.4 L394.183386,38.4 C395.283386,38.4 396.183386,37.5 396.183386,36.4 L396.183386,2.1 C396.183386,1 395.283386,0.1 394.183386,0.1" id="Path"></path>
                </g>
                <path d="M343.083386,106.940867 L318.683386,106.940867 L318.483386,106.740867 L296.983386,85.4408669 C296.083386,84.5408669 294.783386,84.3408669 293.583386,84.7408669 C292.383386,85.2408669 291.683386,86.3408669 291.683386,87.6408669 L291.683386,106.940867 L285.283386,106.940867 L285.283386,59.0408669 C285.283386,58.2408669 284.883386,57.3408669 284.283386,56.8408669 L266.383386,39.9408669 C265.783386,39.4408669 265.083386,39.1408669 264.283386,39.1408669 L255.383386,39.1408669 C253.683386,39.1408669 252.283386,40.5408669 252.283386,42.2408669 L252.283386,106.940867 L245.983386,106.940867 L245.983386,3.14086692 C245.983386,1.84086692 245.183386,0.740866917 244.083386,0.240866917 C242.983386,-0.259133083 241.583386,0.0408669165 240.683386,0.940866917 L211.083386,30.9408669 C210.483386,31.5408669 210.183386,32.3408669 210.183386,33.1408669 L210.183386,56.3408669 L198.083386,47.3408669 C196.983386,46.5408669 195.383386,46.5408669 194.283386,47.4408669 L166.783386,69.5408669 C166.083386,70.1408669 165.583386,71.0408669 165.583386,71.9408669 L165.583386,107.140867 L159.383386,107.140867 L159.383386,87.7408669 C159.383386,80.9408669 154.683386,73.6408669 145.983386,73.6408669 C137.283386,73.6408669 132.583386,80.9408669 132.583386,87.7408669 L132.583386,107.040867 L126.283386,107.040867 L126.283386,93.8408669 C126.283386,88.5408669 122.583386,82.8408669 115.783386,82.8408669 C108.983386,82.8408669 105.283386,88.5408669 105.283386,93.8408669 L105.283386,107.040867 L98.9833859,107.040867 L98.9833859,106.440867 C98.9833859,103.740867 98.9833859,100.340867 98.9833859,99.0408669 C98.9833859,94.5408669 94.6833859,90.5408669 89.7833859,90.5408669 C84.8833859,90.5408669 80.5833859,94.5408669 80.5833859,99.0408669 L80.5833859,107.040867 L52.9833859,107.040867 C51.2833859,107.040867 49.8833859,108.440867 49.8833859,110.140867 C49.8833859,110.940867 50.1833859,111.740867 50.7833859,112.340867 C51.3833859,112.940867 52.1833859,113.240867 52.9833859,113.240867 L83.6833859,113.240867 C84.4833859,113.240867 85.2833859,112.940867 85.8833859,112.340867 C86.4833859,111.740867 86.7833859,110.940867 86.7833859,110.140867 L86.7833859,99.5408669 C86.7833859,98.4408669 87.9833859,96.7408669 89.7833859,96.7408669 C91.4833859,96.7408669 92.7833859,98.3408669 92.7833859,99.6408669 C92.7833859,100.440867 92.7833859,110.140867 92.7833859,110.140867 C92.7833859,111.840867 94.1833859,113.240867 95.8833859,113.240867 L108.383386,113.240867 C110.083386,113.240867 111.483386,111.840867 111.483386,110.140867 L111.483386,93.8408669 C111.483386,92.1408669 112.383386,89.0408669 115.783386,89.0408669 C119.183386,89.0408669 120.083386,92.2408669 120.083386,93.8408669 L120.083386,110.140867 C120.083386,111.840867 121.483386,113.240867 123.183386,113.240867 L135.683386,113.240867 C136.483386,113.240867 137.283386,112.940867 137.883386,112.340867 C138.483386,111.740867 138.783386,110.940867 138.783386,110.140867 L138.783386,87.7408669 C138.783386,85.0408669 140.283386,79.8408669 145.983386,79.8408669 C151.283386,79.8408669 153.183386,84.5408669 153.183386,87.7408669 L153.183386,110.240867 C153.183386,111.940867 154.583386,113.340867 156.283386,113.340867 L168.683386,113.340867 C170.383386,113.340867 171.783386,111.940867 171.783386,110.240867 L171.783386,73.4408669 L171.983386,73.2408669 L196.283386,53.7408669 L210.183386,64.1408669 L210.183386,110.240867 C210.183386,111.940867 211.583386,113.340867 213.283386,113.340867 L225.683386,113.340867 C227.383386,113.340867 228.783386,111.940867 228.783386,110.240867 L228.783386,71.8408669 C228.783386,70.8408669 228.283386,69.9408669 227.583386,69.3408669 L216.383386,61.0408669 L216.383386,34.5408669 L216.583386,34.3408669 L239.783386,10.7408669 L239.783386,110.240867 C239.783386,111.940867 241.183386,113.340867 242.883386,113.340867 L255.383386,113.340867 C257.083386,113.340867 258.483386,111.940867 258.483386,110.240867 L258.483386,45.5408669 L263.083386,45.5408669 L263.283386,45.7408669 L279.083386,60.6408669 L279.083386,110.240867 C279.083386,111.940867 280.483386,113.340867 282.183386,113.340867 L294.783386,113.340867 C296.483386,113.340867 297.883386,111.940867 297.883386,110.240867 L297.883386,95.2408669 L315.183386,112.340867 C315.783386,112.940867 316.583386,113.240867 317.383386,113.240867 L343.083386,113.240867 C344.783386,113.240867 346.183386,111.840867 346.183386,110.140867 C346.183386,108.340867 344.783386,106.940867 343.083386,106.940867 Z M222.683386,73.2408669 L222.683386,106.940867 L216.483386,106.940867 L216.483386,68.5408669 L222.683386,73.2408669 Z" id="Shape" fill="url(#linearGradient-2)" fill-rule="nonzero"></path>
            </g>
        </g>
    </g>
</svg>