<?xml version="1.0" encoding="UTF-8"?>
<svg width="175px" height="41px" viewBox="0 0 175 41" version="1.1" xmlns="http://www.w3.org/2000/svg" xmlns:xlink="http://www.w3.org/1999/xlink">
    <title>210421_Trigema_logo-01</title>
    <g id="Page-1" stroke="none" stroke-width="1" fill="none" fill-rule="evenodd">
        <g id="210421_Trigema_logo-01" fill="#000000" fill-rule="nonzero">
            <path d="M42.5939114,24.914549 C42.4176547,24.6097556 42.0920799,24.421184 41.7403361,24.421184 L33.3708333,24.421184 C33.0183197,24.421184 32.692745,24.233382 32.5172579,23.9278189 L30.5053138,20.4442462 L28.4933696,16.9599038 C28.3171129,16.6551105 28.3171129,16.2787368 28.4933696,15.9739435 L32.678121,8.72663443 C32.8543778,8.42184106 32.8543778,8.04546743 32.678121,7.74067406 L28.4933696,0.493365027 C28.3171129,0.188571656 27.9915381,-8.75025113e-15 27.6397943,-8.75025113e-15 L19.2710611,-8.75025113e-15 C18.9185476,-8.75025113e-15 18.5929729,0.187801976 18.4174858,0.493365027 L14.2327344,7.74067406 C14.0564776,8.04546743 14.0564776,8.42184106 14.2327344,8.72663443 L18.4174858,15.9739435 C18.5937425,16.2787368 18.5937425,16.6551105 18.4174858,16.9599038 L16.404772,20.4442462 L14.3928279,23.9285886 C14.2165711,24.233382 13.8909963,24.4219537 13.5392525,24.4219537 L5.17051936,24.4219537 C4.81800581,24.4219537 4.49243107,24.6097556 4.31694398,24.9153187 L0.132192579,32.1626277 C-0.0440641931,32.4674211 -0.0440641931,32.8437947 0.132192579,33.1485881 L4.31694398,40.3958971 C4.49320075,40.7006905 4.81877549,40.8884925 5.17051936,40.8884925 L13.5392525,40.8884925 C13.891766,40.8884925 14.2173408,40.7006905 14.3928279,40.3958971 L18.5775793,33.1485881 C18.753836,32.8437947 19.0794108,32.6552231 19.4311546,32.6552231 L23.4550429,32.6552231 L27.4789311,32.6552231 C27.8314446,32.6552231 28.1570194,32.843025 28.3325065,33.1485881 L32.5172579,40.3958971 C32.6935147,40.7006905 33.0190894,40.8884925 33.3708333,40.8884925 L41.7395664,40.8884925 C42.0920799,40.8884925 42.4176547,40.7006905 42.5931418,40.3958971 L46.7778932,33.1485881 C46.9541499,32.8437947 46.9541499,32.4674211 46.7778932,32.1626277 L42.5939114,24.914549 Z M18.4713634,8.72586475 C18.2951066,8.42107138 18.2951066,8.04469775 18.4713634,7.73990438 L20.5364154,4.16320036 C20.7126722,3.85840699 21.0382469,3.66983533 21.3899908,3.66983533 L25.5200949,3.66983533 C25.8726085,3.66983533 26.1981832,3.85763731 26.3736703,4.16320036 L28.4387223,7.73990438 C28.6149791,8.04469775 28.6149791,8.42107138 28.4387223,8.72586475 L26.0888886,12.7959338 L23.4542732,8.23326941 L20.8196578,12.7959338 L18.4713634,8.72586475 Z M12.2738982,36.7252921 C12.0976414,37.0300855 11.7720667,37.2186571 11.4203228,37.2186571 L7.29021871,37.2186571 C6.93770516,37.2186571 6.61213042,37.0308552 6.43664333,36.7252921 L4.37159128,33.1485881 C4.19533451,32.8437947 4.19533451,32.4674211 4.37159128,32.1626277 L6.43664333,28.5859237 C6.6129001,28.2811303 6.93847484,28.0925587 7.29021871,28.0925587 L11.9898862,28.0925587 L9.35527076,32.6552231 L14.6237319,32.6552231 L12.2738982,36.7252921 Z M15.8706139,28.8937958 L23.4550429,15.7568936 L31.0394718,28.8937958 L15.8706139,28.8937958 Z M42.5392641,33.1485881 L40.4742121,36.7252921 C40.2979553,37.0300855 39.9723806,37.2186571 39.6206367,37.2186571 L35.4905326,37.2186571 C35.1380191,37.2186571 34.8124443,37.0308552 34.6369572,36.7252921 L32.2871235,32.6552231 L37.5555847,32.6552231 L34.9209692,28.0925587 L39.6206367,28.0925587 C39.9731503,28.0925587 40.298725,28.2803606 40.4742121,28.5859237 L42.5392641,32.1626277 C42.7155209,32.4674211 42.7155209,32.843025 42.5392641,33.1485881 Z" id="Shape"></path>
            <path d="M157.903555,25.2809168 C157.902016,23.2181738 157.900476,21.0846202 157.874307,18.9857022 C157.831205,15.3735929 155.756917,13.091491 152.1856,12.7235839 C149.623335,12.4595835 147.560592,13.2885291 146.050479,15.1857909 C144.973697,13.6679815 143.417403,12.8598173 141.30694,12.7197355 C139.380431,12.5919685 137.801816,13.0791761 136.500287,14.2067577 L136.497208,13.0414618 L132.728084,13.0514676 L132.768877,28.662122 L136.554165,28.6521162 L136.544929,25.3986779 C136.539541,23.6284133 136.534153,21.8573791 136.532614,20.0871146 C136.531844,18.8125241 137.020591,17.7318931 137.909572,17.046108 C138.806249,16.3533958 139.990017,16.1525093 141.242287,16.4803931 C141.823396,16.6327897 142.58307,16.9868426 142.904796,17.8104005 C143.196505,18.55776 143.359677,19.2958833 143.375841,19.9431844 C143.423561,21.809659 143.421252,23.7107691 143.418943,25.5495352 C143.418173,26.2684165 143.417403,26.9872979 143.419712,27.7061792 L143.422021,28.6413407 L147.231939,28.6313348 L147.222702,25.3401822 C147.218084,23.5699176 147.212697,21.7996531 147.210387,20.0293886 C147.208848,18.7778885 147.68605,17.7134208 148.553479,17.0330235 C149.433994,16.3426203 150.604677,16.1309582 151.846941,16.437291 C152.802114,16.6728131 153.429404,17.216977 153.712646,18.0559285 C153.922769,18.6809088 154.04053,19.3659242 154.052845,20.0378551 C154.08748,21.8827786 154.08748,23.7607983 154.08748,25.576474 C154.08748,26.2691862 154.08748,26.9611287 154.08902,27.6538409 L154.091329,28.6197896 L157.906634,28.6105535 C157.906634,28.6105535 157.907403,27.9771066 157.906634,27.9055264 C157.905094,27.0311696 157.904325,26.1560432 157.903555,25.2809168 Z" id="Path"></path>
            <polygon id="Rectangle" transform="translate(88.748949, 20.976719) rotate(-0.149883) translate(-88.748949, -20.976719) " points="86.8763102 13.1648228 90.621587 13.1648228 90.621587 28.7886152 86.8763102 28.7886152"></polygon>
            <path d="M88.7262353,5.95654686 C88.1066427,5.95501593 87.5540123,6.16436895 87.1607057,6.55844523 C86.7666294,6.95483055 86.5595855,7.50053383 86.5626303,8.1362897 C86.5657429,8.75819132 86.7889502,9.31851853 87.1922626,9.71336449 C87.5840298,10.0966652 88.1258847,10.3060183 88.7223869,10.3044873 L88.7547135,10.3044873 C89.995438,10.2852369 90.8998123,9.37316582 90.9052327,8.13475034 C90.9082787,7.52285455 90.693538,6.96868479 90.301001,6.57383883 C89.9069248,6.17668383 89.3465976,5.95732497 88.7262353,5.95654686 Z" id="Path"></path>
            <path d="M174.939657,18.4500048 C174.865768,16.061687 173.602723,14.280647 171.287524,13.2993047 C167.915555,11.8715478 163.841638,12.7728434 161.377891,15.4890449 C161.293996,15.5821762 161.221646,15.6853134 161.175466,15.7499665 L160.964573,16.0293604 L163.349812,18.4523138 L163.702326,18.1190423 C163.778524,18.0459226 163.86088,17.9674153 163.944005,17.8904472 C165.18473,16.7459327 166.493186,16.2240895 167.9525,16.2872033 C169.025434,16.3356932 169.928269,16.7413147 170.494754,17.4278694 C170.955792,17.9866573 171.175151,18.6932237 171.140515,19.4890731 C171.120504,19.4836853 171.101262,19.4775279 171.08202,19.4713704 C170.74336,19.3720817 170.423943,19.2781807 170.086054,19.2127579 C167.502237,18.7109264 165.308648,18.9564544 163.37983,19.9631961 C161.567233,20.9106725 160.642077,22.4046218 160.703652,24.2834112 C160.772923,26.3446149 161.879723,27.7993105 163.996344,28.6074747 C164.835295,28.9284314 165.750445,29.0846765 166.781047,29.0816424 C166.920359,29.0816424 167.06275,29.0777494 167.20668,29.0715919 C168.849177,29.0007813 170.204584,28.4489206 171.245962,27.4306337 L171.24904,28.7083028 L174.266957,28.700606 L174.86115,28.6990667 L174.995074,28.6990667 L174.993535,27.9824944 C174.991995,27.0965924 174.993535,26.2106905 174.995844,25.3240189 C175.002771,23.0727042 175.009698,20.7421125 174.939657,18.4500048 Z M170.894987,23.6622793 L170.891139,23.6630489 C170.366217,24.8614411 169.193994,25.7050106 167.825503,25.7973722 C166.864172,25.862795 166.165302,25.7565792 165.562643,25.4533252 C164.886864,25.1131265 164.570525,24.6536274 164.567431,24.0094051 C164.565907,23.6014745 164.677511,23.0934856 165.132392,22.7571353 L165.120846,22.757905 C165.120846,22.757905 165.144706,22.7432811 165.178572,22.7232694 C165.279401,22.6555375 165.389465,22.5924238 165.523389,22.5431642 C165.529547,22.5408552 165.535704,22.5385461 165.542631,22.5370068 C166.358492,22.1621725 168.327334,21.5048656 171.141285,22.1667906 C171.270591,22.9179985 170.894987,23.6622793 170.894987,23.6622793 Z" id="Shape"></path>
            <path d="M110.615171,16.7313088 L110.621329,16.7313088 L110.612093,13.1130421 L110.528197,13.1130421 L106.779855,13.1230479 L106.783703,14.5554228 C105.680751,13.5509901 104.356132,12.9968203 102.679768,12.8282604 C99.493292,12.5088431 96.486921,14.0266525 95.0222196,16.6974429 C93.9762241,18.6054802 93.7145329,20.7221008 94.2440729,22.9880394 C94.9360154,25.9474599 96.7393762,27.9316955 99.4601958,28.7260055 C102.384981,29.5811202 104.86489,29.0985307 106.837581,27.297479 C106.83989,27.5137591 106.83912,27.7231122 106.827575,27.9270774 C106.739831,29.5872777 105.956297,30.7356406 104.500832,31.3421486 C102.415768,32.2088085 100.423066,31.9678986 98.5758332,30.6248066 C98.2795063,30.4092962 98.0016517,30.1583804 97.7330333,29.9159311 C97.6083451,29.8035578 97.4867357,29.6934935 97.3666655,29.5895867 L97.1119014,29.3709975 L94.6750938,31.8655311 L94.9698813,32.200342 C95.0468493,32.289625 95.1376716,32.3958408 95.235421,32.4943599 C97.1126711,34.3923913 99.4317176,35.3460251 102.144071,35.3383746 C102.505051,35.3375587 102.873728,35.319856 103.248562,35.2844507 C105.05731,35.1151211 106.535866,34.5663391 107.768894,33.6073175 C109.645374,32.1472341 110.606705,30.1422171 110.625947,27.6484532 C110.651346,24.3226649 110.635953,20.9414597 110.621329,17.6726277 C110.616711,17.3601376 110.615941,17.0453383 110.615171,16.7313088 Z M106.804485,21.1615882 C106.777546,22.3684468 106.271096,23.5014161 105.379037,24.3526824 C104.498523,25.1916339 103.362475,25.6365091 102.183324,25.6088006 C100.969539,25.578783 99.8596598,25.0977329 99.0584227,24.2533937 C98.2071564,23.3559465 97.7584328,22.1190704 97.7961471,20.7705907 C97.8723455,18.045153 99.6595429,16.3079847 102.368817,16.3002879 C102.428083,16.3002879 102.488887,16.3010576 102.548153,16.3025969 C105.036529,16.3657107 106.866059,18.4546228 106.804485,21.1615882 Z" id="Shape"></path>
            <path d="M80.6030302,12.8413449 C80.5068201,12.8482721 80.4313915,12.8528901 80.3413389,12.8667444 C79.233769,12.9652635 78.1423625,13.4201445 77.3064897,14.4107229 L77.303411,13.1900101 L73.5250508,13.2000159 L73.5658438,28.8260639 L77.3434344,28.8160581 L77.3357376,26.3207548 C77.3311195,25.068485 77.3257318,23.8154456 77.3303498,22.5624062 L77.3311195,22.1383124 C77.3326589,21.2701131 77.3341982,20.372666 77.3926939,19.4990789 C77.4904433,18.0520801 78.343249,16.9822246 79.6078336,16.6089297 C79.7686968,16.5727547 81.5405007,16.1948417 82.93824,16.9976182 L84.129705,13.6541273 C84.129705,13.6541273 83.1437446,12.99759 81.6113113,12.8544295 C81.3042089,12.8190242 80.9670889,12.807479 80.6030302,12.8413449 Z" id="Path"></path>
            <path d="M69.2579436,25.2331966 C69.1840543,25.2547477 69.1201708,25.2724503 69.0539783,25.2886136 C68.9292901,25.3170918 68.8630976,25.3347944 68.7507243,25.3563455 C68.580625,25.3902114 68.3851262,25.4356225 68.1903971,25.4733368 C67.7147347,25.5672378 67.2644718,25.6549814 66.8180573,25.6619085 C66.180762,25.6834595 65.6881667,25.5118209 65.3579739,25.1900945 C65.0239327,24.8637501 64.8507546,24.3665367 64.8438275,23.7123085 C64.8253552,21.9104871 64.8238158,20.0778784 64.8222764,18.3045352 L64.8207371,16.5411978 C64.8207371,16.5296526 64.8207371,16.5181074 64.8222764,16.5065622 L69.8559851,16.4934776 L69.8475186,13.1676894 L64.7545446,13.1807739 L64.74146,8.08241208 L61.0354497,8.09241792 L61.049304,13.206943 L56.4504646,13.2192579 L56.4589311,16.5650579 L61.0192864,16.552743 L61.0200561,16.8529183 C61.0231348,17.5871932 61.0231348,18.3214682 61.0239045,19.0565128 C61.0246742,20.7682816 61.0262135,22.5377765 61.0554614,24.2795628 C61.0870183,26.1491161 61.807439,27.5145288 63.1967118,28.3365473 C64.002567,28.8129794 64.8515243,29.0939126 65.7674438,29.187044 L65.7666741,29.187044 C65.7666741,29.187044 67.254466,29.4525836 69.1955995,28.7667985 C69.3472265,28.7198481 69.5003929,28.6698188 69.6550986,28.6159412 C69.7112852,28.5966992 69.7489996,28.5820753 69.8382825,28.5405126 C70.2092684,28.3704132 70.3701315,28.2557309 70.3701315,28.2557309 L69.6466321,25.1138962 L69.2579436,25.2331966 Z" id="Path"></path>
            <path d="M128.320126,16.0339785 C126.52754,13.2292638 123.107081,11.9900786 119.608115,12.8790593 C115.591154,13.8981159 113.055827,17.7111117 113.57921,21.9458924 C114.001764,25.3640423 115.849767,27.733118 118.923869,28.794507 C119.994495,29.1639535 121.042799,29.3463678 122.056468,29.3440804 C124.162313,29.338671 126.121919,28.5358945 127.832918,26.9572803 C128.196977,26.6216997 128.495613,26.2222357 128.785782,25.8358562 C128.918167,25.6588298 129.060558,25.4564039 129.202949,25.2809168 L129.427695,24.9107006 L129.19987,24.8321932 L126.014933,23.4529262 C125.303749,24.4550499 124.513287,25.0707941 123.547339,25.367121 C122.323547,25.7427249 121.145167,25.7019319 120.044524,25.2462812 C118.704511,24.6921114 117.730095,23.4737076 117.607716,22.2537645 L128.112312,22.226056 L128.112312,22.2299044 L129.547766,22.226056 C129.668605,21.6588016 129.520827,19.8508228 129.520827,19.8508228 C129.436162,18.423066 129.041316,17.1623297 128.320126,16.0339785 Z M117.724708,19.1250143 C117.997944,17.556406 119.826704,16.2117747 121.805552,16.2071566 L121.827873,16.2071566 C123.655094,16.211005 125.286816,17.5271582 125.523877,19.1050026 L117.724708,19.1250143 Z" id="Shape"></path>
        </g>
    </g>
</svg>