<svg xmlns="http://www.w3.org/2000/svg" xmlns:xlink="http://www.w3.org/1999/xlink" width="73.183" height="36.479" viewBox="0 0 73.183 36.479">
  <defs>
    <clipPath id="clip-path">
      <rect id="Rectangle_31" data-name="Rectangle 31" width="73.183" height="36.479" transform="translate(149.987 469.37)" fill="none"/>
    </clipPath>
  </defs>
  <g id="ahrend" transform="translate(-149.987 -469.37)" style="mix-blend-mode: multiply;isolation: isolate">
    <g id="Group_34" data-name="Group 34">
      <g id="Group_33" data-name="Group 33" clip-path="url(#clip-path)">
        <path id="Path_236" data-name="Path 236" d="M167.309,492.546h8.531a.682.682,0,1,0,0-1.364l-5.446,0a3.406,3.406,0,1,1,0-6.813H178.9V487.1h-8.508a.682.682,0,1,0,0,1.364l5.446,0a3.407,3.407,0,1,1,0,6.814h-8.531Z" fill="#b0b0af"/>
        <path id="Path_237" data-name="Path 237" d="M194.229,492.546h8.534a.682.682,0,1,0,0-1.364l-5.448,0a3.406,3.406,0,0,1,0-6.813h8.508V487.1h-8.508a.682.682,0,1,0,0,1.364l5.448,0a3.407,3.407,0,1,1,0,6.814h-8.534Z" fill="#b0b0af"/>
        <path id="Path_238" data-name="Path 238" d="M180.609,495.285h2.729V487.1h6.1a.682.682,0,1,1,0,1.363H184.7v2.724h4.737a3.407,3.407,0,1,0,0-6.813h-8.827Z" fill="#636362"/>
        <path id="Path_239" data-name="Path 239" d="M170.205,500.222a1.124,1.124,0,0,0,.585.17.381.381,0,0,0,.418-.4c0-.2-.113-.286-.358-.421l-.258-.14a.777.777,0,0,1,.42-1.477,1.78,1.78,0,0,1,.577.1l-.023.423a1.331,1.331,0,0,0-.519-.119c-.254,0-.383.134-.383.325s.137.285.292.372l.3.166a.748.748,0,0,1,.476.744.813.813,0,0,1-.924.83,1.272,1.272,0,0,1-.628-.121Z" fill="#222221"/>
        <path id="Path_240" data-name="Path 240" d="M171.884,497.994h.547l.557,2.129H173l.574-2.129h.522l-.841,2.762h-.536Z" fill="#222221"/>
        <path id="Path_241" data-name="Path 241" d="M175.659,500.755h.524l-.891-2.761h-.555l-.925,2.761h.507l.2-.665h.95Zm-1.036-1.052.38-1.29h.008l.348,1.29Z" fill="#222221"/>
        <path id="Path_242" data-name="Path 242" d="M176.407,500.313,177.5,498.4H176.44v-.4h1.645v.419l-1.1,1.939H178.1v.4h-1.694Z" fill="#222221"/>
        <path id="Path_243" data-name="Path 243" d="M179.66,500.756h.506v-1.08h.286a.841.841,0,1,0,0-1.682h-.792Zm.506-1.467v-.907h.19a.454.454,0,1,1,0,.907Z" fill="#222221"/>
        <path id="Path_244" data-name="Path 244" d="M181.685,499.374c0,.993.527,1.421,1.1,1.421s1.1-.428,1.1-1.421-.525-1.42-1.1-1.42-1.1.428-1.1,1.42m.523,0c0-.759.257-1.031.577-1.031s.579.272.579,1.031-.258,1.033-.579,1.033-.577-.272-.577-1.033" fill="#222221"/>
        <path id="Path_245" data-name="Path 245" d="M184.4,500.756h.72a1.241,1.241,0,0,0,1.323-1.381,1.205,1.205,0,0,0-1.323-1.381h-.72Zm.507-2.374h.17c.57,0,.827.387.827.993s-.257.993-.827.993h-.17Z" fill="#222221"/>
        <path id="Path_246" data-name="Path 246" d="M186.968,497.994h.6l.917,2.168h.008v-2.168h.46v2.762h-.606l-.914-2.152h-.008v2.152h-.459Z" fill="#222221"/>
        <rect id="Rectangle_29" data-name="Rectangle 29" width="0.506" height="2.762" transform="translate(189.6 497.994)" fill="#222221"/>
        <path id="Path_247" data-name="Path 247" d="M190.754,497.994h.507v1.171h.013l.786-1.171h.582l-.937,1.3,1.012,1.46H192.1l-.829-1.3h-.013v1.3h-.507Z" fill="#222221"/>
        <path id="Path_248" data-name="Path 248" d="M194.664,500.755h.522l-.891-2.761h-.553l-.927,2.761h.508l.2-.665h.95Zm-1.038-1.052.382-1.29h.007l.348,1.29Z" fill="#222221"/>
        <path id="Path_249" data-name="Path 249" d="M195.752,498.4h-.618v-.4h1.738v.4h-.614v2.358h-.506Z" fill="#222221"/>
        <path id="Path_250" data-name="Path 250" d="M197.307,497.994h1.452v.4h-.945v.735h.894v.4h-.894v.813h.986v.405h-1.493Z" fill="#222221"/>
        <path id="Path_251" data-name="Path 251" d="M199.321,497.994h.506v2.356h.91v.405h-1.416Z" fill="#222221"/>
        <path id="Path_252" data-name="Path 252" d="M201.735,497.649a.341.341,0,1,0,.34-.339.341.341,0,0,0-.34.339m-.6.344v1.788a.943.943,0,1,0,1.88,0v-1.788h-.508v1.788c0,.459-.143.611-.431.611s-.434-.152-.434-.611v-1.788Zm.755-.344a.183.183,0,0,1,.365,0,.182.182,0,1,1-.365,0" fill="#222221"/>
        <path id="Path_253" data-name="Path 253" d="M171.694,502.05h.546l.558,2.129h.008l.574-2.129h.522l-.843,2.762h-.534Z" fill="#222221"/>
        <path id="Path_254" data-name="Path 254" d="M174.286,502.05h1.452v.4h-.945v.736h.894v.4h-.894v.814h.986v.405h-1.493Z" fill="#222221"/>
        <path id="Path_255" data-name="Path 255" d="M177.8,504.276a1.126,1.126,0,0,0,.587.171.383.383,0,0,0,.419-.4c0-.2-.115-.284-.361-.419l-.256-.144a.776.776,0,0,1,.418-1.475,1.85,1.85,0,0,1,.579.1l-.025.424a1.3,1.3,0,0,0-.517-.118c-.254,0-.385.134-.385.324s.14.284.295.371l.3.167a.751.751,0,0,1,.478.744.814.814,0,0,1-.925.831,1.273,1.273,0,0,1-.631-.123Z" fill="#222221"/>
        <path id="Path_256" data-name="Path 256" d="M180.186,502.453h-.617v-.4h1.737v.4h-.613v2.359h-.507Z" fill="#222221"/>
        <path id="Path_257" data-name="Path 257" d="M183.024,504.811h.523l-.891-2.762H182.1l-.926,2.762h.507l.2-.664h.95Zm-1.036-1.053.379-1.289h.009l.349,1.289Z" fill="#222221"/>
        <path id="Path_258" data-name="Path 258" d="M183.465,502.05h.546l.557,2.129h.008l.574-2.129h.522l-.843,2.762h-.534Z" fill="#222221"/>
        <path id="Path_259" data-name="Path 259" d="M186.055,502.05h1.452v.4h-.945v.736h.893v.4h-.893v.814h.986v.405h-1.493Z" fill="#222221"/>
        <path id="Path_260" data-name="Path 260" d="M188.094,504.811h.842a.768.768,0,0,0,.859-.775.625.625,0,0,0-.522-.661v-.007a.619.619,0,0,0,.458-.638c0-.466-.261-.68-.831-.68h-.806Zm.49-1.234h.265a.424.424,0,1,1,.016.847h-.281Zm0-1.155h.249a.365.365,0,0,1,.408.371.386.386,0,0,1-.4.412h-.261Z" fill="#222221"/>
        <path id="Path_261" data-name="Path 261" d="M190.349,502.05h.6l.917,2.168h.008V502.05h.46v2.762h-.6l-.915-2.153h-.008v2.153h-.459Z" fill="#222221"/>
        <rect id="Rectangle_30" data-name="Rectangle 30" width="0.506" height="2.762" transform="translate(192.98 502.049)" fill="#222221"/>
        <path id="Path_262" data-name="Path 262" d="M195.892,504.752a1.534,1.534,0,0,1-.6.1,1.43,1.43,0,0,1-.017-2.84,1.764,1.764,0,0,1,.614.114l-.027.456a1.064,1.064,0,0,0-.523-.15c-.42,0-.779.284-.779,1s.359,1,.779,1a.855.855,0,0,0,.523-.143Z" fill="#222221"/>
        <path id="Path_263" data-name="Path 263" d="M196.8,502.453h-.617v-.4h1.737v.4h-.614v2.359H196.8Z" fill="#222221"/>
        <path id="Path_264" data-name="Path 264" d="M198.1,502.05h.545l.559,2.129h.007l.575-2.129h.522l-.843,2.762h-.533Z" fill="#222221"/>
        <path id="Path_265" data-name="Path 265" d="M200.973,501.463h.491l-.4.428h-.339Zm-.281.586h.507v2.761h-.507Z" fill="#222221"/>
      </g>
    </g>
  </g>
</svg>
