<svg xmlns="http://www.w3.org/2000/svg" width="75.432" height="22.203" viewBox="0 0 75.432 22.203">
  <g id="ahrend" transform="translate(-361.158 -406.204)">
    <path id="Path_106" data-name="Path 106" d="M409.967,419.811a2.185,2.185,0,0,0-2.22-2.148h-6.655a2.253,2.253,0,0,0-1.568.63,2.11,2.11,0,0,0-.65,1.518v6.446a2.111,2.111,0,0,0,.65,1.519,2.253,2.253,0,0,0,1.568.63h8.875v-2.149h-8.875v-6.444h6.655v4.3h2.22Z" fill="#222221"/>
    <path id="Path_107" data-name="Path 107" d="M421.059,417.664a2.256,2.256,0,0,1,1.568.629,2.115,2.115,0,0,1,.65,1.52v8.594h-2.218v-8.594l-6.656,0v8.6h-2.218V417.665Z" fill="#222221"/>
    <path id="Path_108" data-name="Path 108" d="M372.25,417.663V428.4h-2.219v-8.592h-6.654v6.444h4.436V428.4h-4.436a2.184,2.184,0,0,1-2.219-2.149V419.81a2.184,2.184,0,0,1,2.219-2.148Z" fill="#222221"/>
    <path id="Path_109" data-name="Path 109" d="M376.687,417.664h6.655a2.253,2.253,0,0,1,1.569.629,2.114,2.114,0,0,1,.649,1.52v8.594h-2.218v-8.594h-6.656v8.594h-2.218V414.44h2.218Z" fill="#222221"/>
    <path id="Path_110" data-name="Path 110" d="M436.59,414.44h-2.219v11.818h-6.656v-6.445h4.437v-2.15h-4.437a2.262,2.262,0,0,0-1.569.63,2.111,2.111,0,0,0-.648,1.52v6.445a2.112,2.112,0,0,0,.648,1.518,2.252,2.252,0,0,0,1.569.629h6.658a2.25,2.25,0,0,0,1.568-.629,2.113,2.113,0,0,0,.649-1.518Z" fill="#222221"/>
    <path id="Path_111" data-name="Path 111" d="M391.108,417.664a2.121,2.121,0,0,0-2.065,1.577l-2.373,9.166h2.219l2.213-8.593h6.662v-2.148h-6.656Z" fill="#222221"/>
    <rect id="Rectangle_23" data-name="Rectangle 23" width="8.873" height="1.073" transform="translate(388.891 414.44)" fill="#222221"/>
    <path id="Path_112" data-name="Path 112" d="M394.806,407.636l-.739.717-.74-.717-.738.717-.74-.717,1.479-1.432Z" fill="#222221"/>
    <path id="Path_113" data-name="Path 113" d="M394.066,409.784l1.479,1.433-1.479,1.431.741.716,1.478-1.431a.99.99,0,0,0,0-1.433l-1.478-1.432Z" fill="#222221"/>
    <path id="Path_114" data-name="Path 114" d="M392.588,412.648l-1.48-1.431,1.48-1.433-.74-.716-1.479,1.433a.99.99,0,0,0,0,1.433l1.479,1.431Z" fill="#222221"/>
    <path id="Path_115" data-name="Path 115" d="M389.629,412.649l-1.479-1.433,1.479-1.432-.739-.716-1.48,1.433a.991.991,0,0,0,0,1.432l1.48,1.432Z" fill="#222221"/>
    <path id="Path_116" data-name="Path 116" d="M397.023,409.784l1.481,1.433-1.481,1.431.741.716,1.478-1.431a.992.992,0,0,0,0-1.433l-1.478-1.432Z" fill="#222221"/>
  </g>
</svg>
