<svg xmlns="http://www.w3.org/2000/svg" width="59.435" height="9.645" viewBox="0 0 59.435 9.645">
  <path id="casua" d="M257.272,488.236a8.778,8.778,0,0,0-.355,2.52c0,4.248,2.719,7.125,6.27,7.125a5.331,5.331,0,0,0,5.619-4.585h-2.292a3.277,3.277,0,0,1-3.327,2.473c-2.449,0-3.91-2.136-3.91-5.013a6.786,6.786,0,0,1,.448-2.52Zm14.885,0-3.621,9.42h2.36l1.416-3.821h5.282l1.416,3.821h2.382l-3.621-9.42h-2.265l1.324,3.578h-3.776l1.323-3.578Zm9.044,5.6c.5,2.563,2.585,4.046,5.507,4.046,2.854,0,4.922-1.6,4.922-4.18,0-2.068-1.416-3.327-3.574-3.821l-2.4-.562a2.259,2.259,0,0,1-1.67-1.082h-2.345c.219,1.873,1.652,2.782,3.408,3.2l2.338.561c1.438.337,2,.9,2,1.865,0,1.282-1.056,2.045-2.674,2.045a2.983,2.983,0,0,1-3.125-2.068Zm11.507-5.6v3.914c0,3.8,2.248,5.731,5.529,5.731,3.3,0,5.529-1.933,5.529-5.709v-3.936h-2.337V491.9c0,2.653-1.124,3.888-3.192,3.888s-3.191-1.235-3.191-3.888v-3.667Zm14.409,0-3.621,9.42h2.359l1.416-3.821h5.283l1.416,3.821h2.382l-3.622-9.42h-2.264l1.323,3.578h-3.775l1.323-3.578Z" transform="translate(-256.917 -488.236)" fill="#222221"/>
</svg>
