<svg xmlns="http://www.w3.org/2000/svg" width="46.488" height="22.677" viewBox="0 0 46.488 22.677">
  <g id="cvut" transform="translate(-167.126 -612.461)">
    <path id="Path_26" data-name="Path 26" d="M174.06,620.4a.888.888,0,0,1-.079.362.44.44,0,0,0,.33-.424.423.423,0,0,0-.44-.408.654.654,0,0,1,.189.47m-.691.424a.454.454,0,0,0,.188-.392.436.436,0,0,0-.424-.441.574.574,0,0,0-.2.048.731.731,0,0,1,.44.785m2.2,10.564c-.251,0-.376.14-.392.266a.641.641,0,0,1,.3-.062.573.573,0,0,1,.518.282.412.412,0,0,0-.424-.486m-.141.721a.393.393,0,0,0-.424.424.525.525,0,0,1,.44-.188.59.59,0,0,1,.455.2.437.437,0,0,0-.471-.44m-1.711-6.734a.524.524,0,0,0,.1-.312.4.4,0,0,0-.393-.394.429.429,0,0,0-.251.079.685.685,0,0,1,.549.627m-.471.425a.394.394,0,0,0-.392-.5.365.365,0,0,0-.377.234,1.05,1.05,0,0,1,.236-.031.576.576,0,0,1,.533.3m11.772,1.773a2.484,2.484,0,0,1-1.193-.234,1.5,1.5,0,0,1,.534,1,3.52,3.52,0,0,0,1.209.14,4.112,4.112,0,0,0,1.036-.14.781.781,0,0,0,.455-.267.774.774,0,0,1,.126.393.735.735,0,0,1-.55.706c.11,1.113.2,2.228.2,3.233,0,.753-.377,1.208-.91,1.208a.179.179,0,0,0,.047-.126c0-.3-.33-.438-.565-.438-.471,0-.722.377-1.24.377-.455,0-.644-.377-.989-.377a.345.345,0,0,0-.377.33.384.384,0,0,0,.094.251.686.686,0,0,1-.643-.676.615.615,0,0,1,.063-.282.7.7,0,0,1-.142-.441.608.608,0,0,1,.3-.516.7.7,0,0,1,.737-.785.786.786,0,0,1,.785.659c.063.235.157.313.267.33a2.2,2.2,0,0,0,.659-.032c.141-.032.2-.111.2-.346a7.266,7.266,0,0,0-.2-1.35,11.974,11.974,0,0,1-1.256.064,1.415,1.415,0,0,1-1.616-1.4,2.786,2.786,0,0,0-.346-1.193,2.815,2.815,0,0,1-.565-1.334.906.906,0,0,1,.644-.909,12,12,0,0,0,1.1-.551,2.177,2.177,0,0,0,.738,1.6,2.362,2.362,0,0,0,1.554.439,2.426,2.426,0,0,0,1.821-.658,1.642,1.642,0,0,1-.895.219,1.846,1.846,0,0,1-1.9-1.853,2.389,2.389,0,0,1,1-1.819c.518-.424.989-.692,1.35-1.053a1.246,1.246,0,0,0,.44-.847.988.988,0,0,0-.55-.878,1.074,1.074,0,0,1,.754-.362.872.872,0,0,1,.91.8.807.807,0,0,1-.471.737,1.281,1.281,0,0,1-.361.832,15.877,15.877,0,0,1-1.585,1.255,1.606,1.606,0,0,0-.722,1.3,1.272,1.272,0,0,0,2.543-.017,1.7,1.7,0,0,0-1.193-1.474l.6-.424a2.231,2.231,0,0,1,1.35,2.009,2.989,2.989,0,0,1-3.249,2.887m-3.311,1.365a.531.531,0,0,1-.566-.486.243.243,0,0,1,.236-.283,9.051,9.051,0,0,0-.518-1c-.047-.078,0-.126.063-.126a.26.26,0,0,1,.235.126,4.427,4.427,0,0,1,.361.566,2.421,2.421,0,0,1,.346,1.207Zm-1.994.692a.566.566,0,0,0,.377-.142.7.7,0,0,1-.738.864c.016.581.047,1,.047,2.056,0,.753-.377,1.208-.91,1.208a.178.178,0,0,0,.047-.125c0-.3-.33-.439-.565-.439-.471,0-.723.377-1.241.377-.455,0-.643-.377-.988-.377a.345.345,0,0,0-.377.33.383.383,0,0,0,.094.251.686.686,0,0,1-.643-.676.615.615,0,0,1,.063-.282.7.7,0,0,1-.141-.441.607.607,0,0,1,.3-.516.7.7,0,0,1,.737-.785.786.786,0,0,1,.785.659c.063.235.157.313.267.33a2.2,2.2,0,0,0,.659-.032c.142-.032.2-.111.2-.346.016-1.647-.188-2.7-.188-3.3a1.012,1.012,0,0,1,.738-1.052,7.33,7.33,0,0,1,1.977-.3.5.5,0,0,1,.424.283,7.908,7.908,0,0,1,.486.91.338.338,0,0,0-.188.33.576.576,0,0,0,.3.5l-1.836.047a2.16,2.16,0,0,0-.016.313.326.326,0,0,0,.33.346m-5.384,3.358-1.177-5.053-.424-.3-.2-.974c-.031-.126.032-.188.126-.188a.243.243,0,0,1,.173.093,4.618,4.618,0,0,0,.549.566,2.133,2.133,0,0,0,.44.282l.973,4.223a.813.813,0,0,0-.267.6.968.968,0,0,0,.125.471.652.652,0,0,0-.047.251.609.609,0,0,0,.063.282Zm-1.93-6.262a.608.608,0,0,1-.377-.6.632.632,0,0,1,.314-.534.585.585,0,0,1-.031-.189.7.7,0,0,1,.69-.675.643.643,0,0,1,.628-.391.761.761,0,0,1,.769.783c0,.251-.062.314-.062.5a.474.474,0,0,0,.188.361c.188.189.282.3.392.3s.173-.047.3-.141a12.685,12.685,0,0,1,2.165-1.679,2.163,2.163,0,0,0,.911,1.789l-.534.408a.4.4,0,0,0-.314-.126,1.321,1.321,0,0,0-.722.283,13.62,13.62,0,0,0-1.381,1.255,1.055,1.055,0,0,1-.722.362.436.436,0,0,1-.424-.251.343.343,0,0,0,.283-.315.483.483,0,0,0-.251-.407,5.078,5.078,0,0,1-.707-.455,3.347,3.347,0,0,1-.518-.566.417.417,0,0,0-.345-.172.283.283,0,0,0-.3.266.341.341,0,0,0,.047.189m-1.7.911-.423.3-1.177,5.053-.958.739,2.684-11.286a2.2,2.2,0,0,0,.612.2l.2.942Zm.958-8.335a1.327,1.327,0,0,1,1.051.5.81.81,0,0,0-.816.486.721.721,0,0,0-.235-.03.633.633,0,0,0-.644.628.646.646,0,0,0,.644.642.586.586,0,0,0,.581-.642v-.064c.015-.015.047-.015.094-.015.063,0,.125.032.125.14,0,.126-.047.362-.047.6a1.326,1.326,0,0,0,.11.532l.534,2.23a1.057,1.057,0,0,0-.22.235.9.9,0,0,0-.659.519l-.565-2.607a1.577,1.577,0,1,1,.047-3.154m1.695.377a.6.6,0,0,1,.377.109.8.8,0,0,1,.3-.047.763.763,0,0,1,.754.753.921.921,0,0,1-.5.8.319.319,0,0,0-.141.33,4.063,4.063,0,0,0,.157.628.279.279,0,0,0,.33.189c.863-.064,2.1-.158,2.856-.189.707-.03,1.209-.047,1.79-.077a2.38,2.38,0,0,0-1.9,2.056l-.5.265c-.11-.423-.675-.564-1.978-.564-.455,0-.737.032-1.051.032a.893.893,0,0,1-.958-.6.335.335,0,0,0,.33-.344c0-.377-.581-.753-.581-1.475,0-.236.032-.456.032-.629a.318.318,0,0,0-.33-.313.491.491,0,0,0-.33.125.7.7,0,0,1,.785-.738.661.661,0,0,1,.565-.313m4.207.219a.346.346,0,0,0-.079.252c0,.235.283.422.785.422.471,0,.77-.109,1.13-.109a1.048,1.048,0,0,1,.879.329.673.673,0,0,0-.628-.675.379.379,0,0,0-.361.2.081.081,0,0,1-.078.064c-.032,0-.063-.017-.063-.047l-.078-.785c-.016-.095.031-.142.156-.157l.8-.063c.141.393.235.611.439.611.11,0,.157-.125.157-.235a1.417,1.417,0,0,1,.518-.03c-.2-.143-.879-.064-1.083-.346.33-.015.581-.031.848-.031a5.271,5.271,0,0,1,.722.031c.251.031.5.173.5.44a.264.264,0,0,1-.267.3.258.258,0,0,1-.172-.062.256.256,0,0,0,.266.2c.205,0,.346-.125.346-.393a.634.634,0,0,0-.141-.423,1.639,1.639,0,0,1,.533,1.287c0,.958-.345,1.46-1.412,1.837-.55.187-.989.313-1.539.517a1.9,1.9,0,0,0-1.428,1.806,1.77,1.77,0,0,0,.926,1.585,1.934,1.934,0,0,1-1.632-1.947,2.4,2.4,0,0,1,1.993-2.245c.456-.11.848-.173,1.382-.313,1-.267,1.318-.706,1.318-1.287a.722.722,0,0,0-.11-.408,1.481,1.481,0,0,1,.016.266,1.424,1.424,0,0,1-1.429,1.272c-.455.032-.941.093-1.412.141-.11.016-.157-.032-.157-.126l-.016-.753a.057.057,0,0,1,.063-.062c.031,0,.047.015.063.047a.655.655,0,0,0,.549.281c.22,0,.346-.125.346-.266,0-.158-.142-.3-.424-.3-.612,0-.926.423-1.6.423-.738,0-.989-.361-.989-.706a.574.574,0,0,1,.361-.549m2.7-1.553a.314.314,0,1,0,.627,0h.644a.3.3,0,0,0,.314.329.341.341,0,0,0,.314-.329h.722l-.487.862a12.716,12.716,0,0,0-1.475-.077c-.314,0-.628.015-.958.047l-.423-.832Zm-.393,8.192a1.686,1.686,0,0,1-1.318-1.647c0-.849.471-1.351,1.381-1.7.5-.188.989-.33,1.444-.47a1.884,1.884,0,0,0,1.507-2.009,1.844,1.844,0,0,0-.33-1.115,1.891,1.891,0,0,1,.628,1.539,1.977,1.977,0,0,1-1.366,2.071c-.533.2-.831.314-1.4.55a1.573,1.573,0,0,0-1.162,1.553,1.511,1.511,0,0,0,.612,1.224m3.8-4.849a2.255,2.255,0,0,1-1.287,2.212c-.47.22-.784.345-1.318.6a1.485,1.485,0,0,0-.958,1.272,1.282,1.282,0,0,0,.361.894,1.38,1.38,0,0,1-.973-1.335c0-.628.3-1.051,1.068-1.412.486-.22.847-.3,1.412-.533a2.118,2.118,0,0,0,1.4-2.23,2.3,2.3,0,0,0-.22-1.05,2.265,2.265,0,0,1,.518,1.585m.408.487a2.7,2.7,0,0,1-1.4,2.573c-.44.22-.691.361-1.021.518a1.054,1.054,0,0,0-.737.973,1.163,1.163,0,0,0,.157.628,1.044,1.044,0,0,1-.738-1.083,1.285,1.285,0,0,1,.832-1.084c.376-.187.69-.312,1.318-.627a2.376,2.376,0,0,0,1.366-2.37,4.57,4.57,0,0,0-.1-.8,2.759,2.759,0,0,1,.314,1.273m1.319-2.513a.975.975,0,0,1,.769.362,1.066,1.066,0,0,0-.533.878,1.361,1.361,0,0,0,.455.973l-.581.425a1.523,1.523,0,0,1-.534-1.131.8.8,0,0,1,.424-1.507m-18.266,15.479H189.8V612.461H167.126Zm15.88-3.753c-.251,0-.376.14-.392.266a.644.644,0,0,1,.3-.062.573.573,0,0,1,.518.282.413.413,0,0,0-.424-.486m-.141.721a.393.393,0,0,0-.424.424.525.525,0,0,1,.44-.188.59.59,0,0,1,.455.2.437.437,0,0,0-.471-.44" fill="#222221"/>
    <path id="Path_27" data-name="Path 27" d="M195.295,632.4h-.157v.343h.157a.168.168,0,0,0,.167-.171.17.17,0,0,0-.167-.172m2.835.007-.137.511h.291l-.136-.511Zm13.677-16.67H210.53v3.579h-1.48v-3.579h-1.284v-1.091h4.041Zm-.721,13.81.162-.314h.464l-.287.314Zm.667.4H211.2v.222h.537v.308H211.2v.224h.556v.316H210.8V629.63h.956Zm-1.69,1.07-.4-.667v.667h-.4V629.63h.4v.638l.388-.638h.487l-.463.67.468.716Zm-1.1-.064a.873.873,0,0,1-.387.086.683.683,0,0,1-.719-.715.711.711,0,0,1,.758-.712.791.791,0,0,1,.346.066v.344a.61.61,0,0,0-.291-.067.365.365,0,1,0-.023.729.6.6,0,0,0,.316-.08Zm-1.432.064h-.4v-1.385h.4Zm-.4-13.425c0,1.3-1,1.834-2.213,1.834s-2.214-.529-2.214-1.834v-2.946h1.481v2.823a.733.733,0,1,0,1.465,0v-2.823h1.481Zm-.554,10.952-.4-.666v.666h-.4v-1.385h.4v.638l.387-.638h.488l-.463.67.468.715Zm.148,2.473h-.486l-.42-.832h-.006v.832h-.4V629.63h.491l.416.827h.006v-.827h.4Zm-1.963-2.44a.726.726,0,1,1,.691-.725.66.66,0,0,1-.691.725m.245,2.44h-.4v-.542H204.2v.542h-.4V629.63h.4v.53h.409v-.53h.4Zm-1.766-2.44a.976.976,0,0,1-.479-.106v-.364a.862.862,0,0,0,.458.144c.135,0,.208-.039.208-.108s-.05-.079-.126-.1-.145-.034-.249-.062a.379.379,0,0,1-.307-.394c0-.281.254-.463.6-.463a1.062,1.062,0,0,1,.4.072v.344a.813.813,0,0,0-.379-.092c-.155,0-.224.039-.224.1s.041.079.134.1c.07.015.121.023.212.045a.393.393,0,0,1,.343.413.525.525,0,0,1-.589.47m.259,2.376a.876.876,0,0,1-.387.086.684.684,0,0,1-.72-.715.712.712,0,0,1,.758-.712.8.8,0,0,1,.347.066v.344a.614.614,0,0,0-.292-.067.365.365,0,1,0-.022.729.6.6,0,0,0,.316-.08Zm-1.348-2.409h-.4v-.507l-.469-.878h.453l.218.494h.008l.226-.494h.442l-.478.878Zm-.041,1.4h-.556v.222h.538v.308h-.538v.224h.556v.316h-.956V629.63h.956Zm-.808,2.472h-.557v.222h.538v.308h-.538v.224h.557v.316h-.956V632.1h.956Zm-1.5-2.464v-.324h1.09v.324h-.344v1.062h-.4v-1.062Zm.237,3.532h-1.088v-.3l.579-.756h-.567V632.1h1.066v.291l-.589.771h.6Zm-1.607,0-.077-.288h-.442l-.075.288h-.41l.413-1.386h.585l.416,1.386Zm-1.063-3.3v.832h-.4V629.63h.491l.416.827h0v-.827h.4v1.386H197.8l-.42-.832Zm-.472,3.3-.24-.487h-.1v.487h-.4V632.1h.636a.473.473,0,0,1,.522.457.43.43,0,0,1-.3.395l0,.008a.358.358,0,0,1,.077.1l.255.428Zm-1.56-.449h-.2v.449h-.4V632.1h.6a.487.487,0,0,1,.525.477.475.475,0,0,1-.525.46m-1.094-2.716a.712.712,0,0,1,.758-.712.791.791,0,0,1,.346.066v.344a.61.61,0,0,0-.291-.067.365.365,0,1,0-.022.729.61.61,0,0,0,.316-.08v.349a.881.881,0,0,1-.388.086.683.683,0,0,1-.719-.715m-.175-3.165h.956v.316h-.557v.222h.538V628h-.538v.224h.557v.315h-.956Zm-.515,6.33h-.546L192.6,632.1h.448l.237,1.037h.008l.236-1.037h.448Zm-.819-3.858h.4v.838c0,.156.085.225.2.225s.2-.069.2-.225v-.838h.4v.874a.6.6,0,0,1-1.194,0Zm.155-2.869h.347l.138.15h.008l.139-.15h.346l-.279.313h-.42Zm.532.379a.793.793,0,0,1,.346.065v.344a.621.621,0,0,0-.291-.068.365.365,0,1,0-.022.73.62.62,0,0,0,.316-.079v.347a.881.881,0,0,1-.388.086.682.682,0,0,1-.719-.714.711.711,0,0,1,.758-.711m1.861-12.556a3.242,3.242,0,0,1,1.284.219v1.161a2.46,2.46,0,0,0-1.08-.228,1.236,1.236,0,1,0-.083,2.459,2.472,2.472,0,0,0,1.17-.267V619.1a3.53,3.53,0,0,1-1.435.289,2.429,2.429,0,0,1-2.666-2.412,2.54,2.54,0,0,1,2.81-2.4m.165,14.648-.279.314h-.42l-.279-.314h.347l.138.152h.008l.139-.152Zm-.108-.762v-.364a.859.859,0,0,0,.458.144c.135,0,.208-.039.208-.108s-.051-.079-.126-.1-.145-.034-.249-.062a.379.379,0,0,1-.308-.394c0-.281.255-.463.6-.463a1.067,1.067,0,0,1,.4.072v.344a.817.817,0,0,0-.379-.092c-.155,0-.225.039-.225.1s.041.079.135.1c.069.015.12.023.212.045a.393.393,0,0,1,.342.413.525.525,0,0,1-.589.47.975.975,0,0,1-.478-.106m1.249,1.7v.308h-.538v.224h.556v.316h-.956V629.63h.956v.316h-.556v.222Zm-1.959-16.716.48.474h.028l.48-.474h1.2l-.967.988H194.4l-.968-.988Zm2.885,13.706h.487l-.463.67.469.715h-.479l-.4-.666v.666h-.4v-1.385h.4v.638Zm1.038-.084.161-.313h.465l-.288.313Zm.666.084v.316h-.556v.222h.538V628h-.538v.224h.556v.315h-.955v-1.385Zm-.13,3.858h-.4v-1.385h.4Zm-.073-1.47h-.339l.161-.314h.465Zm2.224-2.388-.416,1.385h-.546l-.416-1.385h.449l.236,1.036h.008l.237-1.036ZM198.6,614.645l.876,3.29h.03l.876-3.29h1.662l-1.639,4.67H198.58l-1.639-4.67Zm8.708,12.513h.956v.316h-.557v.222h.538V628h-.538v.224h.557v.315h-.956Zm.451-.4h.464l-.287.313H207.6Zm-16.825,8.377h22.677V612.461H190.937Zm5.784-2.741h-.161v.345h.161a.173.173,0,0,0,0-.345m8.041-4.918c-.177,0-.267.144-.267.372s.09.37.267.37.263-.142.263-.37-.084-.372-.263-.372" fill="#222221"/>
  </g>
</svg>
