<svg xmlns="http://www.w3.org/2000/svg" width="31.181" height="30.411" viewBox="0 0 31.181 30.411">
  <g id="czgbc" transform="translate(-166.638 -545.874)">
    <path id="Path_28" data-name="Path 28" d="M184.567,548.053l.347.062.39-.38-.236-.042-.282.152-.207-.241-.237-.042Z" fill="#222221"/>
    <path id="Path_29" data-name="Path 29" d="M175.806,565.737l0-8.764-2.4.6a9.1,9.1,0,0,0,.378,7.805Z" fill="#222221"/>
    <g id="Group_24" data-name="Group 24">
      <path id="Path_30" data-name="Path 30" d="M185.824,555.128l-.621,1.614h.521l.081-.266h.58l.083.266H187l-.62-1.614Zm.092,1,.18-.58.183.58Z" fill="#222221"/>
      <path id="Path_31" data-name="Path 31" d="M182.228,551.787a9.546,9.546,0,0,0-8.626,5.346l9.378-2.4v1.387l-6.173,1.236v1.227l6.17-.992v2.77l-6.17.437v1.064h6.172l0,5.511-4.853-.826-.006-2.308-1.311-.157V566.3l-2.79-.507a9.616,9.616,0,0,0,17.36-2.134l-7.4,3.793v-5.5l2.9.333V561.27l-2.9-.883v-1.6L191.7,562.1a9.1,9.1,0,0,0,.061-1.024A9.413,9.413,0,0,0,182.228,551.787Zm4.792,5.582h-2.98v-2.661h2.98l1.5,1.376Z" fill="#222221"/>
    </g>
    <path id="Path_32" data-name="Path 32" d="M182.229,545.874a15.21,15.21,0,1,0,15.59,15.2,15.4,15.4,0,0,0-15.59-15.2m0,.564a14.647,14.647,0,1,1-15.013,14.641,14.847,14.847,0,0,1,15.013-14.641" fill="#222221"/>
    <path id="Path_33" data-name="Path 33" d="M176.538,573.423a1.149,1.149,0,0,1-.586-1.674,1.231,1.231,0,0,1,1.7-.686,1.315,1.315,0,0,1,.553.419l-.316.476a.88.88,0,0,0-.424-.407.69.69,0,0,0-.927.448.667.667,0,0,0,.291.98,1.091,1.091,0,0,0,.614.057l-.142.508a1.467,1.467,0,0,1-.762-.121" fill="#222221"/>
    <path id="Path_34" data-name="Path 34" d="M178.1,573.959l.1-.44,1.518-1.275-1.046-.227.033-.5,1.883.408-.1.441-1.518,1.274,1.126.244-.033.5Z" fill="#222221"/>
    <path id="Path_35" data-name="Path 35" d="M182.179,574.551a1.188,1.188,0,0,1-1.254-1.316,1.217,1.217,0,0,1,1.3-1.292,1.631,1.631,0,0,1,.786.2l-.094.542a1.307,1.307,0,0,0-.685-.223c-.443,0-.664.313-.67.783s.214.807.659.813a.773.773,0,0,0,.348-.077l.006-.449-.449-.005-.068-.463,1.079.013-.015,1.224a1.73,1.73,0,0,1-.944.255" fill="#222221"/>
    <path id="Path_36" data-name="Path 36" d="M184.8,573.159l-.223.044.131.635.231-.046c.253-.05.378-.182.334-.392s-.206-.294-.473-.241m-.2-.949-.223.044.114.556.209-.04c.235-.047.337-.182.3-.361-.034-.163-.157-.246-.4-.2m.448,2.018-.845.167-.509-2.463.858-.169c.575-.114.91.069.993.468a.553.553,0,0,1-.258.593.592.592,0,0,1,.579.5c.1.476-.218.783-.818.9" fill="#222221"/>
    <path id="Path_37" data-name="Path 37" d="M188.046,573.351a1.2,1.2,0,0,1-1.654-.729,1.182,1.182,0,0,1,.648-1.68,1.356,1.356,0,0,1,.691-.106l.141.551a.912.912,0,0,0-.593.022.665.665,0,0,0-.3.969.7.7,0,0,0,.933.462,1.08,1.08,0,0,0,.463-.4l.284.45a1.444,1.444,0,0,1-.613.46" fill="#222221"/>
    <path id="Path_38" data-name="Path 38" d="M170.275,568.222l.309.094-.035.312.131.2.208-.5-.193-.288-.551-.011Z" fill="#222221"/>
    <path id="Path_39" data-name="Path 39" d="M168.246,559.905l.456.264.02-.241-.355-.459Z" fill="#222221"/>
    <path id="Path_40" data-name="Path 40" d="M193.4,553.646l.139.2.57.145-.183-.416Z" fill="#222221"/>
    <path id="Path_41" data-name="Path 41" d="M172.8,566.859a.971.971,0,0,1-.376,1.439,1.071,1.071,0,0,1-1.708-.817l.362-.161a.815.815,0,0,0,.124.528.667.667,0,0,0,.987.1c.4-.253.5-.608.289-.927a.955.955,0,0,0-.461-.349l.275-.241a1.176,1.176,0,0,1,.508.424" fill="#222221"/>
    <path id="Path_42" data-name="Path 42" d="M172.284,566.072l-1.984.87-.519-1.125.322-.142.349.759.475-.209-.269-.583.3-.19.292.633.546-.238-.362-.785.322-.142Z" fill="#222221"/>
    <path id="Path_43" data-name="Path 43" d="M171.506,564.04a1.5,1.5,0,0,1,.039.683l-.384.042a1.233,1.233,0,0,0,.015-.641c-.052-.181-.175-.28-.342-.234s-.2.131-.244.462c-.053.442-.14.638-.465.727a.62.62,0,0,1-.775-.5,1.1,1.1,0,0,1-.028-.572l.381-.041a.918.918,0,0,0-.025.527c.056.2.178.254.306.22s.178-.119.218-.437c.055-.468.159-.663.484-.752a.644.644,0,0,1,.82.516" fill="#222221"/>
    <path id="Path_44" data-name="Path 44" d="M171.1,561.8l-.978.955,1.052-.115.047.406-2.162.236-.047-.405.95-.1-1.037-.657-.056-.485,1.109.732.992-1Z" fill="#222221"/>
    <path id="Path_45" data-name="Path 45" d="M170.183,560.434l-.815-.356.862-.221Zm.4-.663.589-.158-.043-.414-2.188.611-.035.433,2.114.963.033-.408-.535-.227Z" fill="#222221"/>
    <path id="Path_46" data-name="Path 46" d="M169.956,556.859l-.077.211.65.227.073-.194c.086-.237.024-.425-.189-.5s-.369.016-.457.256m1.931.137-1,.241-.06.162.785.273-.141.384-2.05-.716.227-.619c.164-.447.479-.641.877-.5a.592.592,0,0,1,.428.607l1-.261Z" fill="#222221"/>
    <path id="Path_47" data-name="Path 47" d="M171.677,555.374l.3-.5-.874-.172Zm-1.066-.72.226-.374,2.241.386-.148.39-.6-.11-.418.693.38.431-.213.353Z" fill="#222221"/>
    <path id="Path_48" data-name="Path 48" d="M172.375,552.807l-.18.2,1.114.965.175-.2a.631.631,0,0,0-.07-1.014.679.679,0,0,0-1.039.048m1.373,1.182-.458.5-1.628-1.408.459-.5a1.043,1.043,0,0,1,1.573-.136,1,1,0,0,1,.054,1.544" fill="#222221"/>
    <path id="Path_49" data-name="Path 49" d="M174.515,552.031l.464-.358-.752-.467Zm-.728-1.046.349-.269,1.947,1.148-.283.312-.518-.313-.645.5.194.537-.33.254Z" fill="#222221"/>
    <path id="Path_50" data-name="Path 50" d="M177.011,549.451l-.182.078.281.628.167-.071c.246-.1.346-.265.247-.486-.091-.2-.268-.252-.513-.149m.4.936-.17.071.319.716-.381.162-.869-1.943.584-.248c.456-.2.822-.106,1,.286.187.42-.024.761-.481.956" fill="#222221"/>
    <path id="Path_51" data-name="Path 51" d="M178.876,548.813l-.222.057.175.652.2-.052c.251-.064.375-.22.318-.434s-.221-.287-.475-.223m.972,1.632-.766-.667-.17.044.211.784-.4.1-.549-2.054.653-.166c.47-.12.812.025.92.424a.586.586,0,0,1-.274.686l.786.662Z" fill="#222221"/>
    <path id="Path_52" data-name="Path 52" d="M181.235,548.4c-.37.027-.571.341-.534.8s.283.744.654.716.574-.342.538-.8-.286-.744-.658-.715m.143,1.858a1.1,1.1,0,1,1,.936-1.177,1,1,0,0,1-.936,1.177" fill="#222221"/>
    <path id="Path_53" data-name="Path 53" d="M184.265,550.386a1.6,1.6,0,0,1-.646-.267l.132-.354a1.312,1.312,0,0,0,.582.3c.189.034.336-.03.368-.2s-.034-.231-.319-.417c-.384-.241-.526-.405-.465-.728a.624.624,0,0,1,.8-.459,1.182,1.182,0,0,1,.54.229l-.131.352a.975.975,0,0,0-.474-.255c-.205-.037-.313.043-.337.17s.03.209.305.384c.407.256.54.432.479.757a.646.646,0,0,1-.837.489" fill="#222221"/>
    <path id="Path_54" data-name="Path 54" d="M185.311,550.584l.708-2.006,1.195.4-.115.326-.8-.271-.169.479.62.208-.06.341-.674-.227-.195.553.835.279-.115.326Z" fill="#222221"/>
    <path id="Path_55" data-name="Path 55" d="M188.4,549.929l-.836,1.569-.37-.186.837-1.57-.583-.295.167-.315,1.5.761-.114.341Z" fill="#222221"/>
    <path id="Path_56" data-name="Path 56" d="M189.865,550.795l-.186-.132-.408.543.171.121c.209.15.411.146.545-.033s.089-.349-.122-.5m-.683,1.765.046-1-.142-.1-.492.654-.336-.239,1.286-1.713.544.389c.392.28.493.63.243.963a.613.613,0,0,1-.717.226l-.029,1.013Z" fill="#222221"/>
    <path id="Path_57" data-name="Path 57" d="M190.706,553.954l.38-1.732L190,553.229l-.268-.273,1.579-1.463.271.278-.36,1.65,1.034-.958.267.274-1.578,1.462Z" fill="#222221"/>
    <path id="Path_58" data-name="Path 58" d="M191.188,554.533l1.806-1.184.705,1.023-.293.192-.475-.689-.431.283.365.53-.259.236-.4-.577-.5.326.493.715-.293.192Z" fill="#222221"/>
    <path id="Path_59" data-name="Path 59" d="M194.407,556.53l-.076-.193-.54.2.068.175c.088.224.237.3.41.24s.227-.192.138-.422m-.815.307-.077-.2-.623.23.08.2c.093.242.252.345.455.269s.262-.252.165-.505m-.918.346-.221-.569,2.035-.752.223.578c.174.446.051.735-.272.854a.476.476,0,0,1-.535-.131.5.5,0,0,1-.347.549c-.4.148-.7-.063-.883-.529" fill="#222221"/>
    <path id="Path_60" data-name="Path 60" d="M193.18,559.064a.787.787,0,0,1,.7-.993l1.309-.24.077.4-1.289.236c-.324.059-.5.242-.444.535s.276.409.606.35l1.3-.239.078.4-1.3.237a.816.816,0,0,1-1.037-.688" fill="#222221"/>
    <path id="Path_61" data-name="Path 61" d="M195.242,560.99l0-.264-1.488-.014,0,.259a.649.649,0,0,0,.737.719.659.659,0,0,0,.751-.7m-1.832-.013.006-.673,2.176.019-.006.673a1.088,1.088,0,1,1-2.176-.019" fill="#222221"/>
    <path id="Path_62" data-name="Path 62" d="M195,563.685c.076-.355-.177-.629-.644-.724s-.811.058-.887.413.177.633.643.728.812-.061.888-.417m-1.87-.383a1.016,1.016,0,0,1,1.31-.748,1,1,0,0,1,.9,1.2,1.013,1.013,0,0,1-1.31.748,1,1,0,0,1-.9-1.2" fill="#222221"/>
    <path id="Path_63" data-name="Path 63" d="M192.464,565.443l.163-.38,2.275.086-.1.423-1.763-.1,1.3,1.128-.169.394Z" fill="#222221"/>
    <path id="Path_64" data-name="Path 64" d="M192.209,567.6l-.7-.441.228-.343.7.438,1.5.066-.179.393-1.119-.072.517.941-.247.372Z" fill="#222221"/>
    <path id="Path_266" data-name="Path 266" d="M191.5,563.207c.061-.252.108-.508.148-.767l-4.338-1.751v4.6Z" fill="#222221"/>
  </g>
</svg>
