<?xml version="1.0" encoding="utf-8"?>
<!-- Generator: Adobe Illustrator 15.1.0, SVG Export Plug-In . SVG Version: 6.00 Build 0)  -->
<!DOCTYPE svg PUBLIC "-//W3C//DTD SVG 1.1//EN" "http://www.w3.org/Graphics/SVG/1.1/DTD/svg11.dtd">
<svg version="1.1" id="Vrstva_1" xmlns="http://www.w3.org/2000/svg" xmlns:xlink="http://www.w3.org/1999/xlink" x="0px" y="0px"
	 width="1190.55px" height="841.89px" viewBox="0 0 1190.55 841.89" enable-background="new 0 0 1190.55 841.89"
	 xml:space="preserve">
<g>
	<polygon points="432.068,398.76 451.938,398.76 451.938,378.89 432.068,378.89 432.068,398.76 	"/>
	<polygon points="561.032,412.955 561.032,395.912 617.663,395.912 617.663,378.89 541.162,378.89 541.162,463.943 561.032,463.943 
		561.032,429.966 609.148,429.966 609.148,412.955 561.032,412.955 	"/>
	<polygon points="504.579,398.76 524.448,398.76 524.448,378.89 504.579,378.89 504.579,398.76 	"/>
	<path d="M485.807,378.89h-15.231l-48.68,85.053h23.389l10.155-17.904h45.255l10.291,17.904H534L485.807,378.89L485.807,378.89z
		 M478.257,400.93l15.816,28.257h-32.252L478.257,400.93L478.257,400.93z"/>
	<polygon points="709.824,463.943 780.758,463.943 780.758,446.13 729.692,446.13 729.692,378.89 709.823,378.89 709.824,463.943 	
		"/>
	<polygon points="393.971,378.89 393.971,411.616 346.833,411.616 346.833,378.89 326,378.89 326,463.943 346.833,463.943 
		346.833,430.613 393.971,430.613 393.971,463.943 414.803,463.943 414.803,378.89 393.971,378.89 	"/>
	<polygon points="692.855,429.966 692.855,412.955 646.122,412.955 646.121,395.912 701.387,395.902 701.386,378.89 626.269,378.89 
		626.25,463.943 701.369,463.943 701.369,446.13 646.121,446.13 646.121,429.966 692.855,429.966 	"/>
	<polygon points="788.845,378.89 788.845,463.943 863.965,463.943 863.965,446.13 808.715,446.13 808.715,429.966 855.45,429.966 
		855.45,412.955 808.715,412.955 808.715,395.902 863.965,395.902 863.965,378.89 788.845,378.89 	"/>
</g>
</svg>
