<svg xmlns="http://www.w3.org/2000/svg" width="73.213" height="22.533" viewBox="0 0 73.213 22.533">
  <g id="ministerstvo-kultury" transform="translate(-242.765 -612.532)">
    <path id="Path_3" data-name="Path 3" d="M269.791,617.784h1.469l1.088,3.469h.014l1.088-3.469h1.468v4.577h-.878v-3.777h-.014l-1.231,3.777h-.879l-1.232-3.777-.014.015v3.763h-.879Z" fill="#222221"/>
    <rect id="Rectangle_3" data-name="Rectangle 3" width="0.918" height="4.577" transform="translate(276.318 617.785)" fill="#222221"/>
    <path id="Path_4" data-name="Path 4" d="M278.639,617.784h1.128l1.745,3.423h.011v-3.423h.879v4.577h-1.12l-1.751-3.422h-.012v3.422h-.88Z" fill="#222221"/>
    <rect id="Rectangle_4" data-name="Rectangle 4" width="0.918" height="4.577" transform="translate(283.869 617.785)" fill="#222221"/>
    <path id="Path_5" data-name="Path 5" d="M288.582,618.624a2.383,2.383,0,0,0-.931-.2.638.638,0,0,0-.722.637c0,.792,2.007.458,2.007,1.993,0,1-.793,1.382-1.719,1.382a4.012,4.012,0,0,1-1.172-.175l.085-.828a2.2,2.2,0,0,0,1.036.283c.346,0,.814-.177.814-.59,0-.872-2.008-.512-2.008-2.026,0-1.023.794-1.4,1.6-1.4a3.462,3.462,0,0,1,1.1.164Z" fill="#222221"/>
    <path id="Path_6" data-name="Path 6" d="M290.242,618.506h-1.267v-.722h3.452v.722H291.16v3.855h-.918Z" fill="#222221"/>
    <path id="Path_7" data-name="Path 7" d="M293.009,617.784h2.7v.722h-1.785v1.129h1.635v.72h-1.635v1.286h1.8v.721h-2.718Z" fill="#222221"/>
    <path id="Path_8" data-name="Path 8" d="M297.711,619.739h.3c.453,0,.97-.065.97-.636,0-.551-.511-.6-.97-.6h-.3Zm-.917-1.955h.989c.984,0,2.158-.032,2.158,1.239a1.045,1.045,0,0,1-.944,1.062v.015c.247.018.393.267.484.471l.735,1.79h-1.023l-.551-1.428c-.131-.341-.248-.474-.636-.474h-.3v1.9h-.917Z" fill="#222221"/>
    <path id="Path_9" data-name="Path 9" d="M303.426,618.624a2.392,2.392,0,0,0-.932-.2.638.638,0,0,0-.722.637c0,.792,2.007.458,2.007,1.993,0,1-.793,1.382-1.719,1.382a4,4,0,0,1-1.172-.175l.085-.828a2.2,2.2,0,0,0,1.035.283c.347,0,.814-.177.814-.59,0-.872-2.006-.512-2.006-2.026,0-1.023.791-1.4,1.6-1.4a3.461,3.461,0,0,1,1.094.164Z" fill="#222221"/>
    <path id="Path_10" data-name="Path 10" d="M305.087,618.506h-1.268v-.722h3.453v.722H306v3.855h-.918Z" fill="#222221"/>
    <path id="Path_11" data-name="Path 11" d="M306.837,617.784h.982l1.174,3.593h.016l1.16-3.593h.911l-1.541,4.577H308.41Z" fill="#222221"/>
    <path id="Path_12" data-name="Path 12" d="M313.736,621.719c.938,0,1.285-.832,1.285-1.659,0-.806-.373-1.632-1.285-1.632s-1.285.826-1.285,1.632c0,.827.348,1.659,1.285,1.659m0-4.013a2.37,2.37,0,1,1-2.243,2.354,2.14,2.14,0,0,1,2.243-2.354" fill="#222221"/>
    <path id="Path_13" data-name="Path 13" d="M269.793,623.81h.918v1.967l1.652-1.967h1.129l-1.881,2.157,1.96,2.42h-1.2l-1.644-2.124h-.015v2.124h-.918Z" fill="#222221"/>
    <path id="Path_14" data-name="Path 14" d="M274.135,623.81h.918v2.643c0,.779.249,1.291.952,1.291s.948-.512.948-1.291V623.81h.919v2.924c0,1.228-.7,1.732-1.867,1.732s-1.87-.5-1.87-1.732Z" fill="#222221"/>
    <path id="Path_15" data-name="Path 15" d="M279.178,623.81h.919v3.857h1.723v.721h-2.642Z" fill="#222221"/>
    <path id="Path_16" data-name="Path 16" d="M282.59,624.531h-1.267v-.721h3.453v.721h-1.268v3.856h-.918Z" fill="#222221"/>
    <path id="Path_17" data-name="Path 17" d="M285.327,623.81h.918v2.643c0,.779.248,1.291.949,1.291s.952-.512.952-1.291V623.81h.918v2.924c0,1.228-.7,1.732-1.87,1.732s-1.867-.5-1.867-1.732Z" fill="#222221"/>
    <path id="Path_18" data-name="Path 18" d="M291.245,625.765h.3c.452,0,.971-.067.971-.636,0-.552-.512-.6-.971-.6h-.3Zm-.918-1.955h.99c.984,0,2.157-.033,2.157,1.24a1.046,1.046,0,0,1-.944,1.061v.015c.25.019.393.268.485.472l.734,1.79h-1.022l-.551-1.43c-.131-.342-.249-.473-.636-.473h-.3v1.9h-.918Z" fill="#222221"/>
    <path id="Path_19" data-name="Path 19" d="M295.383,626.578l-1.672-2.768h1.075l1.085,1.921,1.1-1.921h.971l-1.641,2.768v1.81h-.919Z" fill="#222221"/>
    <path id="Path_20" data-name="Path 20" d="M263.668,627.994a10.509,10.509,0,0,1-20.144-4.194c0-.327.016-.657.044-.982a10.509,10.509,0,1,1,20.1,5.176m.27-9.565a11.268,11.268,0,0,0-21.125,4.319c-.032.347-.048.7-.048,1.052a11.267,11.267,0,1,0,21.173-5.371" fill="#222221"/>
    <path id="Path_21" data-name="Path 21" d="M259.06,627.287a6.132,6.132,0,0,1-2.168,1.916l-1.19-2.276a3.543,3.543,0,0,1-1.664.408,3.6,3.6,0,0,1-3.592-3.594l.023-.405-.643-.071a4.229,4.229,0,0,0-.031.506,4.123,4.123,0,0,0,3.376,4.06l-.135,1.994a5.934,5.934,0,0,1-.58-.128c-.073-.02-.144-.048-.216-.07-.116-.036-.232-.07-.345-.112-.081-.032-.157-.07-.236-.1-.1-.044-.2-.085-.3-.133-.08-.039-.156-.085-.233-.128-.094-.05-.189-.1-.279-.156s-.149-.1-.223-.151-.175-.116-.259-.18-.14-.114-.21-.172-.162-.131-.239-.2-.13-.128-.194-.192-.148-.146-.217-.223-.119-.141-.178-.212-.112-.128-.163-.2l0,0-.794.359a6.372,6.372,0,0,1-1.1-2.535,7.458,7.458,0,0,1-.129-1.4,7.047,7.047,0,0,1,4.476-6.531l.243.63a6.245,6.245,0,0,0-4.042,5.836,5.879,5.879,0,0,0,.433,2.283l.127-.04.939-.3a5.216,5.216,0,0,1-.378-1.944,5.12,5.12,0,0,1,4.989-5.112c.042,0,.083,0,.125,0a5.13,5.13,0,0,1,4.156,2.135l.926-.634,0,0,1.892-1.335a8.536,8.536,0,1,0,.032,9.794Z" fill="#222221"/>
  </g>
</svg>
