<svg xmlns="http://www.w3.org/2000/svg" width="91.46" height="19.702" viewBox="0 0 91.46 19.702">
  <g id="mmr" transform="translate(-345.13 -613.948)">
    <rect id="Rectangle_5" data-name="Rectangle 5" width="0.537" height="19.54" transform="translate(382.352 614.043)" fill="#222221"/>
    <path id="Path_22" data-name="Path 22" d="M434.385,617.894c-.922,0-1.264-.82-1.264-1.631,0-.793.368-1.606,1.264-1.606s1.263.813,1.263,1.606c0,.811-.34,1.631-1.263,1.631m0-3.946a2.331,2.331,0,0,0,0,4.655,2.331,2.331,0,0,0,0-4.655m-4.932,3.611h-.015l-1.153-3.534h-.967l1.547,4.5h1.109l1.514-4.5h-.894Zm-6.056-2.825h1.289v3.79h.9v-3.79h1.289v-.709H423.4Zm-2.645.548a.627.627,0,0,1,.709-.625,2.333,2.333,0,0,1,.916.194l.084-.742a3.422,3.422,0,0,0-1.076-.161c-.793,0-1.574.367-1.574,1.373,0,1.489,1.972,1.135,1.972,1.992,0,.407-.457.581-.8.581a2.168,2.168,0,0,1-1.017-.278l-.084.813a3.982,3.982,0,0,0,1.152.174c.909,0,1.69-.375,1.69-1.361,0-1.509-1.973-1.179-1.973-1.96m-3.934.664h-.3v-1.212h.3c.451,0,.954.045.954.587,0,.562-.509.625-.954.625m.967.356v-.013a1.031,1.031,0,0,0,.928-1.045c0-1.251-1.153-1.219-2.121-1.219h-.973v4.5h.9v-1.869h.291c.38,0,.5.129.624.464l.542,1.4h1.005l-.721-1.758c-.09-.2-.233-.446-.477-.464m-5.094.251H414.3v-.709h-1.606v-1.11h1.753v-.709h-2.655v4.5h2.668v-.709h-1.766Zm-5.281-1.819H408.7v3.79h.9v-3.79h1.289v-.709H407.41Zm-2.644.548a.627.627,0,0,1,.709-.625,2.324,2.324,0,0,1,.914.194l.084-.742a3.413,3.413,0,0,0-1.076-.161c-.793,0-1.573.367-1.573,1.373,0,1.489,1.973,1.135,1.973,1.992,0,.407-.459.581-.8.581a2.19,2.19,0,0,1-1.02-.278l-.084.813a4,4,0,0,0,1.155.174c.908,0,1.688-.375,1.688-1.361,0-1.509-1.971-1.179-1.971-1.96m-2.987,3.242h.9v-4.5h-.9Zm-2.109-1.133h-.014l-1.715-3.366h-1.107v4.5h.862V615.16h.013l1.722,3.364h1.1v-4.5h-.863Zm-4.985,1.133h.9v-4.5h-.9Zm-3.806-1.089h-.012l-1.07-3.41h-1.445v4.5h.865v-3.7l.012-.012,1.212,3.711h.864l1.212-3.711h.012v3.711h.865v-4.5h-1.445Z" fill="#222221"/>
    <path id="Path_23" data-name="Path 23" d="M425.223,626.049h.9v-4.5h-.9Zm1.488-5.466h-.923l-.534.709h.573Zm-3.6,4.332H423.1l-1.715-3.365h-1.109v4.5h.865v-3.365h.011l1.723,3.365h1.1v-4.5h-.865Zm-7.17-2.656h1.289v3.79h.9v-3.79h1.289v-.709h-3.48Zm-2.643.548a.624.624,0,0,1,.707-.625,2.338,2.338,0,0,1,.916.193l.084-.741a3.354,3.354,0,0,0-1.076-.161c-.793,0-1.574.367-1.574,1.373,0,1.489,1.972,1.133,1.972,1.991,0,.407-.457.581-.8.581a2.175,2.175,0,0,1-1.018-.277l-.084.812a4.014,4.014,0,0,0,1.153.173c.909,0,1.689-.373,1.689-1.36,0-1.508-1.971-1.179-1.971-1.959m-2.987,3.242h.9v-4.5h-.9Zm.032-4.757h.574l.883-.709h-.922Zm-3.838,3.668h-.013l-1.071-3.41h-1.443v4.5h.865v-3.7l.011-.013,1.212,3.713h.863l1.213-3.713h.012v3.713h.864v-4.5h-1.444Zm-8,.458c-.922,0-1.264-.819-1.264-1.631,0-.793.367-1.6,1.264-1.6s1.262.812,1.262,1.6c0,.812-.34,1.631-1.262,1.631m0-3.945a2.33,2.33,0,0,0,0,4.653,2.33,2.33,0,0,0,0-4.653m-5.127,2h-.3v-1.212h.3c.451,0,.955.045.955.587,0,.56-.511.625-.955.625m.967.354v-.012a1.03,1.03,0,0,0,.927-1.045c0-1.25-1.154-1.218-2.12-1.218h-.973v4.5h.9V624.18h.291c.379,0,.495.129.625.464l.541,1.405h1.006l-.723-1.76c-.09-.2-.232-.444-.476-.464m-4.857-.193h-.315v-1.373h.315c.466,0,.859.181.859.7s-.407.67-.859.67m-.077-2.082h-1.141v4.5h.9v-1.708h.381c.966,0,1.734-.38,1.734-1.431,0-1.076-.9-1.36-1.877-1.36" fill="#222221"/>
    <path id="Path_24" data-name="Path 24" d="M422.158,630.994h-.3v-1.211h.3c.451,0,.954.045.954.586,0,.562-.509.625-.954.625m1.444.82c-.09-.2-.232-.446-.477-.464v-.014a1.029,1.029,0,0,0,.928-1.044c0-1.25-1.154-1.219-2.121-1.219h-.973v4.5h.9V631.7h.289c.38,0,.5.128.625.464l.542,1.4h1.005Zm-4.579,1.127a1.482,1.482,0,0,1-1.527-1.6A1.5,1.5,0,0,1,419,629.705a1.853,1.853,0,0,1,.973.239l.066-.759a2.965,2.965,0,0,0-1.02-.188,2.23,2.23,0,0,0-2.468,2.4,2.161,2.161,0,0,0,2.468,2.25,4.547,4.547,0,0,0,1.026-.142l-.039-.754a2.5,2.5,0,0,1-.987.187m.323-4.125.6-.709h-.6l-.412.419-.413-.419h-.613l.6.709Zm-6.881,3.255c0,.323,0,.793-.586.793a1.175,1.175,0,0,1-.432-.078v.78a2.541,2.541,0,0,0,.69.084,1.133,1.133,0,0,0,1.231-1.147v-3.43h-.9Zm-3.992.87c-.922,0-1.262-.818-1.262-1.631,0-.791.366-1.6,1.262-1.6s1.263.814,1.263,1.6c0,.813-.342,1.631-1.263,1.631m0-3.944a2.33,2.33,0,0,0,0,4.653,2.33,2.33,0,0,0,0-4.653m-4.934,3.609h-.013l-1.153-3.533h-.967l1.547,4.5h1.109l1.514-4.5h-.9Zm-2.8-2.8v-.737H397.75v.71h2.029l-2.113,3.055v.735h3.119v-.709h-2.179Zm-6.137,3.131c-.922,0-1.264-.818-1.264-1.631,0-.791.367-1.6,1.264-1.6s1.262.814,1.262,1.6c0,.813-.341,1.631-1.262,1.631m0-3.944a2.33,2.33,0,0,0,0,4.653,2.33,2.33,0,0,0,0-4.653m-5.127,2h-.3v-1.211h.3c.451,0,.953.045.953.586,0,.562-.508.625-.953.625m.966.356v-.014a1.028,1.028,0,0,0,.928-1.044c0-1.25-1.154-1.219-2.119-1.219h-.975v4.5h.9V631.7h.291c.379,0,.5.128.625.464l.541,1.4h1.006l-.723-1.759c-.09-.2-.232-.446-.477-.464" fill="#222221"/>
    <path id="Path_25" data-name="Path 25" d="M375.391,622.94c-.248.554-.956.443-1.474.248l-.448.721-.7.189a7.642,7.642,0,0,0,1.582-1.7l-.875.847a1.2,1.2,0,0,1-.651,0c-.576-.223.258-1.052.847-1.087a2.426,2.426,0,0,0,1.034-.282c.041.166.125.235.311.334.293.157.488.479.377.73m-2.942,2.841a1.424,1.424,0,0,1-1.76-.159l-.962.7-.881.006a13.878,13.878,0,0,0,2.836-1.5l-1.506.717a1.15,1.15,0,0,1-.7-.194c-.469-.432.982-1.143,1.637-1.005a2.974,2.974,0,0,0,1.3-.013c-.068.206,0,.307.108.482a.776.776,0,0,1-.069.962m-4.887,2.444a1.991,1.991,0,0,1-2.033-.577l-1.037.43-1.467-.232a16.2,16.2,0,0,0,3.934-.816l-2.074.335a1.143,1.143,0,0,1-.682-.4c-.518-.72,1.484-1.068,2.3-.649a3.129,3.129,0,0,0,1.489.368c-.128.234-.062.385.045.647a.65.65,0,0,1-.473.9m8.864-10.31a6.143,6.143,0,0,0-3.6-2.928c1.261,1.513,2.808,3.815.359,6.05a20.734,20.734,0,0,1-5.159,3.287,32.9,32.9,0,0,1-11.136,3.009,15.44,15.44,0,0,0,6.106,1.609,21.008,21.008,0,0,0,7.812-.7,16.245,16.245,0,0,0,1.875-.828,6.693,6.693,0,0,0,1.266-.874,8.623,8.623,0,0,0,2.764-3.446,6.513,6.513,0,0,0-.282-5.177m-17.81.556-.41.684c-.718.128-2.444.478-3.9.781-.578.123-.878.2-1.262.3a30.77,30.77,0,0,1,5.568-1.761m2.689-.454a18,18,0,0,1,5.293.04l-.672.923a22.293,22.293,0,0,0-5.146-.115Zm-8.856,3.521a33.558,33.558,0,0,1,7.143-.941c3.615-.06,6.813.561,8.347,2.871a22.9,22.9,0,0,0,3.543-2.08l-.033-.033a4.3,4.3,0,0,0-.409-.344,11.728,11.728,0,0,0-2.7-1.41l.7-.93a10.793,10.793,0,0,1,3.443,1.787.526.526,0,0,1,.057.041,3.455,3.455,0,0,0,1-1.508c1.011-4.076-8.821-3.757-14.288-2.558a28.812,28.812,0,0,0-14.126,7.6,33.409,33.409,0,0,0,3.843-1.427,21.452,21.452,0,0,1,3.476-1.066m3.792,9.121.56.78-1.218-.458-1.083.54.344-.813-1.229-.448,1.43-.044.324-.816.54.785,1.429-.056ZM352.6,629.35l-1.441-.407-1.229.741.354-.984-1.452-.4,1.659-.2.332-.984.671.859,1.658-.213-1.245.732Zm-.889-5.328.353-1.01.778.839,1.871-.291-1.393.8.8.83-1.638-.346-1.375.8.379-1.01-1.651-.334Zm12.883,5.737c-3.121-.073-9.58-.557-9.007-4.35.337-2.236,2.627-3.23,3.669-4.075a32.223,32.223,0,0,0-6.492.949,13.556,13.556,0,0,0-2.993.907c-1.566.75-3.641,2.156-3.587,4.723.13,6.2,13.591,5.025,16.877,4.431a35.918,35.918,0,0,0,7.591-2.141,18.3,18.3,0,0,0,4.543-2.586c-1.183.236-3.478,1.189-5.9,1.66a23.235,23.235,0,0,1-4.7.482" fill="#222221"/>
  </g>
</svg>
