<svg xmlns="http://www.w3.org/2000/svg" width="137.834" height="26.601" viewBox="0 0 137.834 26.601">
  <g id="moravia-steel" transform="translate(-167.298 -368.741)">
    <path id="Path_91" data-name="Path 91" d="M180.7,368.741a13.3,13.3,0,1,0,13.4,13.3,13.349,13.349,0,0,0-13.4-13.3m0,24.454a11.153,11.153,0,1,1,11.237-11.155A11.2,11.2,0,0,1,180.7,393.2" fill="#222221"/>
    <path id="Path_92" data-name="Path 92" d="M189.262,386.975l-3.673-6.1,1.786-1.068,1.231,2.041,1.789-1.064-3.513-5.691-2.406-.064,1.827,3-1.785,1.066-3.9-6.466-3.786,6.347-1.612-.963,1.244-2.059-.38-1.268-1.409.2-3.6,5.953,1.789,1.065,1.277-2.116,1.623.969-3.707,6.209h7.6v1.853h-2.547V390.9h6.99v-2.072h-2.357v-1.853Zm-13.131-2.156,4.526-7.78,4.687,7.78Z" fill="#222221"/>
    <path id="Path_93" data-name="Path 93" d="M204.686,378.453h4.282l.983,4.1h.021l.974-4.1h4.269v7.489h-2.594l-.043-5.879h-.022l-1.481,5.879h-2.41l-1.438-5.879h-.044l-.033,5.879h-2.464Z" fill="#222221"/>
    <path id="Path_94" data-name="Path 94" d="M220.212,384.27c1.145,0,1.178-1.267,1.188-2.072-.01-.7-.086-2.07-1.188-2.07-1.071,0-1.156,1.373-1.156,2.07,0,.8.119,2.072,1.156,2.072m0,1.8c-2.638,0-4.184-1.319-4.184-3.874,0-2.512,1.546-3.874,4.184-3.874s4.215,1.362,4.215,3.874c0,2.555-1.576,3.874-4.215,3.874" fill="#222221"/>
    <path id="Path_95" data-name="Path 95" d="M227.977,381.727h.757c.6,0,1.179-.066,1.179-.827,0-.676-.551-.773-1.135-.773h-.8Zm-2.767-3.274h4.683c1.8,0,2.917.557,2.917,2,0,1.147-.725,1.727-1.806,1.984v.021a1.813,1.813,0,0,1,1.277.806,21.876,21.876,0,0,1,.714,2.681h-3.018a13.115,13.115,0,0,0-.4-2.157c-.172-.341-.464-.385-.823-.385h-.647v2.542h-2.9Z" fill="#222221"/>
    <path id="Path_96" data-name="Path 96" d="M236.994,382.52h1.675l-.821-2.456h-.022Zm-1.1-4.067h3.989l2.692,7.491h-3.036l-.5-1.622h-2.444l-.464,1.622h-2.888Z" fill="#222221"/>
    <path id="Path_97" data-name="Path 97" d="M241.759,378.453h3.1l1.4,4.484h.022l1.416-4.484h2.963l-2.789,7.489h-3.427Z" fill="#222221"/>
    <rect id="Rectangle_22" data-name="Rectangle 22" width="2.897" height="7.489" transform="translate(251.108 378.453)" fill="#222221"/>
    <path id="Path_98" data-name="Path 98" d="M258.192,382.52h1.676l-.822-2.456h-.021Zm-1.1-4.067h3.988l2.692,7.491h-3.037l-.5-1.622h-2.443l-.466,1.622H254.44Z" fill="#222221"/>
    <path id="Path_99" data-name="Path 99" d="M274.257,380.5a6.9,6.9,0,0,0-2.238-.374c-.453,0-1.243.011-1.243.493,0,.976,3.967.054,3.967,2.94,0,2.007-2,2.511-3.675,2.511a13.091,13.091,0,0,1-3.114-.355v-1.942a7.036,7.036,0,0,0,2.6.495c.68,0,1.3-.141,1.3-.517,0-1.008-3.967-.1-3.967-3.005,0-2.058,2.161-2.424,3.881-2.424a13.05,13.05,0,0,1,2.5.257Z" fill="#222221"/>
    <path id="Path_100" data-name="Path 100" d="M282.935,380.664h-2.55v5.278h-2.9v-5.278h-2.55v-2.211h8Z" fill="#222221"/>
    <path id="Path_101" data-name="Path 101" d="M283.452,378.453h6.54v1.8h-3.707v1.062h3.546v1.8h-3.546v1.02h3.782v1.8h-6.615Z" fill="#222221"/>
    <path id="Path_102" data-name="Path 102" d="M291.041,378.453h6.54v1.8h-3.708v1.062h3.547v1.8h-3.547v1.02h3.783v1.8h-6.615Z" fill="#222221"/>
    <path id="Path_103" data-name="Path 103" d="M298.679,378.453h2.9v5.28h3.555v2.209h-6.453Z" fill="#222221"/>
  </g>
</svg>
