<svg xmlns="http://www.w3.org/2000/svg" width="64.321" height="27.1" viewBox="0 0 64.321 27.1">
  <g id="nl" transform="translate(-295.166 -651.023)">
    <path id="Path_205" data-name="Path 205" d="M314,668.6a.443.443,0,0,1-.164.026.478.478,0,0,1-.141-.017.408.408,0,0,1-.127-.051.973.973,0,0,1-.122-.11,1.6,1.6,0,0,1-.139-.173l-.766-1.062V667.2l1-1.138v-.005l-.229-.05v-.089c.047-.013.089-.025.127-.034s.078-.017.116-.021a.816.816,0,0,1,.1-.009,1.03,1.03,0,0,1,.115,0c.05,0,.1,0,.152.009a.823.823,0,0,1,.139.029v.081a1.14,1.14,0,0,0-.16.093.862.862,0,0,0-.147.132l-.847.942.753.956a.836.836,0,0,0,.106.119c.033.034.068.063.1.093a1.187,1.187,0,0,0,.118.076c.043.025.1.047.144.072v.085a.569.569,0,0,1-.135.067m-1.32-.039c-.037.01-.075.018-.118.026l-.123.013c-.046,0-.093,0-.148,0-.076,0-.147,0-.207-.007a.9.9,0,0,1-.17-.035v-.079a.416.416,0,0,0,.192-.115.346.346,0,0,0,.054-.211v-2.081l-.266-.068v-.093a1.313,1.313,0,0,1,.241-.051,1.557,1.557,0,0,1,.24-.017c.076,0,.148,0,.213.009s.123.021.185.034v.08c-.042.013-.08.029-.114.042a.259.259,0,0,0-.075.064.183.183,0,0,0-.043.084.5.5,0,0,0-.013.123v2.09l.267.068v.093c-.043.012-.08.021-.115.028" fill="#222221"/>
    <path id="Path_206" data-name="Path 206" d="M314.9,666a.238.238,0,0,1-.051.08.188.188,0,0,1-.076.055.171.171,0,0,1-.092.021.211.211,0,0,1-.089-.017.272.272,0,0,1-.073-.05.373.373,0,0,1-.046-.077.258.258,0,0,1-.018-.1.241.241,0,0,1,.018-.093.217.217,0,0,1,.046-.08.189.189,0,0,1,.077-.055.242.242,0,0,1,.1-.021.221.221,0,0,1,.156.063.162.162,0,0,1,.047.072.223.223,0,0,1,.018.093.311.311,0,0,1-.018.106m.08,2.558a.779.779,0,0,1-.113.023l-.123.012c-.047,0-.094,0-.148,0s-.1,0-.158-.008a.575.575,0,0,1-.159-.031v-.071a.365.365,0,0,0,.084-.038.393.393,0,0,0,.071-.055.2.2,0,0,0,.052-.063.144.144,0,0,0,.017-.072v-1.43l-.272-.114v-.089a1.727,1.727,0,0,1,.28-.059,1.2,1.2,0,0,1,.225-.022h.135l-.022.229v1.608l.238.063v.08a.854.854,0,0,1-.107.033" fill="#222221"/>
    <path id="Path_207" data-name="Path 207" d="M316.953,668.6c-.042,0-.09,0-.141-.008a.483.483,0,0,1-.134-.031v-.071a.212.212,0,0,0,.114-.1.341.341,0,0,0,.038-.178V667.4a1.15,1.15,0,0,0-.029-.262.449.449,0,0,0-.089-.178.353.353,0,0,0-.131-.1.5.5,0,0,0-.175-.029.788.788,0,0,0-.244.038.647.647,0,0,0-.19.093v1.422l.236.063v.08a.884.884,0,0,1-.105.033.779.779,0,0,1-.115.022l-.127.013c-.043,0-.088,0-.143,0s-.107,0-.161-.008a.6.6,0,0,1-.157-.031v-.071a.257.257,0,0,0,.08-.038.348.348,0,0,0,.073-.055.255.255,0,0,0,.054-.063.135.135,0,0,0,.018-.072v-1.43l-.275-.114v-.094a1.93,1.93,0,0,1,.279-.059,1.722,1.722,0,0,1,.228-.017h.1v.229a.809.809,0,0,1,.275-.174.958.958,0,0,1,.351-.063.639.639,0,0,1,.241.042.527.527,0,0,1,.186.127.629.629,0,0,1,.123.2,1.02,1.02,0,0,1,.042.288v1.185l.219.063v.08a1.2,1.2,0,0,1-.443.072" fill="#222221"/>
    <path id="Path_208" data-name="Path 208" d="M318.91,667.022a.52.52,0,0,0-.093-.165.416.416,0,0,0-.135-.1.405.405,0,0,0-.161-.031.371.371,0,0,0-.173.042.447.447,0,0,0-.14.12.7.7,0,0,0-.1.185.914.914,0,0,0-.034.249.766.766,0,0,0,.034.234.454.454,0,0,0,.089.165.388.388,0,0,0,.131.1.383.383,0,0,0,.152.033.5.5,0,0,0,.182-.033.376.376,0,0,0,.144-.111.483.483,0,0,0,.1-.189.835.835,0,0,0,.038-.267.743.743,0,0,0-.034-.233m.178,1.764a.35.35,0,0,0-.233-.067h-.681a.306.306,0,0,0-.084.055.4.4,0,0,0-.069.08.371.371,0,0,0-.044.1.285.285,0,0,0-.019.107.246.246,0,0,0,.034.122.275.275,0,0,0,.1.1.556.556,0,0,0,.17.072.978.978,0,0,0,.236.025,1.118,1.118,0,0,0,.275-.033,1.074,1.074,0,0,0,.212-.09.421.421,0,0,0,.135-.13.276.276,0,0,0,.046-.148.235.235,0,0,0-.08-.191m.44-1.963a1.914,1.914,0,0,0-.216-.034,2.224,2.224,0,0,0-.237-.012v0a.782.782,0,0,1,.1.093.736.736,0,0,1,.075.11,1.125,1.125,0,0,1,.052.127.774.774,0,0,1,.015.131.8.8,0,0,1-.071.334.812.812,0,0,1-.186.262.884.884,0,0,1-.6.229.733.733,0,0,1-.14-.012.61.61,0,0,1-.123-.038.133.133,0,0,0-.046.038.289.289,0,0,0-.047.05.264.264,0,0,0-.029.055.145.145,0,0,0-.013.06.159.159,0,0,0,.073.143.342.342,0,0,0,.2.051l.593-.005a.609.609,0,0,1,.409.115.437.437,0,0,1,.144.359.54.54,0,0,1-.081.288.736.736,0,0,1-.214.233,1.073,1.073,0,0,1-.327.161,1.409,1.409,0,0,1-.41.059,1.455,1.455,0,0,1-.351-.038.8.8,0,0,1-.254-.106.449.449,0,0,1-.153-.157.394.394,0,0,1-.05-.194.417.417,0,0,1,.03-.16.6.6,0,0,1,.084-.137.619.619,0,0,1,.288-.173v0a.388.388,0,0,1-.182-.127.315.315,0,0,1-.042-.321.278.278,0,0,1,.064-.11.477.477,0,0,1,.092-.093.378.378,0,0,1,.114-.06v0a.457.457,0,0,1-.139-.085.491.491,0,0,1-.123-.126.712.712,0,0,1-.084-.173.622.622,0,0,1-.034-.2.822.822,0,0,1,.066-.331.87.87,0,0,1,.179-.267.851.851,0,0,1,.6-.24.932.932,0,0,1,.135.012,1.181,1.181,0,0,1,.13.034.779.779,0,0,1,.116.042.342.342,0,0,1,.076.051.77.77,0,0,1,.071-.051.709.709,0,0,1,.093-.042,1.033,1.033,0,0,1,.1-.03.525.525,0,0,1,.107-.011.794.794,0,0,1,.1.007.367.367,0,0,1,.082.017Z" fill="#222221"/>
    <path id="Path_209" data-name="Path 209" d="M321.008,666.807a1.04,1.04,0,0,0-.14-.035,1.339,1.339,0,0,0-.169-.012.538.538,0,0,0-.249.055.562.562,0,0,0-.2.161.882.882,0,0,0-.131.27,1.5,1.5,0,0,0-.046.385.967.967,0,0,0,.042.3.81.81,0,0,0,.114.226.445.445,0,0,0,.162.135.379.379,0,0,0,.19.046c.042,0,.08,0,.122-.008a1.041,1.041,0,0,0,.119-.03,1.117,1.117,0,0,0,.106-.042.435.435,0,0,0,.084-.055Zm.368,1.73c-.047.028-.1.063-.161.093a.753.753,0,0,1-.2-.254.729.729,0,0,1-.118.1.959.959,0,0,1-.136.077,1.023,1.023,0,0,1-.148.05.543.543,0,0,1-.139.017.732.732,0,0,1-.3-.063.772.772,0,0,1-.244-.182.985.985,0,0,1-.166-.292,1.228,1.228,0,0,1-.059-.381,1.444,1.444,0,0,1,.08-.5,1.055,1.055,0,0,1,.22-.367.861.861,0,0,1,.322-.229.99.99,0,0,1,.39-.077c.051,0,.1.005.155.01a.742.742,0,0,1,.136.021v-.745l-.287-.115V665.6a1.576,1.576,0,0,1,.287-.059c.1-.009.174-.018.237-.018h.135l-.024.238v2.423a.792.792,0,0,0,.062.128.451.451,0,0,0,.1.118,1.421,1.421,0,0,1-.136.106" fill="#222221"/>
    <path id="Path_210" data-name="Path 210" d="M323.32,667.2a.741.741,0,0,0-.123-.241.591.591,0,0,0-.181-.149.481.481,0,0,0-.215-.05.471.471,0,0,0-.212.055.539.539,0,0,0-.187.161.836.836,0,0,0-.131.266,1.244,1.244,0,0,0-.05.369,1.1,1.1,0,0,0,.047.333.786.786,0,0,0,.122.246.615.615,0,0,0,.182.148.548.548,0,0,0,.216.047.5.5,0,0,0,.212-.051.554.554,0,0,0,.185-.161.783.783,0,0,0,.131-.267,1.176,1.176,0,0,0,.051-.376,1.052,1.052,0,0,0-.047-.33m.348.766a1.136,1.136,0,0,1-.221.359.95.95,0,0,1-.316.225.925.925,0,0,1-.368.08.906.906,0,0,1-.361-.069.786.786,0,0,1-.3-.189,1,1,0,0,1-.2-.3,1.141,1.141,0,0,1-.072-.414,1.335,1.335,0,0,1,.081-.47,1.186,1.186,0,0,1,.22-.36,1.025,1.025,0,0,1,.317-.228.882.882,0,0,1,.376-.08.943.943,0,0,1,.363.071.783.783,0,0,1,.293.2.9.9,0,0,1,.2.305,1.065,1.065,0,0,1,.072.4,1.221,1.221,0,0,1-.085.474" fill="#222221"/>
    <path id="Path_211" data-name="Path 211" d="M326.992,668.584a2.271,2.271,0,0,1-.25.017,1.328,1.328,0,0,1-.135-.009.387.387,0,0,1-.134-.031v-.071a.21.21,0,0,0,.113-.1.353.353,0,0,0,.039-.178v-.824a.843.843,0,0,0-.03-.25.468.468,0,0,0-.089-.174.322.322,0,0,0-.135-.1.486.486,0,0,0-.179-.03,1,1,0,0,0-.219.026.769.769,0,0,0-.186.073,1.263,1.263,0,0,1,.021.147c0,.06,0,.114,0,.169v1.139l.221.062v.081a.963.963,0,0,1-.2.056,2.144,2.144,0,0,1-.246.017,1.366,1.366,0,0,1-.139-.009.447.447,0,0,1-.137-.031v-.071a.234.234,0,0,0,.12-.1.408.408,0,0,0,.034-.178v-.778a1.305,1.305,0,0,0-.027-.292.519.519,0,0,0-.076-.187.29.29,0,0,0-.127-.1.548.548,0,0,0-.173-.026,1.17,1.17,0,0,0-.123.01,1.013,1.013,0,0,0-.118.028c-.033.014-.068.027-.1.043a.883.883,0,0,0-.081.051v1.422l.238.062v.081a1.507,1.507,0,0,1-.22.056,2.494,2.494,0,0,1-.271.017c-.051,0-.106,0-.162-.009a.553.553,0,0,1-.155-.031v-.071a.268.268,0,0,0,.08-.038.292.292,0,0,0,.072-.055.285.285,0,0,0,.055-.063.149.149,0,0,0,.016-.072v-1.431l-.275-.113v-.094a2,2,0,0,1,.28-.059,1.7,1.7,0,0,1,.229-.016h.1v.227a.848.848,0,0,1,.274-.173.955.955,0,0,1,.348-.064.585.585,0,0,1,.147.018.629.629,0,0,1,.25.135.458.458,0,0,1,.08.107,1.206,1.206,0,0,1,.123-.1,1.4,1.4,0,0,1,.165-.08,1.382,1.382,0,0,1,.182-.059.956.956,0,0,1,.183-.022.639.639,0,0,1,.241.043.458.458,0,0,1,.185.122.62.62,0,0,1,.119.212.893.893,0,0,1,.043.3v1.172l.219.062v.081a.946.946,0,0,1-.2.056" fill="#222221"/>
    <path id="Path_212" data-name="Path 212" d="M329.8,667.2a.782.782,0,0,0-.123-.241.6.6,0,0,0-.182-.149.475.475,0,0,0-.215-.05.485.485,0,0,0-.213.055.524.524,0,0,0-.185.161.778.778,0,0,0-.131.266,1.242,1.242,0,0,0-.051.369,1.133,1.133,0,0,0,.047.333.786.786,0,0,0,.122.246.6.6,0,0,0,.183.148.536.536,0,0,0,.215.047.507.507,0,0,0,.213-.051.564.564,0,0,0,.185-.161.783.783,0,0,0,.131-.267,1.233,1.233,0,0,0,.051-.376,1.114,1.114,0,0,0-.047-.33m.348.766a1.136,1.136,0,0,1-.221.359.964.964,0,0,1-.317.225.925.925,0,0,1-.368.08.9.9,0,0,1-.36-.069.8.8,0,0,1-.3-.189,1,1,0,0,1-.2-.3,1.14,1.14,0,0,1-.073-.414,1.358,1.358,0,0,1,.081-.47,1.185,1.185,0,0,1,.219-.36,1.041,1.041,0,0,1,.318-.228.89.89,0,0,1,.377-.08.951.951,0,0,1,.363.071.787.787,0,0,1,.292.2.886.886,0,0,1,.2.305,1.046,1.046,0,0,1,.072.4,1.239,1.239,0,0,1-.084.474" fill="#222221"/>
    <path id="Path_213" data-name="Path 213" d="M332.012,665.8a.264.264,0,0,1-.018.071,1.357,1.357,0,0,0-.131-.037,1.309,1.309,0,0,0-.144-.03c-.051,0-.1-.014-.148-.018s-.1,0-.139,0a.235.235,0,0,0-.123.031.274.274,0,0,0-.1.088.458.458,0,0,0-.067.144.7.7,0,0,0-.026.2.437.437,0,0,0,0,.072.978.978,0,0,0,0,.107,1.068,1.068,0,0,0,0,.113c0,.034,0,.064,0,.089h.539l-.052.229h-.491v1.536l.265.062v.081a.5.5,0,0,1-.108.033.812.812,0,0,1-.114.023l-.136.012c-.051,0-.1,0-.161,0s-.106,0-.16-.008a.513.513,0,0,1-.157-.031v-.071a.253.253,0,0,0,.081-.039.3.3,0,0,0,.072-.054.209.209,0,0,0,.055-.063.149.149,0,0,0,.016-.072v-1.413h-.233V666.7l.233-.093v-.312a.9.9,0,0,1,.051-.31.706.706,0,0,1,.161-.245.687.687,0,0,1,.254-.156.976.976,0,0,1,.346-.06.718.718,0,0,1,.322.056.161.161,0,0,1,.1.148.418.418,0,0,1,0,.068" fill="#222221"/>
    <path id="Path_214" data-name="Path 214" d="M333.426,668.617a.491.491,0,0,1-.381-.139.681.681,0,0,1-.123-.449c0-.1,0-.207,0-.313s0-.212.009-.309l.012-.561h-.232v-.141l.457-.453.139-.017-.016.381h.557l-.029.23h-.542l-.008.531c0,.089,0,.175,0,.259v.236a1.121,1.121,0,0,0,.016.216.447.447,0,0,0,.055.144.2.2,0,0,0,.082.077.216.216,0,0,0,.1.024.492.492,0,0,0,.174-.028.622.622,0,0,0,.14-.081l.043.016c-.018.25-.17.377-.457.377" fill="#222221"/>
    <path id="Path_215" data-name="Path 215" d="M335.891,668.584a2.305,2.305,0,0,1-.25.017,1.309,1.309,0,0,1-.135-.009.41.41,0,0,1-.135-.031v-.071a.243.243,0,0,0,.113-.1.343.343,0,0,0,.039-.178V667.4a1,1,0,0,0-.029-.261.5.5,0,0,0-.085-.178.351.351,0,0,0-.136-.1.522.522,0,0,0-.182-.03c-.038,0-.079.006-.122.01a1.029,1.029,0,0,0-.116.028c-.037.014-.07.027-.1.043s-.06.034-.085.051v1.422l.236.062v.081a.829.829,0,0,1-.1.033.978.978,0,0,1-.113.023l-.123.013c-.047,0-.094,0-.149,0s-.1,0-.156-.009a.567.567,0,0,1-.161-.031v-.071a.354.354,0,0,0,.085-.038.421.421,0,0,0,.071-.055.165.165,0,0,0,.051-.063.149.149,0,0,0,.016-.072v-2.453l-.274-.116V665.6a2.051,2.051,0,0,1,.27-.06c.086-.008.166-.017.238-.017h.135l-.021.238v1.01a.872.872,0,0,1,.266-.172.939.939,0,0,1,.347-.061.665.665,0,0,1,.246.043.508.508,0,0,1,.186.128.519.519,0,0,1,.118.2.869.869,0,0,1,.043.287v1.186l.22.062v.081a.945.945,0,0,1-.2.056" fill="#222221"/>
    <path id="Path_216" data-name="Path 216" d="M337.611,667.09a.572.572,0,0,0-.088-.191.375.375,0,0,0-.135-.114.391.391,0,0,0-.17-.037.333.333,0,0,0-.173.051.431.431,0,0,0-.152.131.736.736,0,0,0-.112.194.658.658,0,0,0-.041.236h.9a.972.972,0,0,0-.033-.27m.369.491h-1.248a1.024,1.024,0,0,0,.047.316.73.73,0,0,0,.135.234.569.569,0,0,0,.2.147.588.588,0,0,0,.246.052.981.981,0,0,0,.158-.014.785.785,0,0,0,.156-.038.967.967,0,0,0,.151-.054c.047-.026.094-.051.131-.077a.178.178,0,0,1,.014.047.34.34,0,0,1,0,.064.223.223,0,0,1-.051.139.457.457,0,0,1-.143.119,1,1,0,0,1-.229.08,1.387,1.387,0,0,1-.3.03.839.839,0,0,1-.34-.068.8.8,0,0,1-.278-.2.952.952,0,0,1-.191-.3,1.233,1.233,0,0,1-.068-.4,1.523,1.523,0,0,1,.076-.49,1.128,1.128,0,0,1,.2-.356.826.826,0,0,1,.28-.215.759.759,0,0,1,.326-.076.8.8,0,0,1,.308.054.677.677,0,0,1,.229.157.743.743,0,0,1,.144.249,1.03,1.03,0,0,1,.051.331v.126c0,.042,0,.093,0,.145" fill="#222221"/>
    <path id="Path_217" data-name="Path 217" d="M341.35,666.007a.2.2,0,0,0-.076.072.383.383,0,0,0-.038.11.809.809,0,0,0-.013.164v2.217l-.2.048-1.337-2.2,0,.005v1.954l.257.068v.092a1.064,1.064,0,0,1-.185.056,1.544,1.544,0,0,1-.2.016c-.084,0-.157,0-.221-.008a.82.82,0,0,1-.164-.035v-.08a.423.423,0,0,0,.114-.046.24.24,0,0,0,.076-.072.255.255,0,0,0,.042-.1.818.818,0,0,0,.013-.149v-2.035L339.15,666v-.123c.08-.008.16-.018.241-.022s.158-.008.225-.008h.155l1.177,1.934.008-.005v-1.718l-.271-.066v-.09c.069-.02.14-.037.211-.051a1.247,1.247,0,0,1,.213-.02h.11c.035,0,.063,0,.09.008s.049.012.076.016a.6.6,0,0,0,.08.022v.076a.34.34,0,0,0-.115.051" fill="#222221"/>
    <path id="Path_218" data-name="Path 218" d="M342.979,667.09a.572.572,0,0,0-.088-.191.367.367,0,0,0-.135-.114.392.392,0,0,0-.17-.037.347.347,0,0,0-.174.051.44.44,0,0,0-.152.131.7.7,0,0,0-.11.194.638.638,0,0,0-.043.236h.907a1.006,1.006,0,0,0-.035-.27m.369.491H342.1a1.025,1.025,0,0,0,.046.316.768.768,0,0,0,.135.234.587.587,0,0,0,.445.2.979.979,0,0,0,.157-.014.753.753,0,0,0,.156-.038.9.9,0,0,0,.151-.054c.047-.026.094-.051.132-.077a.259.259,0,0,1,.012.047.229.229,0,0,1,.006.064.223.223,0,0,1-.051.139.467.467,0,0,1-.145.119.978.978,0,0,1-.228.08,1.4,1.4,0,0,1-.3.03.843.843,0,0,1-.618-.263.986.986,0,0,1-.19-.3,1.232,1.232,0,0,1-.068-.4,1.494,1.494,0,0,1,.077-.49,1.107,1.107,0,0,1,.2-.356.83.83,0,0,1,.281-.215.75.75,0,0,1,.324-.076.8.8,0,0,1,.309.054.678.678,0,0,1,.229.157.726.726,0,0,1,.144.249,1.058,1.058,0,0,1,.051.331v.126c0,.042,0,.093,0,.145" fill="#222221"/>
    <path id="Path_219" data-name="Path 219" d="M344.37,668.617a.494.494,0,0,1-.381-.139.681.681,0,0,1-.122-.449c0-.1,0-.207,0-.313s0-.212.008-.309l.014-.561h-.234v-.141l.457-.453.14-.017-.017.381h.558l-.029.23h-.541l-.008.531c0,.089-.006.175-.006.259v.236a1.2,1.2,0,0,0,.017.216.405.405,0,0,0,.056.144.2.2,0,0,0,.08.077.225.225,0,0,0,.107.024.479.479,0,0,0,.171-.028.629.629,0,0,0,.141-.081l.042.016c-.017.25-.169.377-.457.377" fill="#222221"/>
    <path id="Path_220" data-name="Path 220" d="M346.836,668.584a2.288,2.288,0,0,1-.25.017,1.292,1.292,0,0,1-.135-.009.4.4,0,0,1-.135-.031v-.071a.255.255,0,0,0,.114-.1.354.354,0,0,0,.038-.178V667.4a.916.916,0,0,0-.031-.261.469.469,0,0,0-.084-.178.341.341,0,0,0-.135-.1.526.526,0,0,0-.182-.03c-.038,0-.08.006-.122.01a.961.961,0,0,0-.115.028c-.038.014-.071.027-.106.043s-.058.034-.084.051v1.422l.237.062v.081a.9.9,0,0,1-.106.033.951.951,0,0,1-.114.023l-.123.013c-.046,0-.093,0-.148,0s-.1,0-.156-.009a.554.554,0,0,1-.161-.031v-.071a.332.332,0,0,0,.084-.038.436.436,0,0,0,.073-.055.184.184,0,0,0,.05-.063.139.139,0,0,0,.017-.072v-2.453l-.276-.116V665.6a2.008,2.008,0,0,1,.272-.06c.085-.008.165-.017.237-.017h.135l-.021.238v1.01a.853.853,0,0,1,.267-.172.935.935,0,0,1,.347-.061.667.667,0,0,1,.245.043.516.516,0,0,1,.186.128.505.505,0,0,1,.117.2.844.844,0,0,1,.043.287v1.186l.221.062v.081a.929.929,0,0,1-.2.056" fill="#222221"/>
    <path id="Path_221" data-name="Path 221" d="M348.557,667.09a.574.574,0,0,0-.09-.191.345.345,0,0,0-.135-.114.384.384,0,0,0-.169-.037.344.344,0,0,0-.174.051.42.42,0,0,0-.151.131.733.733,0,0,0-.111.194.618.618,0,0,0-.043.236h.906a1.054,1.054,0,0,0-.033-.27m.367.491h-1.248a1.024,1.024,0,0,0,.047.316.769.769,0,0,0,.135.234.587.587,0,0,0,.445.2.958.958,0,0,0,.156-.014.723.723,0,0,0,.156-.038.99.99,0,0,0,.153-.054c.046-.026.093-.051.131-.077a.254.254,0,0,1,.012.047.274.274,0,0,1,0,.064.217.217,0,0,1-.051.139.462.462,0,0,1-.144.119,1,1,0,0,1-.228.08,1.391,1.391,0,0,1-.305.03.843.843,0,0,1-.618-.263.947.947,0,0,1-.189-.3,1.182,1.182,0,0,1-.069-.4,1.469,1.469,0,0,1,.077-.49,1.109,1.109,0,0,1,.2-.356.823.823,0,0,1,.279-.215.766.766,0,0,1,.326-.076.809.809,0,0,1,.309.054.7.7,0,0,1,.228.157.78.78,0,0,1,.145.249,1.088,1.088,0,0,1,.049.331v.126c0,.042,0,.093,0,.145" fill="#222221"/>
    <path id="Path_222" data-name="Path 222" d="M350.518,666.836a.536.536,0,0,1-.051.127.438.438,0,0,0-.127-.071.353.353,0,0,0-.135-.027.539.539,0,0,0-.373.174v1.345l.293.064v.08a.833.833,0,0,1-.225.055l-.134.014c-.051,0-.107,0-.166,0s-.123,0-.178-.009a.682.682,0,0,1-.16-.029v-.073a.309.309,0,0,0,.08-.038.341.341,0,0,0,.072-.055.267.267,0,0,0,.055-.064.138.138,0,0,0,.017-.071v-1.43l-.275-.114v-.094a1.959,1.959,0,0,1,.279-.059,1.573,1.573,0,0,1,.229-.017h.1v.3h0l.119-.132a.583.583,0,0,1,.177-.139.426.426,0,0,1,.2-.047c.148,0,.22.059.22.182a.468.468,0,0,1-.017.127" fill="#222221"/>
    <path id="Path_223" data-name="Path 223" d="M351.461,668.561a.919.919,0,0,1-.114.023l-.127.012c-.042,0-.089,0-.144,0s-.106,0-.16-.008a.591.591,0,0,1-.157-.031v-.071a.268.268,0,0,0,.08-.038.317.317,0,0,0,.072-.055.282.282,0,0,0,.055-.063.144.144,0,0,0,.016-.072v-2.454l-.274-.114V665.6c.047-.013.1-.025.144-.034l.14-.026.121-.012c.039,0,.072,0,.1,0h.136l-.022.237v2.623l.236.063v.08a.831.831,0,0,1-.105.033" fill="#222221"/>
    <path id="Path_224" data-name="Path 224" d="M352.933,667.665a1.449,1.449,0,0,0-.318.034.844.844,0,0,0-.228.093.427.427,0,0,0-.143.136.319.319,0,0,0-.048.164.266.266,0,0,0,.085.2.341.341,0,0,0,.245.076.887.887,0,0,0,.1-.008c.037-.008.076-.016.109-.025a.57.57,0,0,0,.107-.038.483.483,0,0,0,.088-.043Zm.364.863a.782.782,0,0,1-.162.1.669.669,0,0,1-.11-.089,1.328,1.328,0,0,1-.084-.119.519.519,0,0,1-.105.081.886.886,0,0,1-.141.063.569.569,0,0,1-.16.042.72.72,0,0,1-.164.017.683.683,0,0,1-.217-.033.5.5,0,0,1-.169-.1.439.439,0,0,1-.153-.338.486.486,0,0,1,.076-.262.643.643,0,0,1,.217-.221,1.162,1.162,0,0,1,.342-.151,1.872,1.872,0,0,1,.466-.056v-.113a1.718,1.718,0,0,0-.021-.28.539.539,0,0,0-.067-.169.252.252,0,0,0-.119-.085.728.728,0,0,0-.169-.021.851.851,0,0,0-.34.072.946.946,0,0,0-.3.2.61.61,0,0,1-.014-.127.422.422,0,0,1,.039-.181.335.335,0,0,1,.122-.132.571.571,0,0,1,.216-.085,1.414,1.414,0,0,1,.317-.028.96.96,0,0,1,.289.038.592.592,0,0,1,.211.113.5.5,0,0,1,.135.179.559.559,0,0,1,.046.236.787.787,0,0,1,0,.088c0,.034,0,.072,0,.114s-.005.081-.005.119,0,.076,0,.107l-.014.684a.637.637,0,0,0,.067.116.611.611,0,0,0,.1.1.581.581,0,0,1-.127.114" fill="#222221"/>
    <path id="Path_225" data-name="Path 225" d="M355.318,668.6c-.043,0-.09,0-.14-.008a.482.482,0,0,1-.135-.031v-.071a.205.205,0,0,0,.114-.1.332.332,0,0,0,.038-.178V667.4a1.045,1.045,0,0,0-.03-.262.436.436,0,0,0-.088-.178.353.353,0,0,0-.131-.1.5.5,0,0,0-.175-.029.788.788,0,0,0-.244.038.667.667,0,0,0-.191.093v1.422l.237.063v.08a1,1,0,0,1-.1.033.818.818,0,0,1-.116.022l-.126.013c-.043,0-.088,0-.145,0s-.105,0-.16-.008a.584.584,0,0,1-.156-.031v-.071a.28.28,0,0,0,.08-.038.369.369,0,0,0,.072-.055.282.282,0,0,0,.055-.063.155.155,0,0,0,.016-.072v-1.43l-.275-.114v-.094a1.972,1.972,0,0,1,.28-.059,1.712,1.712,0,0,1,.229-.017h.1v.229a.8.8,0,0,1,.276-.174.949.949,0,0,1,.35-.063.639.639,0,0,1,.241.042.518.518,0,0,1,.186.127.6.6,0,0,1,.123.2,1.02,1.02,0,0,1,.042.288v1.185l.22.063v.08a1.21,1.21,0,0,1-.444.072" fill="#222221"/>
    <path id="Path_226" data-name="Path 226" d="M357.36,666.807a1.1,1.1,0,0,0-.139-.035,1.342,1.342,0,0,0-.17-.012.536.536,0,0,0-.248.055.549.549,0,0,0-.205.161.882.882,0,0,0-.131.27,1.5,1.5,0,0,0-.045.385.968.968,0,0,0,.041.3.784.784,0,0,0,.114.226.478.478,0,0,0,.161.135.382.382,0,0,0,.19.046,1.221,1.221,0,0,0,.123-.008.946.946,0,0,0,.119-.03.92.92,0,0,0,.1-.042.442.442,0,0,0,.085-.055Zm.368,1.73c-.046.028-.1.063-.161.093a.824.824,0,0,1-.118-.118,1.059,1.059,0,0,1-.085-.136.69.69,0,0,1-.118.1.834.834,0,0,1-.283.127.567.567,0,0,1-.14.017.732.732,0,0,1-.3-.063.811.811,0,0,1-.245-.182.983.983,0,0,1-.165-.292,1.2,1.2,0,0,1-.059-.381,1.422,1.422,0,0,1,.08-.5,1.056,1.056,0,0,1,.22-.367.864.864,0,0,1,.323-.229.98.98,0,0,1,.388-.077c.051,0,.1.005.157.01a.775.775,0,0,1,.135.021v-.745l-.288-.115V665.6a1.659,1.659,0,0,1,.288-.059c.1-.009.173-.018.238-.018h.134l-.025.238v2.423a.8.8,0,0,0,.063.128.489.489,0,0,0,.1.118,1.408,1.408,0,0,1-.135.106" fill="#222221"/>
    <path id="Path_227" data-name="Path 227" d="M359.432,668.24a.612.612,0,0,1-.161.2.711.711,0,0,1-.25.139.931.931,0,0,1-.321.052.715.715,0,0,1-.406-.09.282.282,0,0,1-.131-.258.66.66,0,0,1,.009-.093.506.506,0,0,1,.029-.08,1.069,1.069,0,0,0,.283.2.72.72,0,0,0,.314.067.418.418,0,0,0,.27-.076.234.234,0,0,0,.089-.187.268.268,0,0,0-.016-.1.372.372,0,0,0-.06-.088.572.572,0,0,0-.114-.085,1.232,1.232,0,0,0-.174-.085l-.211-.09a.654.654,0,0,1-.284-.211.513.513,0,0,1-.1-.312.574.574,0,0,1,.051-.238.675.675,0,0,1,.152-.2.772.772,0,0,1,.233-.135.843.843,0,0,1,.3-.05,1.1,1.1,0,0,1,.216.02.442.442,0,0,1,.148.052.231.231,0,0,1,.086.08.251.251,0,0,1,.024.109.592.592,0,0,1,0,.089c0,.031-.013.06-.016.09a.849.849,0,0,0-.234-.114.726.726,0,0,0-.25-.047.766.766,0,0,0-.177.021.438.438,0,0,0-.123.054.3.3,0,0,0-.076.086.276.276,0,0,0-.021.1.434.434,0,0,0,.011.1.25.25,0,0,0,.057.085.291.291,0,0,0,.1.076,1.129,1.129,0,0,0,.16.073l.228.087a1.486,1.486,0,0,1,.2.1.63.63,0,0,1,.13.114.68.68,0,0,1,.073.145.807.807,0,0,1,.02.169.508.508,0,0,1-.055.236" fill="#222221"/>
    <rect id="Rectangle_27" data-name="Rectangle 27" width="0.236" height="0.653" transform="translate(303.002 668.435)" fill="#222221"/>
    <path id="Path_228" data-name="Path 228" d="M302.125,668.539c-.051.1-.12.107-.172.052,0-.034.065-.058.172-.052m-.292.21c.1-.073.243-.059.22.077,0,0-.024.029-.153.029a.186.186,0,0,0,.017.06.067.067,0,0,0-.009.071.35.35,0,0,1,.179-.041c.026.065,0,.15-.185.18-.231.037-.358.1-.383.357a.788.788,0,0,1,.434.138.525.525,0,0,0,.443-.039.178.178,0,0,1,.022-.245.134.134,0,0,0,.2.051.009.009,0,0,0,0-.015.17.17,0,0,1-.066-.249c.052.078.17.018.181-.048l-.006,0c-.078.025-.115-.062-.115-.12a.6.6,0,0,0-.045-.367.521.521,0,0,1,.219-.113c.015,0,.016-.014,0-.021-.062-.026-.2,0-.229-.027,0,0-.027-.206-.035-.211a1.815,1.815,0,0,0-.193.091c-.039,0-.1-.136-.153-.172-.015-.009-.025,0-.017.012a.5.5,0,0,1,.031.244c-.164-.015-.219.047-.229.092-.039.01-.194.1-.194.129a.051.051,0,0,0,.024.039.118.118,0,0,0,.041.1" fill="#222221"/>
    <path id="Path_229" data-name="Path 229" d="M301.537,668.746c0-.012-.014-.011-.016,0a.123.123,0,0,0,.11.165c.1,0,.108-.073.265-.093a.012.012,0,0,0,0-.023.45.45,0,0,0-.168.007c-.123.031-.183-.015-.193-.057" fill="#222221"/>
    <path id="Path_230" data-name="Path 230" d="M305.48,667.511c-.192-.011-.275.009-.283.092a.158.158,0,0,0,.283-.092" fill="#222221"/>
    <path id="Path_231" data-name="Path 231" d="M298.684,667.6c-.008-.083-.09-.1-.283-.093.037.173.189.2.283.093" fill="#222221"/>
    <path id="Path_232" data-name="Path 232" d="M307.519,669.286a.451.451,0,0,1-.189-.039c-.018-.01-.027.006-.02.016a.339.339,0,0,1,.056.315c-.009.01-.018.007-.02,0a.462.462,0,0,0-.44-.35.258.258,0,0,0-.276.293c0,.341.6.592.6,1.061s-.5.577-.793.5c.017.476.562.639.579.3,0-.016.013-.02.022,0,.069.169.041.317-.171.364-.013,0-.008.011.006.02.21.134.1.659.086.813-.016.223.2.2.223.19s.018,0,0,.018a.236.236,0,0,1-.35.017c-.147.046-.057.171.042.236.015.01.013.02,0,.021s-.249.021-.289-.159a.24.24,0,0,1-.279.06c-.043-.022-.256-.1-.278.139,0,.017-.011.006-.018,0a.2.2,0,0,1,.107-.341.162.162,0,0,0-.253.03c-.006.01-.013.012-.015-.008-.014-.256.2-.279.33-.168.006-.026.05-.17-.153-.165-.006,0-.013-.006,0-.017a.193.193,0,0,1,.318.021c.071.083.246.05.263.048-.056-.89-.84-.575-.948-1.007-.006-.023-.015-.014-.017-.006-.03.105-.3.12-.345-.088,0-.013,0-.023.009-.013.226.227.738-.482.04-1.057a1.01,1.01,0,0,0-1.332-.055.083.083,0,0,0,.059.1c.01,0,.013.011,0,.018a.153.153,0,0,1-.173-.039c-.127.09-.018.2.034.233.012.008.007.017,0,.019a.208.208,0,0,1-.219-.169l-.02.013v.505c0,.72-.83.82-1.741,1.43-.912-.61-1.743-.71-1.743-1.43v-.505l-.018-.013a.209.209,0,0,1-.22.169c-.011,0-.017-.011,0-.019.052-.031.162-.143.034-.233a.153.153,0,0,1-.174.039c-.016-.007-.013-.016,0-.018a.083.083,0,0,0,.06-.1,1.01,1.01,0,0,0-1.332.055c-.7.575-.187,1.284.04,1.057.01-.01.011,0,.009.013-.049.208-.315.193-.345.088,0-.008-.012-.017-.017.006-.108.432-.892.117-.947,1.007.016,0,.192.035.262-.048a.193.193,0,0,1,.318-.021c.01.011,0,.017,0,.017-.2-.005-.159.139-.153.165.135-.111.343-.088.33.168,0,.02-.009.018-.016.008a.161.161,0,0,0-.252-.03.2.2,0,0,1,.107.341c-.007.009-.017.02-.019,0-.021-.239-.233-.161-.277-.139a.239.239,0,0,1-.279-.06c-.04.18-.267.162-.289.159s-.018-.011,0-.021c.1-.065.189-.19.043-.236a.237.237,0,0,1-.351-.017c-.014-.017-.006-.022,0-.018s.239.033.223-.19c-.01-.154-.124-.679.086-.813.013-.009.02-.017.006-.02-.212-.047-.24-.195-.171-.364.009-.021.021-.017.022,0,.017.341.562.178.579-.3-.291.075-.794-.026-.794-.5s.6-.72.6-1.061a.258.258,0,0,0-.276-.293.462.462,0,0,0-.44.35c0,.008-.012.011-.02,0a.338.338,0,0,1,.055-.315c.008-.01,0-.026-.019-.016a.456.456,0,0,1-.19.039.254.254,0,0,1-.286-.272c0-.107.037-.161.022-.2-.008-.016.012-.028.022-.009a.272.272,0,0,0,.266.192h.458a.507.507,0,0,1,.559.515c0,.418-.533.6-.533,1.026,0,.1.051.266.326.266a.833.833,0,0,0,.3-.062,1.855,1.855,0,0,1,.484-1,.99.99,0,0,0,.842-.021c.319-.173.47-.289.751-.1s.526.4.556.4l.066-.013v-1.676a.115.115,0,0,0-.134.134c.008.039.051.069-.039.2-.006.01-.016.006-.017-.005,0-.034-.022-.09-.067-.09a1.51,1.51,0,0,0-.414.32.665.665,0,0,0-.332-.386c.134-.02.707-.16.707-.411,0-.084.1-.1.158-.1,0-.007.1-.229.272-.113a.012.012,0,0,1,0,.022c-.078.017-.111.1-.114.185.062-.02.2-.06.4-.1v.534h.236v-.581a6.188,6.188,0,0,1,1.089-.1,6.262,6.262,0,0,1,1.725.252c0-.087-.036-.168-.114-.185a.012.012,0,0,1,0-.022c.176-.116.269.106.271.113.063,0,.157.015.157.1,0,.251.575.391.708.411a.674.674,0,0,0-.332.386,1.5,1.5,0,0,0-.414-.32c-.045,0-.062.056-.066.09,0,.011-.012.015-.018.005-.089-.133-.046-.163-.039-.2a.115.115,0,0,0-.134-.134v1.676l.067.013c.03.005.276-.2.556-.4s.431-.078.752.1a.988.988,0,0,0,.841.021,1.855,1.855,0,0,1,.484,1,.828.828,0,0,0,.3.062c.276,0,.327-.166.327-.266,0-.425-.534-.608-.534-1.026a.507.507,0,0,1,.56-.515h.458a.273.273,0,0,0,.266-.192c.009-.019.03-.007.022.009-.015.034.023.088.023.2a.255.255,0,0,1-.288.272m-1.764,4.7c-.818.052-1.666.535-1.666.021v-.3c.641,0,.735.2.735.234a.144.144,0,0,0,.1-.148v-.36a2.622,2.622,0,0,1,.949-.144c.469,0,.615.1.622.143l.125.686s-.19-.173-.869-.129M303.7,671.8c-.011,0-.015-.008-.009-.015.172-.186.3.047.33.084.069.092.315-.08.412-.182a.8.8,0,0,1-.217-.436c0-.012,0-.03,0-.037s0-.009-.01-.006a.154.154,0,0,1-.08.021c-.05,0-.143-.016-.143-.192,0-.014.006-.013.011-.005a.094.094,0,0,0,.076.046c.176,0,.542-.586.974-.586a.72.72,0,0,1,.435.2.14.14,0,0,0-.057.14.155.155,0,0,0,.128.128c.009,0,.011.01,0,.015a4.08,4.08,0,0,0-.7.311c-.108.092-.086.267-.025.507s.187.2.234.192c.007,0,.009,0,.005.008a.231.231,0,0,1-.183.1c-.113,0-.156-.069-.215-.069-.1,0-.3.14-.3.248a.2.2,0,0,0,.108.155s0,.007,0,.008c-.047.008-.239.025-.279-.149-.1.133-.2.007-.339.007a.152.152,0,0,0-.163.157c0,.006-.007.009-.013,0a.194.194,0,0,1,.118-.333.176.176,0,0,0-.258.024c-.005.008-.014.005-.014-.005,0-.257.191-.275.332-.164.025-.1-.051-.166-.148-.166m-4.591,1.858c-.013.015-.02,0-.02-.013v-.7c0-.2,1.38-.322,2.85-.322s2.849.119,2.849.322v.7c0,.012-.006.028-.021.013a15.065,15.065,0,0,0-5.658,0m-.079-2.373a4.152,4.152,0,0,0-.705-.311c-.012-.005-.011-.013,0-.015a.155.155,0,0,0,.127-.128.139.139,0,0,0-.057-.14.72.72,0,0,1,.435-.2c.432,0,.8.586.973.586a.094.094,0,0,0,.077-.046c.005-.008.012-.009.012.005,0,.176-.094.192-.144.192a.154.154,0,0,1-.08-.021q-.009,0-.009.006c0,.007,0,.025,0,.037a.8.8,0,0,1-.218.436c.1.1.344.274.412.182.03-.037.159-.27.33-.084.008.007,0,.015-.007.015-.1,0-.174.066-.148.166.14-.111.331-.093.331.164,0,.01-.01.013-.013.005a.177.177,0,0,0-.259-.024.194.194,0,0,1,.118.333c-.007.009-.012.006-.014,0a.15.15,0,0,0-.162-.157c-.137,0-.236.126-.34-.007-.039.174-.231.157-.278.149-.006,0-.007-.005,0-.008a.2.2,0,0,0,.107-.155c0-.108-.205-.248-.3-.248-.059,0-.1.069-.215.069a.231.231,0,0,1-.183-.1s0-.009.005-.008c.047.007.174.039.235-.192s.082-.415-.025-.507m.76,2.72c0,.514-.848.031-1.666-.021-.679-.044-.868.129-.868.129l.124-.686c.007-.038.153-.143.622-.143a2.623,2.623,0,0,1,.949.144v.36a.144.144,0,0,0,.1.148c0-.03.093-.234.735-.234Zm-2.491-5.537c.148.074.228-.085.192-.249a.529.529,0,0,1,.1-.539.183.183,0,0,0,.3-.162c-.009-.024-.024-.028-.024,0a.118.118,0,0,1-.109.108.27.27,0,0,1-.237-.224.411.411,0,0,1,.617.172c.008.032.046.029.044,0a.293.293,0,0,0-.159-.246c-.135-.067-.085-.168-.05-.2.014-.015.042-.012.033,0-.052.09.059.13.213.111.324-.044.431.077.448.161.071.018.349.173.349.23a.1.1,0,0,1-.044.071.261.261,0,0,1-.079.194c-.346-.209-.441-.014-.406.124,0,0,.061.05.294.05a.324.324,0,0,1-.031.108.123.123,0,0,1,.016.129.539.539,0,0,0-.326-.082s-.132.2.358.3a.822.822,0,0,1,.645.812c0,.012,0,.019-.016.016-.4-.073-.578.338-1.093.292a.387.387,0,0,0-.005-.248.435.435,0,0,1-.207.217.539.539,0,0,1-.331-.181.376.376,0,0,0,.068-.451.292.292,0,0,1-.374.089c-.023-.011-.018-.025,0-.03.341-.11.119-.4.1-.427a.187.187,0,0,1-.293-.131c0-.018.007-.015.015-.011m2.136-.59c0-.019.021-.026.029,0a.188.188,0,0,1-.2.255c-.132,0-.207-.1-.395-.127-.083-.014-.14,0-.14-.026s.122-.026.14-.026c.2,0,.224.043.347.043.1,0,.2-.044.214-.122m1.026-1.949c.163,0,.137.106.277.106.017,0,.035,0,.035.009,0,.046-.041.124-.1.124-.086,0-.088-.085-.151-.085-.027,0-.067.022-.067.11a.824.824,0,0,0,.243.5.146.146,0,0,1,.119-.068.17.17,0,0,1,.147.182.213.213,0,0,1-.02.095.257.257,0,0,0,.114.038.137.137,0,0,0,.148-.154c0-.289-.389-.544-.389-.911a.34.34,0,0,1,.362-.35c.261,0,.213.24.44.24.011,0,.019,0,.019.012s-.039.148-.157.148-.162-.217-.272-.217c-.041,0-.105.024-.105.171a1.359,1.359,0,0,0,.139.477.165.165,0,0,1,.115-.05.186.186,0,0,1,.166.206.252.252,0,0,1-.075.184c.057.074.116.133.2.133.157,0,.226-.089.226-.186s-.191-.143-.191-.306a.157.157,0,0,1,.142-.175.2.2,0,0,1,.121.05.193.193,0,0,1,.119-.05.157.157,0,0,1,.143.175c0,.163-.191.2-.191.306s.069.186.226.186a.27.27,0,0,0,.2-.133.25.25,0,0,1-.077-.184.187.187,0,0,1,.166-.206.169.169,0,0,1,.116.05,1.332,1.332,0,0,0,.138-.477c0-.147-.062-.171-.1-.171-.111,0-.148.217-.273.217s-.156-.133-.156-.148.008-.012.02-.012c.226,0,.177-.24.439-.24a.339.339,0,0,1,.361.35c0,.367-.388.622-.388.911a.138.138,0,0,0,.149.154.263.263,0,0,0,.112-.038.227.227,0,0,1-.019-.095.169.169,0,0,1,.146-.182.147.147,0,0,1,.12.068.829.829,0,0,0,.243-.5c0-.088-.04-.11-.068-.11-.062,0-.064.085-.15.085-.065,0-.1-.078-.1-.124,0-.013.019-.009.036-.009.14,0,.114-.106.278-.106.054,0,.241.03.241.293,0,.4-.493.52-.379.827-.209-.031-.207.173-.211.538a4.7,4.7,0,0,0-2.26,0c0-.365,0-.569-.21-.538.114-.307-.379-.427-.379-.827,0-.263.186-.293.242-.293m1.658-.035a.18.18,0,1,1-.18-.181.181.181,0,0,1,.18.181m-.41-1.141a.187.187,0,0,1,.1.034c.043.03.067.025.08.011s.02-.038-.01-.081a.184.184,0,0,1-.034-.1.092.092,0,1,1,.181,0,.185.185,0,0,1-.034.1c-.03.043-.024.067-.011.081s.037.019.08-.011a.191.191,0,0,1,.1-.034.093.093,0,1,1,0,.182.191.191,0,0,1-.1-.035c-.043-.03-.066-.025-.08-.011a1.2,1.2,0,0,0,.023.281.216.216,0,0,1,.182.182c0,.148-.158.233-.25.283-.093-.05-.252-.135-.252-.283a.218.218,0,0,1,.183-.182,1.029,1.029,0,0,0,.022-.281c-.013-.014-.037-.019-.08.011a.187.187,0,0,1-.1.035.093.093,0,1,1,0-.182m2.7,3.128c.008-.029.024-.022.028,0a.207.207,0,0,0,.215.122c.124,0,.151-.043.347-.043.018,0,.139,0,.139.026s-.056.012-.139.026c-.189.032-.263.127-.4.127a.188.188,0,0,1-.194-.255m.8-.481c.016-.084.124-.205.448-.161.154.019.266-.021.213-.111-.009-.015.017-.018.033,0,.035.035.084.136-.051.2a.293.293,0,0,0-.158.246c0,.032.035.035.044,0a.411.411,0,0,1,.616-.172.268.268,0,0,1-.236.224.117.117,0,0,1-.109-.108c0-.031-.015-.027-.024,0a.183.183,0,0,0,.3.162.532.532,0,0,1,.1.539c-.037.164.043.323.191.249.007,0,.016-.007.016.011a.187.187,0,0,1-.293.131c-.021.029-.244.317.1.427.016.005.021.019,0,.03a.294.294,0,0,1-.375-.089.375.375,0,0,0,.069.451.543.543,0,0,1-.33.181.423.423,0,0,1-.207-.217.384.384,0,0,0-.006.248c-.515.046-.7-.365-1.093-.292-.013,0-.017,0-.017-.016a.823.823,0,0,1,.646-.812c.49-.1.358-.3.358-.3a.53.53,0,0,0-.325.082.122.122,0,0,1,.015-.129.325.325,0,0,1-.031-.108c.233,0,.294-.05.294-.05.036-.138-.061-.333-.406-.124a.261.261,0,0,1-.079-.194.1.1,0,0,1-.043-.071c0-.057.276-.212.348-.23m-10.05,10.719h13.55v-27.1h-13.55Z" fill="#222221"/>
    <rect id="Rectangle_28" data-name="Rectangle 28" width="0.236" height="0.652" transform="translate(301.939 671.315)" fill="#222221"/>
    <path id="Path_233" data-name="Path 233" d="M300.752,669.145l-.1.13c-.021.029.08.1.1.074l.126-.172s.4.219.508.28a.426.426,0,0,1,.085-.228c-.126-.035-.38-.118-.38-.118a.117.117,0,0,1-.085.037c-.065,0-.108-.073-.119-.1,0,0,0-.005,0,0s.061.027.076.008l.051-.07.116.053.052-.075-.1-.032.461-.648a.539.539,0,0,0,0-.148.462.462,0,0,0-.139.052l-.469.64-.061-.082-.054.075.087.092-.043.059a.175.175,0,0,0-.218.046l0,0c.029-.008.138-.032.137.042a.138.138,0,0,0-.18.069c0,.005,0,.006,0,.006.021-.007.1-.028.129.007" fill="#222221"/>
    <path id="Path_234" data-name="Path 234" d="M303.394,669.4a.13.13,0,0,1-.134.1c-.087,0-.237-.043-.339-.043a.246.246,0,0,0-.263.246c0,.227.236.268.236.483,0,.162-.227.212-.388.06a1.236,1.236,0,0,0-.184-.479c-.418.134-.5-.13-.726-.13-.19,0-.438.34-.637.386l.028-.2.023-.005L301,669.65s-.045.109-.052.123-.013.013-.017,0c-.022-.049-.064-.146-.064-.146s0,.132,0,.159c0,.011-.009.014-.015,0l-.1-.146.038.175c0,.009-.005.012-.012.006l-.136-.129.071.175c0,.01,0,.015-.011.009l-.149-.1.1.15c0,.007,0,.013-.01.01-.089-.034-.152-.056-.152-.056l.118.115c.007.007.006.015-.007.015l-.138,0,.154.066.012-.016.133.035a.107.107,0,0,0-.016.108h.006a.148.148,0,0,1,.129-.07c.006,0,.006,0,0,0a.137.137,0,0,0-.082.165c0,.005.005.005.007,0a.251.251,0,0,1,.118-.075l-.024.18a.241.241,0,0,0,.3-.21l-.155-.036a1.077,1.077,0,0,1,.6-.2.6.6,0,0,1,.542.567.346.346,0,0,1-.046.191c-.061.089-.108.068-.13.046-.005,0-.009,0-.007.005.027.115.175.111.194.052,0-.014.011-.01.013,0,.076.274.416-.018.591.33-.007,0-.093.049-.145.019a.1.1,0,0,0-.17.042c0,.007,0,.009.005.008a.128.128,0,0,1,.158.065c-.083-.034-.2.005-.144.146,0,.006.005.006.009,0a.087.087,0,0,1,.127-.058.106.106,0,0,0,0,.2c.005,0,.009,0,.008,0-.012-.069.021-.12.072-.12a.132.132,0,0,0,.137-.083c.047.082.146.051.191.034.008,0,.009-.008,0-.011-.063-.019-.146-.063-.077-.111a.139.139,0,0,0,.181-.08c0-.007,0-.012-.007-.007s-.138.072-.167-.051c-.019-.082-.032-.221-.1-.251a.1.1,0,0,0,.042-.172c0-.006-.009-.014-.011,0-.009.186-.4.031-.41-.232.276.07.55,0,.55-.274s-.257-.383-.257-.512a.11.11,0,0,1,.116-.112.312.312,0,0,1,.248.229c0,.005.007.006.013,0,.037-.053.043-.138.012-.164-.009-.005,0-.017.011-.009s.232,0,.232-.145c0-.049-.013-.078-.011-.1s-.025-.026-.034,0" fill="#222221"/>
    <path id="Path_235" data-name="Path 235" d="M302.059,670.475c.005,0,.005-.01,0-.008-.067.012-.155-.091-.066-.2a.37.37,0,0,0-.189-.073c-.258,0-.45.282-.488.322s-.1.1-.141.044c-.005-.006-.008-.006-.008,0,0,.116.094.116.131.095,0,0,.006,0,.006,0a.869.869,0,0,0,.061.324c-.011.011-.119.116-.2.116-.051,0-.062-.1-.14-.1a.1.1,0,0,0-.073.039s0,.008.005.008c.06,0,.094.038.081.092-.074-.063-.185-.052-.183.088,0,.006,0,.009.009,0a.1.1,0,0,1,.142-.011.105.105,0,0,0-.065.182s.006,0,.007,0a.084.084,0,0,1,.087-.086c.078,0,.13.07.19,0,.023.095.125.086.152.082v0a.114.114,0,0,1-.06-.085c0-.063.128-.137.166-.137s.052.039.121.039a.13.13,0,0,0,.1-.052c0-.005,0-.008,0-.006-.087.021-.139-.062-.139-.211,0-.286.153-.337.495-.465" fill="#222221"/>
  </g>
</svg>
