<svg xmlns="http://www.w3.org/2000/svg" width="70.865" height="9.964" viewBox="0 0 70.865 9.964">
  <g id="penta" transform="translate(-168.822 -418.443)">
    <path id="Path_183" data-name="Path 183" d="M177.71,418.448h-8.888v2.485h8.365c.52,0,.662.525.662,1.241,0,.683-.142,1.252-.662,1.252h-8.365v4.981h3.022v-2.5h5.863c2.477,0,3.092-1.2,3.092-3.737,0-2.494-.615-3.726-3.089-3.726" fill="#222221"/>
    <path id="Path_184" data-name="Path 184" d="M183.343,428.407h11.436v-2.492h-8.458v-1.4h8.1v-2.188h-8.1v-1.4h8.458v-2.486H183.343Z" fill="#222221"/>
    <path id="Path_185" data-name="Path 185" d="M234.4,418.443h-3.955l-5.264,9.963h3.483l.863-1.715h5.778l.856,1.715h3.523Zm-3.774,6.059,1.792-3.585,1.794,3.585Z" fill="#222221"/>
    <path id="Path_186" data-name="Path 186" d="M226.383,418.443H213.546v2.49h4.916v7.474h3.17v-7.474h4.751Z" fill="#222221"/>
    <path id="Path_187" data-name="Path 187" d="M208.425,425.916l-.188,0-5.249-7.47h-5.3v9.963h3.08v-7.472l.235,0,5.272,7.476H211.5v-9.963h-3.081Z" fill="#222221"/>
  </g>
</svg>
