<svg xmlns="http://www.w3.org/2000/svg" width="61.397" height="49.573" viewBox="0 0 61.397 49.573">
  <g id="prochazka" transform="translate(-269.724 -399.199)">
    <rect id="Rectangle_24" data-name="Rectangle 24" width="8.575" height="0.316" transform="translate(270.199 442.401)" fill="#222221"/>
    <path id="Path_117" data-name="Path 117" d="M270.71,433.043c0-1.483,0-1.759-.019-2.071-.02-.331-.1-.489-.421-.558a2.252,2.252,0,0,0-.381-.028c-.108,0-.165-.021-.165-.087s.067-.089.213-.089c.519,0,1.134.029,1.408.029.4,0,.967-.029,1.417-.029a2.385,2.385,0,0,1,1.819.557,1.7,1.7,0,0,1,.487,1.163,2.3,2.3,0,0,1-2.4,2.365,1.413,1.413,0,0,1-.206-.01c-.049-.011-.118-.021-.118-.089s.069-.107.274-.107a1.539,1.539,0,0,0,1.31-1.612,1.885,1.885,0,0,0-.575-1.466,1.549,1.549,0,0,0-1.36-.342c-.049.02-.077.077-.077.185v3.91c0,.9,0,1.67.047,2.09.03.274.089.489.381.528a4.253,4.253,0,0,0,.5.038c.107,0,.158.03.158.078,0,.07-.08.1-.187.1-.646,0-1.261-.029-1.515-.029-.225,0-.84.029-1.23.029-.129,0-.2-.029-.2-.1,0-.048.039-.078.157-.078a1.641,1.641,0,0,0,.351-.038c.2-.039.245-.254.284-.537.048-.411.048-1.183.048-2.081Z" fill="#222221"/>
    <path id="Path_118" data-name="Path 118" d="M278.009,434.363c0,.088.019.115.078.147a2.425,2.425,0,0,0,.654.077.869.869,0,0,0,.606-.136,1.4,1.4,0,0,0,.557-1.232,1.305,1.305,0,0,0-1.308-1.475,3.227,3.227,0,0,0-.509.028.1.1,0,0,0-.078.118Zm-1.094-.646c0-1.26,0-1.494-.011-1.759-.019-.282-.1-.371-.371-.448a1.545,1.545,0,0,0-.341-.029c-.089,0-.147-.031-.147-.09s.069-.077.2-.077c.448,0,.995.02,1.172.02.293,0,1.075-.02,1.339-.02a3.006,3.006,0,0,1,1.631.351,1.451,1.451,0,0,1,.606,1.145c0,.614-.351,1.162-1.193,1.837.762.937,1.368,1.688,1.887,2.207a1.616,1.616,0,0,0,.918.548.83.83,0,0,0,.2.019.1.1,0,0,1,.108.088c0,.067-.059.087-.167.087h-.82a1.84,1.84,0,0,1-.938-.166,3.888,3.888,0,0,1-1.172-1.221c-.342-.449-.7-1.006-.812-1.132a.194.194,0,0,0-.157-.059l-.771-.02a.062.062,0,0,0-.068.069v.117c0,.771.01,1.417.048,1.767.03.245.068.4.333.44a3.027,3.027,0,0,0,.42.03.1.1,0,0,1,.108.088c0,.059-.07.087-.177.087-.5,0-1.21-.028-1.338-.028-.167,0-.714.028-1.055.028-.107,0-.166-.028-.166-.087,0-.039.029-.088.138-.088a1.179,1.179,0,0,0,.3-.03c.177-.038.225-.195.255-.44.039-.35.039-1.006.039-1.767Z" fill="#222221"/>
    <path id="Path_119" data-name="Path 119" d="M288.474,434.606c0-1.835-1.105-2.97-2.492-2.97-.958,0-2.082.509-2.082,2.561,0,1.71.978,3.058,2.6,3.058.606,0,1.974-.283,1.974-2.649m-5.844-.155a3.289,3.289,0,0,1,3.606-3.255c2.169,0,3.517,1.2,3.517,3.108a3.357,3.357,0,0,1-3.6,3.4,3.241,3.241,0,0,1-3.518-3.253" fill="#222221"/>
    <path id="Path_120" data-name="Path 120" d="M291.786,436.8a3.2,3.2,0,0,1-.069-4.729,3.878,3.878,0,0,1,2.726-.881,8.572,8.572,0,0,1,1.249.09c.325.049.608.107.862.136.1.011.127.049.127.1,0,.067-.019.165-.039.458-.02.274-.02.733-.03.9-.009.118-.039.207-.116.207s-.09-.07-.09-.177a1.172,1.172,0,0,0-.331-.773,2.433,2.433,0,0,0-1.661-.488,2.312,2.312,0,0,0-1.622.47,2.691,2.691,0,0,0-.792,2.158,2.77,2.77,0,0,0,2.678,2.912c.762,0,1.181-.058,1.524-.439a1.365,1.365,0,0,0,.294-.558c.019-.126.039-.166.107-.166s.1.078.1.147a7.358,7.358,0,0,1-.186,1.1.293.293,0,0,1-.225.245,5.073,5.073,0,0,1-1.555.186,4.408,4.408,0,0,1-2.949-.9" fill="#222221"/>
    <path id="Path_121" data-name="Path 121" d="M302.992,434.022c.02,0,.049-.011.049-.06v-.176c0-1.261-.01-1.563-.02-1.828-.019-.282-.1-.371-.372-.448a1.5,1.5,0,0,0-.332-.029c-.1,0-.145-.031-.145-.09s.057-.077.184-.077c.459,0,1.066.02,1.292.02.2,0,.77-.02,1.1-.02.129,0,.186.02.186.077s-.057.09-.156.09a1.382,1.382,0,0,0-.253.029c-.226.039-.294.155-.314.448-.019.265-.019.5-.019,1.759v1.467c0,.761,0,1.417.039,1.778.031.234.077.391.342.429a2.921,2.921,0,0,0,.439.03c.088,0,.138.049.138.088,0,.059-.068.087-.176.087-.558,0-1.124-.028-1.358-.028-.2,0-.8.028-1.133.028-.119,0-.188-.028-.188-.087,0-.039.041-.088.138-.088a1.224,1.224,0,0,0,.313-.03c.176-.038.225-.195.254-.44.039-.35.039-.987.039-1.748v-.636a.051.051,0,0,0-.049-.047H299.75c-.031,0-.061.008-.061.047v.636c0,.761.009,1.4.049,1.759.029.234.078.391.332.429a3.01,3.01,0,0,0,.44.03c.1,0,.136.049.136.088,0,.059-.068.087-.175.087-.557,0-1.153-.028-1.4-.028-.2,0-.763.028-1.105.028-.106,0-.165-.028-.165-.087,0-.039.028-.088.137-.088a1.215,1.215,0,0,0,.3-.03c.174-.038.222-.195.253-.44.039-.35.039-1.006.039-1.767v-1.467c0-1.26,0-1.494-.011-1.759-.019-.282-.1-.371-.371-.448a1.559,1.559,0,0,0-.343-.029c-.085,0-.145-.031-.145-.09s.068-.077.186-.077c.458,0,1.025.02,1.259.02.206,0,.8-.02,1.144-.02.117,0,.176.02.176.077s-.049.09-.157.09a1.222,1.222,0,0,0-.243.029c-.235.039-.3.155-.323.448-.02.265-.02.567-.02,1.828v.176a.053.053,0,0,0,.061.06Z" fill="#222221"/>
    <path id="Path_122" data-name="Path 122" d="M309.215,435.047c.039,0,.049-.021.039-.049l-.81-2.111c-.01-.029-.02-.077-.039-.077s-.039.048-.049.077l-.83,2.1c-.02.039,0,.06.029.06Zm-1.836.459c-.05,0-.059.009-.078.058l-.459,1.114a1.514,1.514,0,0,0-.127.51c0,.146.078.233.342.233h.127c.107,0,.127.039.127.088,0,.067-.049.087-.137.087-.285,0-.684-.029-.957-.029-.088,0-.547.029-1,.029-.109,0-.156-.02-.156-.087a.085.085,0,0,1,.1-.088c.078,0,.178-.008.254-.008.391-.06.537-.314.715-.735l2.246-5.228c.1-.234.166-.332.254-.332.127,0,.166.077.256.265.2.459,1.64,3.859,2.187,5.12.332.752.576.858.733.889a1.918,1.918,0,0,0,.324.029c.077,0,.116.028.116.088s-.049.087-.372.087c-.3,0-.928,0-1.65-.02-.158-.009-.254-.009-.254-.067s.018-.079.106-.088a.129.129,0,0,0,.079-.186l-.666-1.671a.08.08,0,0,0-.087-.058Z" fill="#222221"/>
    <path id="Path_123" data-name="Path 123" d="M315.8,437.069c.879,0,1.182-.174,1.33-.429a1.9,1.9,0,0,0,.156-.382c.018-.089.039-.136.1-.136s.086.059.086.253a5.1,5.1,0,0,1-.166,1.017c-.049.147-.107.214-.263.214-1.437,0-2.893-.038-4.632-.038-.1,0-.144-.029-.144-.089s.008-.1.105-.244c1.212-1.827,2.463-3.7,3.616-5.412h-1.622a3.075,3.075,0,0,0-1.222.146.9.9,0,0,0-.459.635c-.019.118-.059.147-.108.147s-.087-.04-.087-.138a12,12,0,0,1,.176-1.2c.011-.116.05-.156.1-.156a2.679,2.679,0,0,0,.343.059c.821.03,1.23.02,1.582.02h2.648c.089,0,.147.028.147.068a.31.31,0,0,1-.05.158c-1.191,1.864-2.481,3.76-3.693,5.509Z" fill="#222221"/>
    <path id="Path_124" data-name="Path 124" d="M320.412,434.088h.039c.293-.313,1.545-1.543,1.8-1.826s.43-.47.43-.615a.152.152,0,0,0-.119-.166c-.077-.021-.116-.039-.116-.089s.048-.078.137-.078c.185,0,.654.019.889.019.263,0,.742-.019,1.006-.019.089,0,.146.019.146.078s-.048.089-.125.089a1.751,1.751,0,0,0-.5.1,2.67,2.67,0,0,0-.908.617c-.274.254-1.553,1.465-1.818,1.769.3.391,1.994,2.15,2.327,2.462a4.224,4.224,0,0,0,1.17.891,1.268,1.268,0,0,0,.53.106c.067,0,.117.039.117.088s-.05.088-.207.088h-.752a5.04,5.04,0,0,1-.6-.021,1.785,1.785,0,0,1-1.113-.537c-.371-.321-2.022-2.236-2.209-2.491l-.088-.116h-.039v.752c0,.761,0,1.417.022,1.778.017.233.1.391.31.43a3.1,3.1,0,0,0,.422.029.111.111,0,0,1,.116.088c0,.059-.067.088-.167.088-.478,0-1.093-.029-1.307-.029-.2,0-.743.029-1.085.029-.108,0-.166-.029-.166-.088,0-.038.027-.088.135-.088a1.254,1.254,0,0,0,.3-.029c.176-.039.225-.2.254-.441.039-.35.039-1.006.039-1.767v-1.466c0-1.261,0-1.495-.01-1.76-.019-.281-.1-.371-.371-.447a1.445,1.445,0,0,0-.343-.03c-.087,0-.145-.031-.145-.089s.067-.078.195-.078c.45,0,1,.019,1.2.019s.822-.019,1.105-.019c.129,0,.186.019.186.078s-.048.089-.117.089a1.053,1.053,0,0,0-.245.03c-.234.038-.3.154-.32.447-.012.265-.012.5-.012,1.76Z" fill="#222221"/>
    <path id="Path_125" data-name="Path 125" d="M328.093,435.047c.039,0,.048-.021.039-.049l-.812-2.111c-.01-.029-.019-.077-.039-.077s-.039.048-.049.077l-.83,2.1c-.019.039,0,.06.03.06Zm-1.837.459c-.049,0-.059.009-.078.058l-.46,1.114a1.532,1.532,0,0,0-.126.51c0,.146.078.233.34.233h.128c.108,0,.127.039.127.088,0,.067-.048.087-.136.087-.284,0-.684-.029-.958-.029-.089,0-.547.029-1,.029-.107,0-.158-.02-.158-.087a.086.086,0,0,1,.1-.088c.078,0,.176-.008.256-.008.39-.06.535-.314.711-.735l2.248-5.228c.1-.234.166-.332.254-.332.128,0,.166.077.254.265.206.459,1.642,3.859,2.189,5.12.332.752.576.858.733.889a1.9,1.9,0,0,0,.323.029c.077,0,.116.028.116.088s-.049.087-.371.087c-.3,0-.928,0-1.65-.02-.159-.009-.254-.009-.254-.067s.019-.079.107-.088a.129.129,0,0,0,.076-.186l-.664-1.671a.079.079,0,0,0-.086-.058Z" fill="#222221"/>
    <path id="Path_126" data-name="Path 126" d="M283.08,443.435c-.234-.193-.649-.589-.757-.707a6.924,6.924,0,0,1-.494-.583.8.8,0,0,0-.374.7.847.847,0,0,0,.836.9,1.075,1.075,0,0,0,.789-.308m-1.952-.393a1.173,1.173,0,0,1,.639-1.007.936.936,0,0,1-.2-.577.864.864,0,0,1,.9-.769,1.064,1.064,0,0,1,.506.105.094.094,0,0,1,.054.1,4.572,4.572,0,0,1-.029.48c-.013.062-.025.071-.042.071s-.025-.014-.025-.078a.5.5,0,0,0-.13-.355.57.57,0,0,0-.418-.184.508.508,0,0,0-.53.546c0,.328.225.6.661,1.069.141.156.655.638.789.75a1.273,1.273,0,0,0,.214-.693.288.288,0,0,0-.081-.206.294.294,0,0,0-.2-.067c-.025,0-.05-.007-.05-.029s.033-.028.067-.028a4.585,4.585,0,0,1,.5.028c.063.009.075.042.075.083a1.818,1.818,0,0,1-.413.987,3.7,3.7,0,0,0,.577.414,1.141,1.141,0,0,0,.5.163c.038,0,.058,0,.058.029s-.032.029-.071.029h-.409c-.309,0-.41-.029-.869-.393a1.407,1.407,0,0,1-1.045.453.955.955,0,0,1-1.016-.925" fill="#222221"/>
    <path id="Path_127" data-name="Path 127" d="M288.436,441.96c0-.652,0-.77-.007-.9s-.041-.21-.18-.239a.735.735,0,0,0-.142-.012c-.017,0-.034-.009-.034-.026s.021-.034.068-.034c.188,0,.438.014.471.014.093,0,.335-.014.528-.014a1.014,1.014,0,0,1,.775.238.725.725,0,0,1,.21.5.969.969,0,0,1-1.027.995.663.663,0,0,1-.089,0c-.02,0-.045-.007-.045-.03s.025-.037.112-.037a.694.694,0,0,0,.724-.681.89.89,0,0,0-.234-.644.725.725,0,0,0-.573-.209.47.47,0,0,0-.18.026c-.025.008-.033.037-.033.079V442.7c0,.4,0,.731.021.907.012.121.038.212.163.229.057.008.15.018.188.018s.033.011.033.024-.021.033-.067.033c-.23,0-.5-.011-.515-.011s-.274.011-.4.011c-.046,0-.066-.007-.066-.033s.007-.024.033-.024a.7.7,0,0,0,.125-.018c.084-.017.1-.108.12-.229.021-.176.021-.506.021-.907Z" fill="#222221"/>
    <path id="Path_128" data-name="Path 128" d="M293.057,442.524c.021,0,.021-.012.016-.028l-.4-1.129c-.02-.063-.042-.063-.062,0l-.368,1.129c-.008.02,0,.028.013.028Zm-.435-1.672c.05-.139.067-.163.092-.163s.041.021.092.151c.063.159.719,1.885.974,2.52.15.371.272.439.359.464a.511.511,0,0,0,.167.025c.026,0,.043,0,.043.026s-.038.032-.084.032c-.063,0-.368,0-.657-.008-.079,0-.125,0-.125-.03s.013-.023.03-.029.05-.045.024-.112l-.388-1.028a.035.035,0,0,0-.037-.026h-.9c-.02,0-.033.011-.041.034l-.251.74a.872.872,0,0,0-.059.28c0,.083.089.121.159.121h.043c.028,0,.041.008.041.026s-.024.032-.063.032c-.1,0-.28-.012-.326-.012s-.276.012-.472.012c-.054,0-.079-.008-.079-.032s.016-.026.037-.026a.851.851,0,0,0,.121-.009c.193-.025.276-.183.352-.392Z" fill="#222221"/>
    <path id="Path_129" data-name="Path 129" d="M296.368,442.323a.054.054,0,0,0,.03.051,1.155,1.155,0,0,0,.438.067.561.561,0,0,0,.315-.079.764.764,0,0,0,.253-.645c0-.523-.275-.837-.722-.837a1.257,1.257,0,0,0-.28.027.05.05,0,0,0-.034.05Zm-.334-.363c0-.652,0-.77-.009-.9s-.041-.21-.18-.239a.7.7,0,0,0-.14-.012c-.018,0-.035-.009-.035-.026s.021-.034.067-.034c.189,0,.451.014.473.014.046,0,.363-.014.494-.014a1.275,1.275,0,0,1,.765.186.729.729,0,0,1,.287.568,1.3,1.3,0,0,1-.506.966c.343.437.628.81.87,1.069a.873.873,0,0,0,.51.3.972.972,0,0,0,.163.013c.02,0,.037.011.037.024s-.024.033-.1.033h-.3a.85.85,0,0,1-.446-.079,2.183,2.183,0,0,1-.566-.615c-.174-.229-.371-.509-.454-.617a.07.07,0,0,0-.055-.027l-.514-.006c-.022,0-.03.01-.03.033v.1c0,.4,0,.731.021.907.013.121.038.212.163.229.059.008.152.018.189.018s.033.011.033.024-.02.033-.067.033c-.229,0-.493-.011-.514-.011-.005,0-.267.011-.393.011-.045,0-.067-.007-.067-.033s.009-.024.034-.024a.709.709,0,0,0,.126-.018c.083-.017.1-.108.12-.229.021-.176.021-.506.021-.907Z" fill="#222221"/>
    <path id="Path_130" data-name="Path 130" d="M300.955,442.7c0,.4,0,.732.022.908.011.12.037.212.163.229.057.008.151.017.188.017s.033.011.033.026-.021.031-.066.031c-.231,0-.493-.011-.516-.011s-.283.011-.408.011c-.047,0-.067-.007-.067-.031s.008-.026.034-.026a.683.683,0,0,0,.125-.017c.083-.017.1-.109.121-.229.019-.176.019-.506.019-.908v-1.768l-.619.008c-.257.005-.357.034-.424.133a.907.907,0,0,0-.072.13c-.012.033-.024.041-.041.041s-.021-.011-.021-.036c0-.041.084-.4.093-.433s.024-.081.041-.081a.783.783,0,0,0,.182.049c.123.015.281.023.332.023h1.567a1.435,1.435,0,0,0,.3-.023c.062-.008.1-.019.118-.019s.02.025.02.051c0,.124-.014.413-.014.458s-.011.056-.027.056-.029-.014-.035-.071l0-.047c-.012-.126-.112-.223-.515-.231l-.526-.008Z" fill="#222221"/>
    <path id="Path_131" data-name="Path 131" d="M304.154,443.339c.008.343.051.453.164.485a.848.848,0,0,0,.209.025c.021,0,.033.008.033.026s-.025.032-.076.032c-.238,0-.4-.012-.441-.012s-.215.012-.4.012c-.04,0-.066-.005-.066-.032s.012-.026.033-.026a.564.564,0,0,0,.172-.025c.1-.029.125-.151.125-.53l0-2.4c0-.163.013-.209.045-.209s.106.092.148.136c.061.069.684.742,1.329,1.432.414.443.87.952,1,1.09l-.047-2.123c0-.271-.034-.365-.163-.4a1.083,1.083,0,0,0-.2-.02c-.031,0-.033-.013-.033-.031s.033-.029.082-.029c.19,0,.389.014.437.014s.183-.014.354-.014c.045,0,.075.006.075.029s-.018.031-.045.031a.4.4,0,0,0-.1.012c-.137.029-.153.121-.153.371l-.009,2.45c0,.277-.008.3-.038.3s-.082-.044-.3-.266c-.047-.042-.648-.657-1.09-1.133-.486-.522-.959-1.049-1.092-1.2Z" fill="#222221"/>
    <path id="Path_132" data-name="Path 132" d="M309.088,441.96c0-.652,0-.77-.006-.9s-.043-.21-.181-.239a.725.725,0,0,0-.141-.012c-.018,0-.034-.009-.034-.026s.02-.034.065-.034c.1,0,.209,0,.3.005l.171.009c.03,0,.862,0,.958-.006a.977.977,0,0,0,.179-.02c.02,0,.037-.022.059-.022s.016.018.016.039-.02.08-.034.2c0,.042-.013.226-.021.277,0,.02-.012.045-.028.045s-.035-.021-.035-.055a.455.455,0,0,0-.025-.15c-.029-.066-.07-.117-.3-.142-.072-.009-.525-.012-.572-.012-.017,0-.025.012-.025.041v1.154c0,.028,0,.042.025.042.054,0,.568,0,.664-.008s.16-.017.2-.059.045-.054.064-.054.02.008.02.033-.02.1-.035.233c-.008.085-.016.239-.016.27s0,.079-.027.079-.031-.018-.031-.039a.438.438,0,0,0-.016-.136c-.017-.06-.056-.13-.218-.148-.112-.011-.526-.021-.6-.021a.026.026,0,0,0-.03.03v.368c0,.141-.005.627,0,.714.013.288.076.343.484.343a1.2,1.2,0,0,0,.4-.046c.109-.046.159-.129.189-.3.007-.046.016-.064.036-.064s.025.034.025.064a3.569,3.569,0,0,1-.054.407c-.028.107-.061.107-.225.107-.314,0-.543-.009-.707-.013s-.264-.011-.325-.011c-.009,0-.08,0-.166,0s-.181.007-.245.007c-.045,0-.065-.007-.065-.033s.008-.024.032-.024a.683.683,0,0,0,.126-.018c.083-.017.1-.108.121-.229.02-.176.02-.506.02-.907Z" fill="#222221"/>
    <path id="Path_133" data-name="Path 133" d="M313.06,442.323a.053.053,0,0,0,.031.051,1.155,1.155,0,0,0,.438.067.556.556,0,0,0,.314-.079.764.764,0,0,0,.255-.645c0-.523-.276-.837-.723-.837a1.224,1.224,0,0,0-.279.027.049.049,0,0,0-.036.05Zm-.334-.363c0-.652,0-.77-.007-.9s-.043-.21-.18-.239a.733.733,0,0,0-.143-.012c-.017,0-.033-.009-.033-.026s.021-.034.068-.034c.186,0,.45.014.471.014.045,0,.364-.014.494-.014a1.283,1.283,0,0,1,.766.186.729.729,0,0,1,.287.568,1.294,1.294,0,0,1-.506.966c.342.437.627.81.869,1.069a.87.87,0,0,0,.512.3.927.927,0,0,0,.161.013c.021,0,.038.011.038.024s-.025.033-.1.033h-.295a.86.86,0,0,1-.449-.079,2.2,2.2,0,0,1-.563-.615c-.177-.229-.373-.509-.457-.617a.067.067,0,0,0-.054-.027l-.513-.006c-.023,0-.031.01-.031.033v.1c0,.4,0,.731.02.907.016.121.039.212.164.229.059.008.152.018.19.018s.032.011.032.024-.021.033-.067.033c-.229,0-.493-.011-.513-.011,0,0-.269.011-.394.011-.045,0-.066-.007-.066-.033s.008-.024.033-.024a.694.694,0,0,0,.127-.018c.082-.017.1-.108.121-.229.019-.176.019-.506.019-.907Z" fill="#222221"/>
    <path id="Path_134" data-name="Path 134" d="M316.658,443.853c-.059-.03-.063-.046-.063-.159,0-.21.014-.376.02-.442,0-.046.013-.068.035-.068s.028.013.028.046a.718.718,0,0,0,.013.156.569.569,0,0,0,.618.427.56.56,0,0,0,.6-.558c0-.287-.123-.454-.481-.752l-.189-.154c-.441-.364-.543-.623-.543-.909a.764.764,0,0,1,.865-.75,1.74,1.74,0,0,1,.389.04.68.68,0,0,0,.146.022c.034,0,.042.01.042.029s-.016.159-.016.444c0,.065-.008.1-.03.1s-.031-.022-.033-.055a.682.682,0,0,0-.055-.208c-.025-.047-.138-.223-.523-.223a.475.475,0,0,0-.513.486c0,.238.107.388.509.7l.118.091c.493.389.609.649.609.983a.865.865,0,0,1-.354.694,1.105,1.105,0,0,1-.632.176,1.243,1.243,0,0,1-.559-.114" fill="#222221"/>
    <path id="Path_135" data-name="Path 135" d="M271.366,448.545a.808.808,0,0,1-.256-.623.793.793,0,0,1,.877-.8,2.115,2.115,0,0,1,.3.022,1.419,1.419,0,0,0,.215.034c.023,0,.027.01.027.024s-.005.04-.01.116,0,.186-.006.217-.007.045-.02.045-.017-.015-.017-.045a.284.284,0,0,0-.088-.213.691.691,0,0,0-.42-.12.646.646,0,0,0-.483.151.7.7,0,0,0-.189.549.758.758,0,0,0,.758.77.477.477,0,0,0,.365-.1.4.4,0,0,0,.079-.177c0-.023.008-.031.021-.031s.014.015.014.031a2.23,2.23,0,0,1-.046.271c-.013.039-.017.043-.055.059a1.168,1.168,0,0,1-.378.049.972.972,0,0,1-.693-.227" fill="#222221"/>
    <path id="Path_136" data-name="Path 136" d="M274.2,448.691c.191,0,.581-.106.581-.719,0-.5-.307-.777-.639-.777-.352,0-.613.232-.613.693a.714.714,0,0,0,.671.8m-.044-1.567a.766.766,0,0,1,.826.787.825.825,0,0,1-.838.861.789.789,0,0,1-.816-.827.814.814,0,0,1,.828-.821" fill="#222221"/>
    <path id="Path_137" data-name="Path 137" d="M277.579,448.471c.008.077.023.193.113.223a.461.461,0,0,0,.138.019c.009,0,.016,0,.016.01s-.019.02-.045.02c-.046,0-.272-.007-.349-.013-.049,0-.059-.01-.059-.021s0-.013.014-.015.012-.037.008-.076l-.1-1.083h-.006l-.515,1.092c-.045.093-.05.112-.069.112s-.025-.022-.065-.1c-.055-.1-.237-.467-.246-.488-.019-.037-.254-.542-.278-.6h-.008l-.085.975c0,.033,0,.072,0,.108a.067.067,0,0,0,.055.065.424.424,0,0,0,.08.01c.008,0,.016,0,.016.01s-.011.02-.037.02c-.078,0-.179-.007-.195-.007s-.121.007-.176.007c-.022,0-.037,0-.037-.02s.012-.01.022-.01a.279.279,0,0,0,.063-.006c.068-.013.076-.1.084-.174l.15-1.37c0-.025.011-.038.023-.038s.022.007.033.031l.643,1.321.618-1.32c.008-.019.016-.032.031-.032s.021.016.025.056Z" fill="#222221"/>
    <path id="Path_138" data-name="Path 138" d="M280.331,448.471c.008.077.024.193.113.223a.456.456,0,0,0,.137.019c.011,0,.017,0,.017.01s-.018.02-.044.02c-.047,0-.273-.007-.351-.013-.048,0-.059-.01-.059-.021s0-.013.016-.015.012-.037.007-.076l-.1-1.083h-.006l-.514,1.092c-.045.093-.051.112-.069.112s-.027-.022-.067-.1c-.055-.1-.235-.467-.246-.488-.018-.037-.254-.542-.277-.6h-.009l-.084.975c0,.033,0,.072,0,.108a.068.068,0,0,0,.054.065.407.407,0,0,0,.08.01c.009,0,.017,0,.017.01s-.013.02-.039.02c-.076,0-.178-.007-.194-.007s-.12.007-.176.007c-.023,0-.037,0-.037-.02s.011-.01.022-.01a.276.276,0,0,0,.062-.006c.071-.013.076-.1.085-.174l.151-1.37c0-.025.011-.038.023-.038s.021.007.032.031l.642,1.321.619-1.32c.009-.019.016-.032.031-.032s.022.016.026.056Z" fill="#222221"/>
    <path id="Path_139" data-name="Path 139" d="M281.52,447.764c0-.329,0-.388,0-.454s-.021-.105-.091-.12a.329.329,0,0,0-.071-.007c-.008,0-.018,0-.018-.013s.012-.016.034-.016h.152l.086.005c.016,0,.434,0,.482,0a.619.619,0,0,0,.091-.01c.01,0,.017-.01.029-.01s.008.009.008.018-.011.04-.017.1c0,.022-.006.114-.01.141,0,.009-.007.022-.015.022s-.017-.01-.017-.026a.213.213,0,0,0-.013-.077c-.015-.034-.036-.06-.149-.071-.035,0-.264-.007-.289-.007-.008,0-.011.007-.011.021v.581c0,.015,0,.021.011.021.029,0,.286,0,.335-.005s.08-.007.1-.03.022-.026.031-.026.01,0,.01.017-.01.048-.016.117c-.005.044-.009.12-.009.134s0,.04-.015.04-.014-.007-.014-.018a.207.207,0,0,0-.008-.068c-.009-.031-.028-.067-.11-.075-.057-.006-.265-.01-.3-.01-.011,0-.014.006-.014.013v.187c0,.07,0,.314,0,.358.006.147.037.172.243.172a.646.646,0,0,0,.2-.022c.054-.024.079-.065.094-.152,0-.023.008-.032.019-.032s.011.018.011.032a1.758,1.758,0,0,1-.026.2c-.014.055-.031.055-.114.055-.156,0-.272,0-.355-.006s-.132-.006-.164-.006l-.083,0c-.043,0-.091,0-.122,0s-.035,0-.035-.016,0-.013.017-.013a.327.327,0,0,0,.063-.008c.042-.009.053-.055.062-.117.01-.088.01-.253.01-.454Z" fill="#222221"/>
    <path id="Path_140" data-name="Path 140" d="M283.516,447.945a.036.036,0,0,0,.014.027.63.63,0,0,0,.221.032.271.271,0,0,0,.158-.04.382.382,0,0,0,.128-.322c0-.264-.139-.42-.363-.42a.889.889,0,0,0-.141.01.028.028,0,0,0-.017.028Zm-.168-.181c0-.329,0-.388,0-.454s-.022-.105-.091-.12a.335.335,0,0,0-.071-.007c-.009,0-.017,0-.017-.013s.011-.016.033-.016c.094,0,.227.006.238.006s.183-.006.248-.006a.647.647,0,0,1,.385.091.373.373,0,0,1,.144.286.653.653,0,0,1-.254.488c.173.219.316.407.439.537a.428.428,0,0,0,.255.15.446.446,0,0,0,.082.007c.011,0,.019.007.019.013s-.013.016-.051.016h-.149a.427.427,0,0,1-.225-.04,1.1,1.1,0,0,1-.284-.309c-.087-.116-.186-.255-.229-.311a.034.034,0,0,0-.026-.012l-.26-.005c-.009,0-.014.007-.014.017v.052c0,.2,0,.366.01.454.007.062.019.108.082.117.029,0,.076.008.094.008s.018.007.018.013-.011.016-.033.016c-.117,0-.249-.006-.259-.006s-.136.006-.2.006c-.023,0-.034,0-.034-.016s0-.013.017-.013a.359.359,0,0,0,.064-.008c.041-.009.051-.055.06-.117.011-.088.011-.253.011-.454Z" fill="#222221"/>
    <path id="Path_141" data-name="Path 141" d="M285.524,448.545a.806.806,0,0,1-.254-.623.791.791,0,0,1,.876-.8,2.125,2.125,0,0,1,.3.022,1.46,1.46,0,0,0,.215.034c.022,0,.027.01.027.024s-.007.04-.011.116,0,.186-.006.217-.007.045-.019.045-.017-.015-.017-.045a.288.288,0,0,0-.088-.213.694.694,0,0,0-.421-.12.648.648,0,0,0-.483.151.7.7,0,0,0-.189.549.759.759,0,0,0,.759.77.477.477,0,0,0,.365-.1.37.37,0,0,0,.077-.177c.006-.023.009-.031.022-.031s.015.015.015.031a2.452,2.452,0,0,1-.046.271c-.014.039-.018.043-.054.059a1.182,1.182,0,0,1-.379.049.971.971,0,0,1-.694-.227" fill="#222221"/>
    <path id="Path_142" data-name="Path 142" d="M287.924,448.134c0,.2,0,.367.01.455.006.061.019.107.081.116.03,0,.076.009.1.009s.017.006.017.012-.011.016-.035.016c-.115,0-.248-.006-.258-.006s-.142.006-.206.006c-.023,0-.033,0-.033-.016s0-.012.016-.012a.351.351,0,0,0,.063-.009c.043-.009.053-.055.061-.116.01-.088.01-.254.01-.455v-.37c0-.329,0-.387,0-.454s-.024-.108-.071-.119a.284.284,0,0,0-.065-.008c-.008,0-.016,0-.016-.012s.01-.017.033-.017c.07,0,.2.006.212.006s.143-.006.206-.006c.023,0,.033,0,.033.017s-.008.012-.016.012a.273.273,0,0,0-.053.007c-.057.009-.074.045-.077.12s0,.125,0,.454Z" fill="#222221"/>
    <path id="Path_143" data-name="Path 143" d="M289.739,448.045c.01,0,.01,0,.009-.013l-.2-.567c-.009-.031-.021-.031-.03,0l-.186.567c0,.01,0,.013.006.013Zm-.219-.84c.025-.068.034-.081.046-.081s.021.012.046.075c.032.079.363.948.49,1.268.077.187.136.221.181.233a.272.272,0,0,0,.085.014c.011,0,.02,0,.02.012s-.017.016-.041.016-.185,0-.329,0c-.041,0-.064,0-.064-.014s.006-.013.014-.016.025-.023.013-.057l-.2-.516c-.005-.008-.009-.014-.018-.014h-.453c-.009,0-.016.009-.021.019l-.126.372a.4.4,0,0,0-.028.139c0,.042.044.063.077.063h.023c.014,0,.02,0,.02.012s-.011.016-.032.016c-.049,0-.14-.006-.163-.006s-.139.006-.236.006c-.028,0-.04,0-.04-.016s.007-.012.018-.012a.5.5,0,0,0,.062-.006c.1-.012.137-.092.175-.2Z" fill="#222221"/>
    <path id="Path_144" data-name="Path 144" d="M291.412,448.137c0,.309.007.444.045.481s.088.048.252.048c.111,0,.2,0,.255-.062a.29.29,0,0,0,.055-.126c0-.017.006-.027.018-.027s.013.008.013.031a1.434,1.434,0,0,1-.031.21c-.015.048-.021.056-.132.056-.152,0-.262,0-.35-.006s-.154-.006-.215-.006c-.007,0-.043,0-.086,0s-.088,0-.119,0-.034,0-.034-.015,0-.014.017-.014a.337.337,0,0,0,.063-.008c.042-.009.052-.054.06-.117a4.448,4.448,0,0,0,.012-.455v-.369c0-.329,0-.388,0-.454s-.022-.105-.092-.12a.32.32,0,0,0-.07-.006c-.009,0-.018,0-.018-.014s.011-.016.034-.016c.1,0,.228.006.237.006s.165-.006.227-.006c.025,0,.035,0,.035.016s-.008.014-.017.014a.412.412,0,0,0-.071.006c-.06.009-.077.045-.08.12s0,.125,0,.454Z" fill="#222221"/>
    <path id="Path_145" data-name="Path 145" d="M294.422,447.945a.032.032,0,0,0,.015.027.623.623,0,0,0,.22.032.272.272,0,0,0,.159-.04.382.382,0,0,0,.127-.322c0-.264-.139-.42-.363-.42a.9.9,0,0,0-.141.01.029.029,0,0,0-.017.028Zm-.169-.181c0-.329,0-.388,0-.454s-.02-.105-.089-.12a.351.351,0,0,0-.072-.007c-.009,0-.017,0-.017-.013s.01-.016.034-.016c.094,0,.227.006.238.006s.182-.006.247-.006a.642.642,0,0,1,.384.091.371.371,0,0,1,.145.286.65.65,0,0,1-.254.488c.173.219.316.407.437.537a.436.436,0,0,0,.257.15.452.452,0,0,0,.082.007c.01,0,.019.007.019.013s-.012.016-.05.016h-.151a.423.423,0,0,1-.224-.04,1.067,1.067,0,0,1-.283-.309c-.089-.116-.187-.255-.229-.311a.035.035,0,0,0-.028-.012l-.258-.005c-.011,0-.015.007-.015.017v.052c0,.2,0,.366.011.454.006.062.019.108.082.117a.932.932,0,0,0,.094.008c.013,0,.017.007.017.013s-.011.016-.034.016c-.116,0-.248-.006-.258-.006s-.135.006-.2.006c-.022,0-.033,0-.033-.016s0-.013.016-.013a.337.337,0,0,0,.063-.008c.043-.009.052-.055.06-.117.011-.088.011-.253.011-.454Z" fill="#222221"/>
    <path id="Path_146" data-name="Path 146" d="M296.384,447.764c0-.329,0-.388,0-.454s-.02-.105-.09-.12a.329.329,0,0,0-.071-.007c-.008,0-.017,0-.017-.013s.01-.016.033-.016h.152l.085.005c.015,0,.434,0,.482,0a.6.6,0,0,0,.091-.01c.009,0,.018-.01.028-.01s.009.009.009.018-.011.04-.017.1c0,.022-.006.114-.011.141,0,.009-.006.022-.014.022s-.017-.01-.017-.026a.21.21,0,0,0-.012-.077c-.015-.034-.036-.06-.149-.071-.036,0-.265-.007-.289-.007-.007,0-.012.007-.012.021v.581c0,.015,0,.021.012.021.028,0,.287,0,.335-.005s.08-.007.1-.03.025-.026.032-.026.01,0,.01.017-.01.048-.016.117c0,.044-.009.12-.009.134s0,.04-.015.04-.014-.007-.014-.018a.207.207,0,0,0-.008-.068c-.009-.031-.028-.067-.109-.075-.057-.006-.266-.01-.3-.01a.013.013,0,0,0-.015.013v.187c0,.07,0,.314,0,.358.006.147.038.172.244.172a.627.627,0,0,0,.2-.022c.055-.024.08-.065.1-.152,0-.023.009-.032.019-.032s.013.018.013.032-.018.16-.028.2-.032.055-.113.055c-.158,0-.274,0-.354-.006s-.134-.006-.166-.006l-.084,0c-.042,0-.09,0-.121,0s-.034,0-.034-.016.005-.013.018-.013a.349.349,0,0,0,.062-.008c.041-.009.052-.055.061-.117.01-.088.01-.253.01-.454Z" fill="#222221"/>
    <path id="Path_147" data-name="Path 147" d="M298.734,448.045c.01,0,.01,0,.008-.013l-.2-.567c-.011-.031-.02-.031-.032,0l-.185.567c0,.01,0,.013.006.013Zm-.219-.84c.025-.068.033-.081.046-.081s.021.012.046.075c.032.079.362.948.489,1.268.076.187.138.221.181.233a.27.27,0,0,0,.084.014c.013,0,.022,0,.022.012s-.02.016-.042.016-.187,0-.33,0c-.04,0-.064,0-.064-.014s.007-.013.015-.016.025-.023.012-.057l-.2-.516c0-.008-.008-.014-.018-.014h-.452a.024.024,0,0,0-.021.019l-.126.372a.406.406,0,0,0-.03.139c0,.042.044.063.079.063h.022c.015,0,.021,0,.021.012s-.012.016-.031.016c-.052,0-.141-.006-.165-.006s-.138.006-.237.006c-.027,0-.039,0-.039-.016s.007-.012.018-.012a.5.5,0,0,0,.062-.006c.1-.012.137-.092.176-.2Z" fill="#222221"/>
    <path id="Path_148" data-name="Path 148" d="M300.4,448.137c0,.309.009.444.047.481s.089.048.253.048c.11,0,.2,0,.254-.062a.3.3,0,0,0,.053-.126c0-.017.008-.027.019-.027s.014.008.014.031a1.357,1.357,0,0,1-.033.21c-.014.048-.021.056-.131.056-.152,0-.26,0-.35-.006s-.154-.006-.214-.006l-.086,0c-.042,0-.087,0-.122,0s-.032,0-.032-.015.005-.014.017-.014a.327.327,0,0,0,.063-.008c.042-.009.052-.054.062-.117.01-.088.01-.253.01-.455v-.369c0-.329,0-.388,0-.454s-.02-.105-.09-.12a.339.339,0,0,0-.072-.006c-.008,0-.018,0-.018-.014s.01-.016.035-.016c.094,0,.227.006.237.006s.163-.006.228-.006c.022,0,.032,0,.032.016s-.008.014-.017.014a.392.392,0,0,0-.069.006c-.061.009-.077.045-.082.12s0,.125,0,.454Z" fill="#222221"/>
    <path id="Path_149" data-name="Path 149" d="M303.247,447.764c0-.329,0-.388,0-.454s-.02-.105-.089-.12a.335.335,0,0,0-.073-.007c-.007,0-.016,0-.016-.013s.011-.016.035-.016h.15l.086.005c.014,0,.433,0,.482,0a.6.6,0,0,0,.09-.01c.012,0,.02-.01.029-.01s.009.009.009.018-.01.04-.016.1c0,.022-.008.114-.01.141,0,.009-.008.022-.016.022s-.017-.01-.017-.026a.234.234,0,0,0-.012-.077c-.016-.034-.037-.06-.148-.071-.038,0-.268-.007-.29-.007s-.013.007-.013.021v.581c0,.015,0,.021.013.021.028,0,.286,0,.335-.005s.08-.007.1-.03.025-.026.033-.026.01,0,.01.017-.01.048-.018.117c0,.044-.007.12-.007.134s0,.04-.015.04-.015-.007-.015-.018a.235.235,0,0,0-.007-.068c-.01-.031-.028-.067-.11-.075-.056-.006-.265-.01-.3-.01a.014.014,0,0,0-.015.013v.545c.008.147.039.172.244.172a.624.624,0,0,0,.2-.022c.057-.024.081-.065.1-.152,0-.023.008-.032.019-.032s.012.018.012.032-.018.16-.027.2-.032.055-.114.055c-.159,0-.274,0-.355-.006s-.132-.006-.164-.006l-.084,0c-.041,0-.09,0-.121,0s-.033,0-.033-.016a.013.013,0,0,1,.015-.013.317.317,0,0,0,.063-.008c.043-.009.053-.055.061-.117.01-.088.01-.253.01-.454Z" fill="#222221"/>
    <path id="Path_150" data-name="Path 150" d="M304.941,448.715c-.031-.015-.031-.023-.031-.079,0-.106.01-.19.01-.222s.008-.035.017-.035.016.006.016.022a.392.392,0,0,0,.006.079.283.283,0,0,0,.31.213.279.279,0,0,0,.3-.278c0-.144-.061-.229-.242-.379l-.1-.077c-.221-.183-.274-.313-.274-.457a.386.386,0,0,1,.436-.378.7.7,0,0,1,.2.023.413.413,0,0,0,.073.009c.018,0,.021,0,.021.014s-.007.08-.007.224c0,.033-.006.048-.016.048s-.015-.01-.017-.027a.35.35,0,0,0-.026-.105c-.014-.024-.07-.112-.263-.112a.239.239,0,0,0-.259.244c0,.119.054.2.255.352l.06.046c.248.2.307.327.307.495a.438.438,0,0,1-.178.349.559.559,0,0,1-.318.088.636.636,0,0,1-.282-.057" fill="#222221"/>
    <path id="Path_151" data-name="Path 151" d="M307.268,448.134c0,.2,0,.367.009.455.007.061.022.107.083.116.031,0,.075.009.094.009s.019.006.019.012-.012.016-.036.016c-.116,0-.248-.006-.259-.006s-.142.006-.205.006c-.023,0-.034,0-.034-.016s0-.012.017-.012a.362.362,0,0,0,.064-.009c.041-.009.052-.055.06-.116a4.446,4.446,0,0,0,.012-.455v-.89l-.313.006c-.13,0-.179.015-.214.065a.309.309,0,0,0-.035.066c-.005.016-.012.02-.022.02s-.01-.005-.01-.018.041-.2.047-.219.012-.039.02-.039a.351.351,0,0,0,.093.023c.061.007.141.012.166.012h.788a.768.768,0,0,0,.15-.012c.031,0,.049-.009.058-.009s.011.011.011.025c0,.064-.007.208-.007.232s-.006.027-.014.027-.015-.007-.017-.036v-.024c-.009-.061-.059-.111-.262-.113l-.263-.006Z" fill="#222221"/>
    <path id="Path_152" data-name="Path 152" d="M309.244,448.045c.01,0,.01,0,.008-.013l-.2-.567c-.012-.031-.023-.031-.034,0l-.185.567c-.005.01,0,.013.008.013Zm-.219-.84c.026-.068.035-.081.048-.081s.02.012.045.075c.032.079.362.948.489,1.268.077.187.138.221.182.233a.265.265,0,0,0,.083.014c.013,0,.022,0,.022.012s-.019.016-.041.016-.186,0-.332,0c-.039,0-.061,0-.061-.014a.018.018,0,0,1,.013-.016c.013,0,.026-.023.013-.057l-.2-.516a.018.018,0,0,0-.019-.014h-.451c-.011,0-.015.009-.021.019l-.126.372a.38.38,0,0,0-.029.139c0,.042.043.063.081.063h.02c.015,0,.021,0,.021.012s-.014.016-.032.016c-.05,0-.142-.006-.164-.006s-.138.006-.238.006c-.027,0-.039,0-.039-.016s.008-.012.017-.012a.45.45,0,0,0,.062-.006c.1-.012.139-.092.176-.2Z" fill="#222221"/>
    <path id="Path_153" data-name="Path 153" d="M311.041,448.134c0,.2,0,.367.01.455.008.061.019.107.082.116.031,0,.077.009.1.009s.016.006.016.012-.01.016-.033.016c-.115,0-.248-.006-.258-.006s-.144.006-.207.006c-.022,0-.033,0-.033-.016s0-.012.017-.012a.376.376,0,0,0,.064-.009c.042-.009.051-.055.059-.116.01-.088.01-.254.01-.455v-.89l-.31.006c-.13,0-.182.015-.214.065a.267.267,0,0,0-.035.066c-.006.016-.013.02-.021.02s-.012-.005-.012-.018.041-.2.047-.219.012-.039.021-.039a.316.316,0,0,0,.092.023c.061.007.141.012.167.012h.788a.749.749,0,0,0,.149-.012c.031,0,.051-.009.058-.009s.012.011.012.025c0,.064-.007.208-.007.232s-.006.027-.015.027-.015-.007-.017-.036v-.024c-.008-.061-.058-.111-.261-.113l-.264-.006Z" fill="#222221"/>
    <path id="Path_154" data-name="Path 154" d="M312.59,447.764c0-.329,0-.388,0-.454s-.023-.105-.091-.12a.335.335,0,0,0-.071-.007c-.008,0-.017,0-.017-.013s.009-.016.032-.016h.153l.086.005c.013,0,.431,0,.481,0a.62.62,0,0,0,.091-.01c.01,0,.018-.01.028-.01s.008.009.008.018-.01.04-.015.1c0,.022-.007.114-.011.141,0,.009-.006.022-.016.022s-.016-.01-.016-.026a.214.214,0,0,0-.013-.077c-.014-.034-.035-.06-.149-.071-.036,0-.265-.007-.288-.007s-.012.007-.012.021v.581c0,.015,0,.021.012.021.029,0,.285,0,.335-.005s.079-.007.1-.03.022-.026.031-.026.012,0,.012.017-.012.048-.018.117c0,.044-.008.12-.008.134s0,.04-.015.04-.014-.007-.014-.018a.185.185,0,0,0-.009-.068c-.008-.031-.028-.067-.108-.075-.057-.006-.266-.01-.3-.01a.012.012,0,0,0-.013.013v.187c0,.07,0,.314,0,.358.006.147.039.172.244.172a.63.63,0,0,0,.2-.022c.055-.024.08-.065.094-.152.005-.023.008-.032.02-.032s.013.018.013.032a1.826,1.826,0,0,1-.028.2c-.015.055-.032.055-.113.055-.158,0-.273,0-.355-.006s-.133-.006-.164-.006l-.084,0c-.043,0-.09,0-.123,0s-.033,0-.033-.016,0-.013.016-.013a.318.318,0,0,0,.064-.008c.041-.009.052-.055.059-.117.011-.088.011-.253.011-.454Z" fill="#222221"/>
    <path id="Path_155" data-name="Path 155" d="M316.169,448.045c.011,0,.011,0,.009-.013l-.2-.567c-.01-.031-.02-.031-.033,0l-.184.567c0,.01,0,.013.007.013Zm-.218-.84c.025-.068.033-.081.045-.081s.023.012.047.075c.031.079.361.948.49,1.268.076.187.137.221.181.233a.267.267,0,0,0,.085.014c.011,0,.019,0,.019.012s-.017.016-.041.016-.185,0-.33,0c-.041,0-.063,0-.063-.014s.005-.013.014-.016.026-.023.014-.057l-.2-.516a.018.018,0,0,0-.018-.014h-.453c-.01,0-.016.009-.02.019l-.126.372a.406.406,0,0,0-.03.139c0,.042.045.063.08.063h.021c.015,0,.022,0,.022.012s-.013.016-.033.016c-.049,0-.14-.006-.164-.006s-.139.006-.237.006c-.027,0-.04,0-.04-.016s.009-.012.019-.012a.421.421,0,0,0,.061-.006c.1-.012.138-.092.177-.2Z" fill="#222221"/>
    <path id="Path_156" data-name="Path 156" d="M317.842,447.989c0,.224,0,.417,0,.457a.448.448,0,0,0,.023.16c.027.041.109.084.358.084a.708.708,0,0,0,.5-.2.733.733,0,0,0,.167-.5.751.751,0,0,0-.2-.528.857.857,0,0,0-.687-.237.663.663,0,0,0-.137.012.045.045,0,0,0-.025.043c0,.073,0,.287,0,.448Zm-.178-.225c0-.329,0-.388,0-.454s-.019-.105-.09-.12a.332.332,0,0,0-.072-.007c-.008,0-.016,0-.016-.013s.011-.016.034-.016c.094,0,.227.006.238.006s.157-.006.283-.006a1.113,1.113,0,0,1,.842.24.748.748,0,0,1,.2.534.851.851,0,0,1-.228.592.825.825,0,0,1-.634.242c-.092,0-.2-.008-.293-.014l-.174-.012-.084,0c-.043,0-.091,0-.123,0s-.033,0-.033-.016,0-.013.016-.013a.347.347,0,0,0,.064-.008c.041-.009.052-.055.06-.117.01-.088.01-.253.01-.454Z" fill="#222221"/>
    <path id="Path_157" data-name="Path 157" d="M320.594,448.485c.123-.28.4-1.015.449-1.167a.239.239,0,0,0,.02-.08.055.055,0,0,0-.027-.048.314.314,0,0,0-.08-.007c-.014,0-.024,0-.024-.012s.013-.018.047-.018c.084,0,.181.008.2.008s.1-.008.164-.008c.024,0,.037,0,.037.015s-.008.015-.026.015a.194.194,0,0,0-.1.025c-.027.02-.059.054-.115.2-.023.06-.129.312-.236.57-.128.308-.223.534-.27.636-.06.127-.068.161-.09.161s-.035-.029-.074-.13l-.516-1.289c-.046-.118-.078-.139-.152-.163a.371.371,0,0,0-.078-.007c-.014,0-.016-.006-.016-.015s.019-.015.053-.015c.1,0,.22.008.246.008s.115-.008.195-.008q.057,0,.057.015c0,.012-.006.015-.022.015a.225.225,0,0,0-.079.011.042.042,0,0,0-.028.041.854.854,0,0,0,.057.176Z" fill="#222221"/>
    <path id="Path_158" data-name="Path 158" d="M322.42,448.134a4.458,4.458,0,0,0,.012.455c0,.061.016.107.08.116.031,0,.076.009.1.009s.016.006.016.012-.01.016-.033.016c-.115,0-.248-.006-.259-.006s-.143.006-.206.006c-.023,0-.031,0-.031-.016s0-.012.013-.012a.326.326,0,0,0,.065-.009c.041-.009.053-.055.06-.116.01-.088.01-.254.01-.455v-.37c0-.329,0-.387,0-.454s-.026-.108-.071-.119a.306.306,0,0,0-.066-.008c-.008,0-.018,0-.018-.012s.012-.017.035-.017c.069,0,.2.006.212.006s.144-.006.207-.006c.022,0,.033,0,.033.017s-.01.012-.018.012a.24.24,0,0,0-.051.007c-.057.009-.074.045-.078.12s0,.125,0,.454Z" fill="#222221"/>
    <path id="Path_159" data-name="Path 159" d="M323.58,448.715c-.03-.015-.032-.023-.032-.079a2.021,2.021,0,0,1,.011-.222c0-.024.005-.035.016-.035s.015.006.015.022a.392.392,0,0,0,.006.079.284.284,0,0,0,.311.213.28.28,0,0,0,.3-.278c0-.144-.062-.229-.243-.379l-.094-.077c-.223-.183-.273-.313-.273-.457a.385.385,0,0,1,.435-.378.693.693,0,0,1,.2.023.431.431,0,0,0,.074.009c.016,0,.02,0,.02.014s-.008.08-.008.224c0,.033,0,.048-.014.048s-.015-.01-.018-.027a.386.386,0,0,0-.026-.105c-.013-.024-.069-.112-.264-.112a.238.238,0,0,0-.258.244c0,.119.054.2.256.352l.06.046c.247.2.307.327.307.495a.439.439,0,0,1-.179.349.548.548,0,0,1-.317.088.632.632,0,0,1-.281-.057" fill="#222221"/>
    <path id="Path_160" data-name="Path 160" d="M326.09,448.691c.19,0,.58-.106.58-.719,0-.5-.307-.777-.64-.777a.606.606,0,0,0-.613.693.715.715,0,0,0,.673.8m-.045-1.567a.766.766,0,0,1,.827.787.825.825,0,0,1-.84.861.787.787,0,0,1-.813-.827.813.813,0,0,1,.826-.821" fill="#222221"/>
    <path id="Path_161" data-name="Path 161" d="M328.03,447.945a.033.033,0,0,0,.014.027.654.654,0,0,0,.224.032.27.27,0,0,0,.156-.04.379.379,0,0,0,.129-.322c0-.264-.139-.42-.364-.42a.94.94,0,0,0-.142.01.029.029,0,0,0-.017.028Zm-.168-.181c0-.329,0-.388,0-.454s-.021-.105-.09-.12a.335.335,0,0,0-.073-.007c-.009,0-.016,0-.016-.013s.011-.016.033-.016c.1,0,.228.006.238.006s.184-.006.248-.006a.642.642,0,0,1,.384.091.374.374,0,0,1,.145.286.648.648,0,0,1-.253.488c.171.219.315.407.437.537a.432.432,0,0,0,.256.15.455.455,0,0,0,.083.007c.011,0,.018.007.018.013s-.013.016-.05.016h-.15a.414.414,0,0,1-.223-.04,1.054,1.054,0,0,1-.286-.309c-.087-.116-.187-.255-.229-.311a.034.034,0,0,0-.026-.012l-.261-.005c-.01,0-.014.007-.014.017v.052a4.436,4.436,0,0,0,.012.454c.005.062.018.108.081.117.03,0,.076.008.094.008s.018.007.018.013-.01.016-.035.016c-.114,0-.247-.006-.257-.006s-.134.006-.2.006c-.022,0-.034,0-.034-.016s.006-.013.017-.013a.347.347,0,0,0,.064-.008c.042-.009.052-.055.06-.117.01-.088.01-.253.01-.454Z" fill="#222221"/>
    <path id="Path_162" data-name="Path 162" d="M329.837,448.715c-.027-.015-.032-.023-.032-.079,0-.106.009-.19.011-.222s.006-.035.018-.035.015.006.015.022a.586.586,0,0,0,0,.079.288.288,0,0,0,.313.213.282.282,0,0,0,.3-.278c0-.144-.061-.229-.242-.379l-.094-.077c-.225-.183-.274-.313-.274-.457a.385.385,0,0,1,.436-.378.678.678,0,0,1,.193.023.442.442,0,0,0,.074.009c.016,0,.02,0,.02.014s-.008.08-.008.224c0,.033,0,.048-.013.048s-.015-.01-.017-.027a.355.355,0,0,0-.028-.105c-.012-.024-.069-.112-.262-.112a.238.238,0,0,0-.26.244c0,.119.057.2.259.352l.058.046c.248.2.306.327.306.495a.441.441,0,0,1-.178.349.551.551,0,0,1-.318.088.642.642,0,0,1-.282-.057" fill="#222221"/>
    <rect id="Rectangle_25" data-name="Rectangle 25" width="8.576" height="0.316" transform="translate(321.693 442.401)" fill="#222221"/>
    <path id="Path_163" data-name="Path 163" d="M294.765,406.188a3.527,3.527,0,0,1,2.2-1.309c-3.265-1.783-4.194-.059-4.194-.059,2.224-1.505,1.993,1.368,1.993,1.368" fill="#222221"/>
    <path id="Path_164" data-name="Path 164" d="M295.008,403.129a1.924,1.924,0,0,1-.706.694,6.72,6.72,0,0,1,4.113,1.579c-1.785-4.353-3.256-2.642-3.407-2.273" fill="#222221"/>
    <path id="Path_165" data-name="Path 165" d="M295.923,406a6.457,6.457,0,0,1-1.252,1.668,2.763,2.763,0,0,0-.787,2.271,3.66,3.66,0,0,1,.787-1.808A6.067,6.067,0,0,0,295.923,406" fill="#222221"/>
    <path id="Path_166" data-name="Path 166" d="M295.245,409.777v.071c.827-.311,1.267-.048,1.5.307a.565.565,0,0,1-.824-.178c-.348-.546-.468.988.912.33a2.009,2.009,0,0,1,.183.721.272.272,0,0,1,.225-.128,5.807,5.807,0,0,1,.452,1.45c-.47-4.241-2.45-2.573-2.45-2.573" fill="#222221"/>
    <path id="Path_167" data-name="Path 167" d="M296.266,415.777v-2.062c.6-.556.444-1.842.444-1.842-.211,1.354-.6,1.519-.6,1.519a3.188,3.188,0,0,0-.649-1.042,2.211,2.211,0,0,1-.886-1.947,2.427,2.427,0,0,0,.469,1.947,2.411,2.411,0,0,1,.881,1.433c-.191,3.321.8,3.013.8,3.013-.353-.254-.462-1.019-.462-1.019" fill="#222221"/>
    <path id="Path_168" data-name="Path 168" d="M294.573,410.4c0-.028.006-.048.006-.048s0,.018-.006.048" fill="#222221"/>
    <path id="Path_169" data-name="Path 169" d="M294.209,406.95s-.07-2.361-1.158-1.25c0,0,.857-.346.948.927,0,0-.508-.787-.948.232,0,0,.532-.58.671.091,0,0-.927-.577-.463,1.553a3.185,3.185,0,0,1,.95-1.553" fill="#222221"/>
    <path id="Path_170" data-name="Path 170" d="M297.509,414.529a.945.945,0,0,1-.034-.259.36.36,0,0,0,.034.259" fill="#222221"/>
    <path id="Path_171" data-name="Path 171" d="M301.5,404.872a3.6,3.6,0,0,1,2.234,1.316s-.232-2.873,1.993-1.368c0,0-.959-1.732-4.227.052" fill="#222221"/>
    <path id="Path_172" data-name="Path 172" d="M300.1,405.354a6.753,6.753,0,0,1,4.1-1.531,1.917,1.917,0,0,1-.705-.694c-.151-.369-1.61-2.13-3.393,2.225" fill="#222221"/>
    <path id="Path_173" data-name="Path 173" d="M299.23,406.95h.039c.958-3.669,2.352-4.485,2.352-4.485a8.393,8.393,0,0,0-4.743,0s1.465.843,2.352,4.485" fill="#222221"/>
    <path id="Path_174" data-name="Path 174" d="M302.576,406a6.051,6.051,0,0,0,1.252,2.131,3.66,3.66,0,0,1,.787,1.808,2.767,2.767,0,0,0-.787-2.271A6.458,6.458,0,0,1,302.576,406" fill="#222221"/>
    <path id="Path_175" data-name="Path 175" d="M302.576,409.976a.566.566,0,0,1-.826.179c.236-.355.676-.618,1.5-.308v-.07s-1.98-1.668-2.449,2.572a5.759,5.759,0,0,1,.452-1.449.267.267,0,0,1,.224.129,2.038,2.038,0,0,1,.184-.723c1.379.659,1.259-.876.912-.33" fill="#222221"/>
    <path id="Path_176" data-name="Path 176" d="M303.926,410.4c0-.03-.007-.048-.007-.048l.007.048" fill="#222221"/>
    <path id="Path_177" data-name="Path 177" d="M303.038,412.35a3.183,3.183,0,0,0-.647,1.042s-.392-.165-.6-1.519c0,0-.151,1.286.446,1.842v2.062s-.11.765-.463,1.019c0,0,1,.308.8-3.013a2.411,2.411,0,0,1,.881-1.433,2.426,2.426,0,0,0,.468-1.947,2.21,2.21,0,0,1-.887,1.947" fill="#222221"/>
    <path id="Path_178" data-name="Path 178" d="M305.448,405.7c-1.089-1.111-1.158,1.25-1.158,1.25a3.2,3.2,0,0,1,.95,1.553c.463-2.13-.464-1.553-.464-1.553.139-.671.672-.091.672-.091-.44-1.019-.95-.232-.95-.232.094-1.273.95-.927.95-.927" fill="#222221"/>
    <path id="Path_179" data-name="Path 179" d="M300.688,414.85s.216-.021.3-.32c-.062.107-.207.2-.531.2h-.418a.57.57,0,0,1-.656-.034h-.271a.564.564,0,0,1-.653.034h-.417c-.325,0-.47-.1-.533-.2.084.3.3.32.3.32l.094.154a1.021,1.021,0,0,0,.635.772c.581.163.673,0,.673.927,0,0-.256.811-1.647.811a1.762,1.762,0,0,0,1.275-.184h.816a1.756,1.756,0,0,0,1.273.184c-1.389,0-1.643-.811-1.643-.811,0-.927.092-.764.672-.927a1.018,1.018,0,0,0,.633-.772Z" fill="#222221"/>
    <path id="Path_180" data-name="Path 180" d="M301.023,414.271a.885.885,0,0,1-.035.259.357.357,0,0,0,.035-.259" fill="#222221"/>
    <path id="Path_181" data-name="Path 181" d="M299.935,419.552s-.173.067-.313-.185a.375.375,0,0,1-.746,0c-.139.252-.314.185-.314.185a2.067,2.067,0,0,1-1.2-1.76,2.331,2.331,0,0,0,1.051,2.445c.309.334.327.153.327.153l.173-.242a.394.394,0,0,1,.336-.138h.006a.394.394,0,0,1,.336.138l.174.242s.017.181.326-.153a2.332,2.332,0,0,0,1.051-2.445,2.067,2.067,0,0,1-1.2,1.76" fill="#222221"/>
    <path id="Path_182" data-name="Path 182" d="M307.684,410.158a5.536,5.536,0,0,1-.961-1.167,8.754,8.754,0,0,1-.788-3.221,15.123,15.123,0,0,1-.488,3.15,2.1,2.1,0,0,1,1.136,1.785c.151.086.995.761,1.1.847v.556c-.114-.1-1.633-1.35-2.237-1.753,0,0,.858,2.132.28,3.43a5.986,5.986,0,0,1,1.957,1.973v.333a10.365,10.365,0,0,0-2.538-2.027,7.282,7.282,0,0,1,0,3.009,15.407,15.407,0,0,1,1.245,4.963l-.375.2c-.438-4.754-2.213-5.432-2.213-5.432-.092,2.556-.942,3.282-.942,3.282a6.276,6.276,0,0,1,.444,3.573l-.319.167a16.574,16.574,0,0,0-.85-4.689,3.444,3.444,0,0,1-1.506,2.594,13.972,13.972,0,0,1,.258,3.2l-.422.22c.04-.584.165-3.047-.6-3.047-.346,0-.526.5-.616,1.163-.089-.66-.27-1.163-.616-1.163-.766,0-.641,2.463-.6,3.047l-.421-.22a13.857,13.857,0,0,1,.257-3.2,3.45,3.45,0,0,1-1.506-2.594,16.532,16.532,0,0,0-.85,4.689l-.321-.167a6.311,6.311,0,0,1,.444-3.573s-.847-.726-.941-3.282c0,0-1.776.678-2.212,5.432l-.375-.2a15.393,15.393,0,0,1,1.244-4.963,7.3,7.3,0,0,1,0-3.009,10.406,10.406,0,0,0-2.538,2.027v-.333a5.973,5.973,0,0,1,1.959-1.973c-.58-1.3.278-3.43.278-3.43-.6.4-2.122,1.658-2.237,1.753v-.556c.107-.086.949-.761,1.1-.847a2.1,2.1,0,0,1,1.135-1.785,15.084,15.084,0,0,1-.487-3.15,8.8,8.8,0,0,1-.788,3.221,5.518,5.518,0,0,1-.962,1.167v-9.852h16.87ZM289.708,399.2v22.827l9.541,5.013,9.541-5.013V399.2Z" fill="#222221"/>
  </g>
</svg>
