<svg xmlns="http://www.w3.org/2000/svg" width="44.983" height="11.893" viewBox="0 0 44.983 11.893">
  <g id="qarta" transform="translate(-391.607 -487.584)">
    <path id="Path_200" data-name="Path 200" d="M396.275,496.46c-1.888,0-3.078-1.452-3.078-3.757s1.176-3.742,3.067-3.742,3.078,1.451,3.078,3.756-1.176,3.743-3.067,3.743m0-8.876c-2.828,0-4.668,2.053-4.668,5.133,0,2.791,1.528,4.744,3.918,5.069v1.691h1.514v-1.691c2.377-.351,3.879-2.278,3.879-5.083,0-3.079-1.826-5.119-4.643-5.119" fill="#222221"/>
    <path id="Path_201" data-name="Path 201" d="M428.1,487.809h-8v1.365h3.254v8.463H424.9v-8.463h3.2Z" fill="#222221"/>
    <path id="Path_202" data-name="Path 202" d="M430.07,493.768l1.69-4.569,1.675,4.569Zm2.729-5.959h-2.091l-3.8,9.828h1.727l.938-2.517h4.355l.926,2.517h1.74Z" fill="#222221"/>
    <path id="Path_203" data-name="Path 203" d="M417.224,491.965a3.482,3.482,0,0,1-1.978.363h-2.215v-3.18h2.24a3.337,3.337,0,0,1,1.991.375,1.405,1.405,0,0,1,.525,1.216,1.385,1.385,0,0,1-.563,1.226m.362,1.077a2.629,2.629,0,0,0,1.791-2.579c0-1.74-1.215-2.654-3.592-2.654h-4.293v9.828h1.539v-3.969h2.377a2.179,2.179,0,0,1,1.652.437c.74.74.1,2.292.714,3.532h1.789c-1.114-1.666.2-4.044-1.977-4.6" fill="#222221"/>
    <path id="Path_204" data-name="Path 204" d="M404.056,493.768l1.688-4.569,1.678,4.569Zm.637-5.959-3.8,9.828h1.727l.938-2.517h4.355l.926,2.517h1.74l-3.793-9.828Z" fill="#222221"/>
  </g>
</svg>
