<svg xmlns="http://www.w3.org/2000/svg" width="107.368" height="7.839" viewBox="0 0 107.368 7.839">
  <g id="sekyra-group" transform="translate(-328.559 -378.122)">
    <path id="Path_104" data-name="Path 104" d="M435.015,378.552h0Zm-1.089,2.348a.836.836,0,0,1-.075.454,2.034,2.034,0,0,1-.884.1h-3.559v-1.435h3.559a2.006,2.006,0,0,1,.885.106.858.858,0,0,1,.074.453Zm1.089-2.347a5.307,5.307,0,0,0-2.29-.343h-5.251v7.674h1.934v-2.59h3.314a5.4,5.4,0,0,0,2.29-.332,1.819,1.819,0,0,0,.915-1.776v-.859a1.819,1.819,0,0,0-.912-1.774m-10.29,4.466a1.622,1.622,0,0,1-.13.846c-.053.075-.255.248-.976.248h-2.778c-.72,0-.922-.173-.976-.248a1.644,1.644,0,0,1-.129-.846V378.21h-1.968v4.806a2.923,2.923,0,0,0,.832,2.357,2.727,2.727,0,0,0,1.341.528,9.954,9.954,0,0,0,1.26.059h2.066a10.012,10.012,0,0,0,1.268-.059,2.515,2.515,0,0,0,1.345-.537,3.028,3.028,0,0,0,.813-2.393V378.21h-1.968Zm-9.8-.027a1.556,1.556,0,0,1-.135.846c-.062.079-.3.264-1.131.264h-3.062c-.833,0-1.069-.185-1.13-.266-.017-.018-.146-.207-.146-.943v-1.724c0-.738.129-.925.145-.944.049-.062.275-.266,1.131-.266h3.062c.834,0,1.069.186,1.131.266.014.017.135.193.135.844Zm1.119-4.284h0a2.935,2.935,0,0,0-1.428-.515,11.41,11.41,0,0,0-1.354-.06h-2.263a11.924,11.924,0,0,0-1.352.058,2.96,2.96,0,0,0-1.43.517,3.009,3.009,0,0,0-.894,2.5V383a2.847,2.847,0,0,0,.9,2.386,2.7,2.7,0,0,0,1.245.487,10.086,10.086,0,0,0,1.538.087h2.252a11.579,11.579,0,0,0,1.354-.058,2.829,2.829,0,0,0,1.434-.519,2.9,2.9,0,0,0,.89-2.42V381.13a2.9,2.9,0,0,0-.894-2.422M404.6,380.894a.79.79,0,0,1-.076.442,1.979,1.979,0,0,1-.879.111h-3.7v-1.424h3.7a1.889,1.889,0,0,1,.881.114.814.814,0,0,1,.074.44Zm1.084-2.339h0a5.3,5.3,0,0,0-2.3-.344h-5.374v7.674h1.933V383.3h3.56a2.522,2.522,0,0,1,.983.1c.037.02.107.143.107.463v2.017h1.934v-2.178a1.845,1.845,0,0,0-.422-1.245.927.927,0,0,0,.1-.1,1.85,1.85,0,0,0,.384-1.246v-.787a1.828,1.828,0,0,0-.906-1.769m-13.871,4.55h3.465c0,.8-.168.97-1.053.987h-3.2c-.521,0-.889-.093-1.009-.256-.014-.018-.134-.2-.134-.945v-1.743c0-.744.119-.925.132-.943.122-.164.49-.258,1.011-.258h3.231c.623,0,.824.131.871.171a.75.75,0,0,1,.16.4v.06h1.88v-.047a2.12,2.12,0,0,0-.908-1.97,4.986,4.986,0,0,0-2.47-.441h-2.428a10.032,10.032,0,0,0-1.276.06,2.7,2.7,0,0,0-1.362.527,3.09,3.09,0,0,0-.841,2.493v1.786a2.924,2.924,0,0,0,.841,2.364,2.66,2.66,0,0,0,1.362.537,9.925,9.925,0,0,0,1.286.061h2.418a11.065,11.065,0,0,0,1.523-.079,2.4,2.4,0,0,0,1.182-.463,1.948,1.948,0,0,0,.662-1.113,6.6,6.6,0,0,0,.076-1.231v-1.617h-5.416Z" fill="#222221"/>
    <path id="Path_105" data-name="Path 105" d="M360.926,381.145l-2.932-2.935h-4.747s-4.132,2.743-4.213,2.8h-.456v-2.8h-1.957v7.674h1.957v-3.062h.453l4.5,3.062H357l-5.93-3.955c.284-.188,4.627-3.041,4.834-3.178.161.159,3.975,3.954,4.069,4.048v3.085h1.886V382.8c.094-.1,4.616-4.59,4.616-4.59h-2.615s-2.721,2.722-2.936,2.935m18.623,1.62c.228-.383,1.3-2.174,1.515-2.538.177.292,1.317,2.161,1.545,2.538Zm2.363-4.555h-1.74l-4.584,7.674h2.24l.866-1.449h4.755c.087.141.881,1.449.881,1.449h2.176Zm-8.566,2.684c0,.355-.077.5-.123.539a1.877,1.877,0,0,1-.953.135h-3.826V379.9h3.826a1.9,1.9,0,0,1,.953.136c.056.043.123.209.123.539Zm.964-2.339h0a5.31,5.31,0,0,0-2.3-.344h-5.375v7.674h1.935V383.3h3.559a2.56,2.56,0,0,1,.984.1c.036.022.106.146.106.463v2.018h1.933v-2.178a1.841,1.841,0,0,0-.421-1.245,1,1,0,0,0,.1-.1,1.846,1.846,0,0,0,.385-1.247v-.786a1.829,1.829,0,0,0-.9-1.769M338,385.884h7.762v-1.836h-5.838v-1.2h5.6v-1.836h-5.6v-.962h5.838V378.21H338Zm-1.634-4.506s-.042.07-.083.142c.04-.072.082-.142.082-.142a4.508,4.508,0,0,0-2.111-.337h-2.418a2.934,2.934,0,0,1-1.144-.126c-.115-.063-.139-.272-.139-.436,0-.247.053-.367.1-.4a2.53,2.53,0,0,1,1.121-.147h2.3a2.363,2.363,0,0,1,1.019.118c.027.016.1.127.1.434v.032H337.1V380.4a2.106,2.106,0,0,0-.657-1.726,2.417,2.417,0,0,0-1.263-.472,13.631,13.631,0,0,0-1.625-.066h-1.53a5.2,5.2,0,0,0-2.5.446,2.06,2.06,0,0,0-.958,1.939,2.138,2.138,0,0,0,.784,1.85,3.806,3.806,0,0,0,2.206.508h2.847a1.928,1.928,0,0,1,.846.1c.021.013.088.125.088.426s-.065.488-.193.554a3.714,3.714,0,0,1-1.469.164H331.9a3.112,3.112,0,0,1-1.265-.156c-.062-.033-.164-.083-.164-.4v-.21h-1.914v.308a2.017,2.017,0,0,0,.835,1.8,4.1,4.1,0,0,0,2.234.487h2.312a4.559,4.559,0,0,0,2.479-.516,2.237,2.237,0,0,0,.86-1.995,3.516,3.516,0,0,0-.164-1.182,1.652,1.652,0,0,0-.748-.89" fill="#222221"/>
  </g>
</svg>
