<svg xmlns="http://www.w3.org/2000/svg" width="27.807" height="18.432" viewBox="0 0 27.807 18.432">
  <g id="sia" transform="translate(-217.605 -479.48)">
    <path id="Path_188" data-name="Path 188" d="M231.373,479.48a2.248,2.248,0,1,1-2.489,2.232,2.373,2.373,0,0,1,2.489-2.232" fill="#222221"/>
    <rect id="Rectangle_26" data-name="Rectangle 26" width="5.028" height="13.614" transform="translate(228.874 484.298)" fill="#222221"/>
    <path id="Path_189" data-name="Path 189" d="M227.686,489.337V486.27l-.015-.2-.041-.23-.052-.19-.081-.2-.1-.189-.087-.128-.118-.143-.117-.123-.134-.118-.174-.128-.169-.1-.1-.046-.1-.041-.118-.046-.1-.026-.134-.024-.184-.026-.184-.01H219.7l-.246.01-.118.01-.092.017-.061.01-.123.025-.169.057-.133.061-.164.082-.128.092-.067.041-.1.077-.092.087-.082.082-.154.19-.051.081-.051.077-.026.046-.031.061-.025.061-.031.066-.041.112-.01.021,0,.011v0l-.005.021,0,.016-.006.015v.006l0,.016-.005.01v0l0,.016,0,.016v.01l0,.016v.011l-.01.035,0,.036-.006.02-.005.015v.026l0,.01v0l0,.016v.021l0,.01v.031l0,.036v.015l-.005.017v.1l0,.022v4.51h5.34l-.016,6.585h-.6l.036-5.98-4.761-.006v4.583l.01.174,0,.031v.019l.015.1.021.092.02.082.026.092.025.077.006.01,0,.011v0l.005.01,0,.006,0,.01v.011h0v.015h.005l0,.016.006.016.01.021,0,.016,0,.015.01.02,0,.011.011.01v0l.025.052.041.071.026.041.025.036.046.067.113.143.082.092.036.031.046.046.031.031.051.041.077.056.071.051.031.022.061.041.052.024.066.036.067.031.025.01.067.031.1.036.016.01.025,0,.041.016.052.011.03.01.036.01.026,0,.02.006h.026v0l.046.006.082.015.077,0,.087,0h6.149l.179-.01.3-.046.184-.051.2-.082.184-.1.205-.138.154-.133.164-.185.143-.194.113-.205.092-.235.056-.215.041-.374v-6.011h-5.35l-.011-4.757h.6v4.163Z" fill="#222221"/>
    <path id="Path_190" data-name="Path 190" d="M240.731,497.375h-.6v-6.609h.6Zm4.676-11.2-.011-.1,0-.067-.006-.035-.015-.062v-.026l-.005-.01-.011-.051-.021-.072-.05-.159-.057-.133-.091-.179-.073-.113-.112-.147-.1-.109-.158-.142-.117-.093-.128-.092-.128-.066-.1-.052-.23-.082-.21-.051-.1-.015-.123-.016-.194-.005H235.3l-.006,5.33h4.778V485.18h.6l.011,5.043h-5.387V495.9l.011.2.015.107.026.159.041.155.05.132.093.2.062.107.1.149.1.128.129.133.041.035.1.088.184.128.175.1.123.052.138.05.128.036.195.037.164.019h8.238V486.28Z" fill="#222221"/>
  </g>
</svg>
