<?xml version="1.0" encoding="utf-8"?>
<!-- Generator: Adobe Illustrator 15.1.0, SVG Export Plug-In . SVG Version: 6.00 Build 0)  -->
<!DOCTYPE svg PUBLIC "-//W3C//DTD SVG 1.1//EN" "http://www.w3.org/Graphics/SVG/1.1/DTD/svg11.dtd">
<svg version="1.1" id="Vrstva_1" xmlns="http://www.w3.org/2000/svg" xmlns:xlink="http://www.w3.org/1999/xlink" x="0px" y="0px"
	 width="493px" height="144px" viewBox="0 0 493 144" enable-background="new 0 0 493 144" xml:space="preserve">
<g id="Vrstva_1_1_">
	<g>
		<path fill="#3E3E3E" d="M112.195,29.391V16.455l-6.69,12.937h-2.643l-6.492-12.715v12.715h-2.964V9.986h3.211l7.652,15.529
			l7.926-15.529h2.963v19.405H112.195z"/>
		<path fill="#3E3E3E" d="M124.538,9.986v19.405h-2.962V9.986H124.538z"/>
		<path fill="#3E3E3E" d="M150.19,9.986v19.405h-2.396L133.92,14.948v14.443h-2.963V9.986h2.42l13.851,14.468V9.986H150.19z"/>
		<path fill="#3E3E3E" d="M159.57,9.986v19.405h-2.963V9.986H159.57z"/>
		<path fill="#3E3E3E" d="M165.669,24.848c0.864,0.988,2.765,2.074,4.319,2.074c1.804,0,3.11-1.037,3.11-2.814
			c0-3.357-8.098-2.889-8.098-8.814c0-3.456,2.863-5.555,5.679-5.555c1.827,0,3.21,0.667,3.975,1.333v3.777
			c-0.69-1.012-2.173-2.37-3.949-2.37c-1.654,0-2.717,1.111-2.717,2.691c0,3.629,8.173,3.012,8.173,8.813
			c0,3.63-3.036,5.753-6.271,5.753c-1.803,0-3.309-0.691-4.222-1.506L165.669,24.848L165.669,24.848z"/>
		<path fill="#3E3E3E" d="M177.519,9.986h15.604v2.765h-6.32v16.641h-2.963V12.75h-6.32L177.519,9.986L177.519,9.986z"/>
		<path fill="#3E3E3E" d="M205.269,29.391h-9.061V9.986h9.061v2.765h-6.098v5.556h4.32v2.74h-4.32v5.604h6.098V29.391z"/>
		<path fill="#3E3E3E" d="M216.452,21.985c-0.543,0.073-1.11,0.123-1.703,0.123h-1.014v7.283h-2.963V9.986h4.074
			c4.469,0,7.382,1.827,7.382,6.049c0,2.246-1.062,3.9-2.765,4.913l7.678,8.443h-4.173L216.452,21.985z M213.736,19.392h1.137
			c2.566,0,4.173-1.062,4.173-3.407c0-2.246-1.557-3.234-4.1-3.234h-1.21V19.392z"/>
		<path fill="#3E3E3E" d="M228.549,24.848c0.864,0.988,2.765,2.074,4.32,2.074c1.803,0,3.11-1.037,3.11-2.814
			c0-3.357-8.099-2.889-8.099-8.814c0-3.456,2.864-5.555,5.679-5.555c1.827,0,3.209,0.667,3.976,1.333v3.777
			c-0.691-1.012-2.174-2.37-3.95-2.37c-1.654,0-2.716,1.111-2.716,2.691c0,3.629,8.172,3.012,8.172,8.813
			c0,3.63-3.036,5.753-6.271,5.753c-1.803,0-3.309-0.691-4.222-1.506L228.549,24.848L228.549,24.848z"/>
		<path fill="#3E3E3E" d="M240.275,9.986h15.604v2.765h-6.32v16.641h-2.963V12.75h-6.32L240.275,9.986L240.275,9.986z"/>
		<path fill="#3E3E3E" d="M265.531,25.984l5.803-15.998h3.185l-7.53,19.405h-3.109l-7.012-19.405h3.185L265.531,25.984z"/>
		<path fill="#3E3E3E" d="M286.688,9.863c5.703,0.049,9.776,3.678,9.899,9.529c0.1,5.728-3.999,10.271-10.048,10.369
			c-6.89-0.074-9.852-5.357-9.776-9.974C276.738,15.788,279.726,9.887,286.688,9.863z M286.589,27.021
			c4.346-0.074,7.012-3.383,6.938-7.505c-0.1-4.223-2.74-6.889-6.839-6.913c-5.013,0.024-6.864,4.32-6.839,7.185
			C279.775,23.121,281.627,26.971,286.589,27.021z"/>
		<path fill="#3E3E3E" d="M92.444,53.486h12.642v2.197l-8.987,14.468h8.913v2.74H92.419v-2.197l8.862-14.443h-8.838V53.486z"/>
		<path fill="#3E3E3E" d="M117.872,53.486l7.185,19.405h-3.185l-2.296-6.591h-6.519l-2.321,6.591h-3.185l7.431-19.405H117.872z
			 M114.021,63.559h4.592l-2.271-6.543L114.021,63.559z"/>
		<path fill="#3E3E3E" d="M141.572,53.486h2.964v19.405h-2.964v-8.32h-9.851v8.32h-2.962V53.486h2.962v8.345h9.851V53.486z"/>
		<path fill="#3E3E3E" d="M156.632,65.485c-0.543,0.073-1.11,0.123-1.703,0.123h-1.013v7.283h-2.963V53.486h4.073
			c4.47,0,7.383,1.827,7.383,6.049c0,2.246-1.062,3.9-2.766,4.913l7.678,8.442h-4.173L156.632,65.485z M153.916,62.892h1.136
			c2.567,0,4.173-1.062,4.173-3.407c0-2.246-1.556-3.234-4.099-3.234h-1.21V62.892z"/>
		<path fill="#3E3E3E" d="M177.641,53.486l7.186,19.405h-3.186l-2.296-6.591h-6.518l-2.321,6.591h-3.186l7.432-19.405H177.641z
			 M173.789,63.559h4.593l-2.271-6.543L173.789,63.559z"/>
		<path fill="#3E3E3E" d="M207.761,53.486v19.405h-2.396L191.49,58.448v14.442h-2.963V53.486h2.42l13.852,14.468V53.486H207.761z"/>
		<path fill="#3E3E3E" d="M217.141,53.486v19.405h-2.963V53.486H217.141z"/>
		<path fill="#3E3E3E" d="M222.104,63.288c-0.024-4,2.962-10.049,9.925-10.049c2.74,0,4.813,0.766,6.173,1.852v3.506
			c-1.407-1.407-3.137-2.617-6.173-2.617c-5.012,0-6.863,4.444-6.839,7.309c0,3.135,1.827,7.184,6.839,7.184
			c2.593,0,4.789-0.913,6.173-2.222v3.111c-1.531,1.135-3.234,1.852-6.173,1.852c-6.963-0.024-9.925-5.531-9.925-9.901V63.288z
			 M235.88,48.35l-2.643,3.777h-2.592l-2.543-3.777h2.444l1.432,2.148l1.407-2.148H235.88z"/>
		<path fill="#3E3E3E" d="M262.37,53.486v19.405h-2.396L246.1,58.448v14.442h-2.963V53.486h2.42l13.852,14.468V53.486H262.37z"/>
		<path fill="#3E3E3E" d="M275.677,72.891h-2.963v-7.703l-6.396-11.702h3.407l4.643,8.765l4.442-8.765h3.407l-6.542,11.752
			L275.677,72.891L275.677,72.891z M273.8,52.597l-1.58-1.506l3.556-3.679l1.654,1.728L273.8,52.597z"/>
		<path fill="#3E3E3E" d="M285.206,63.288c-0.025-4,2.962-10.049,9.925-10.049c2.74,0,4.812,0.766,6.172,1.852v3.506
			c-1.407-1.407-3.136-2.617-6.172-2.617c-5.012,0-6.864,4.444-6.839,7.309c0,3.135,1.827,7.184,6.839,7.184
			c2.592,0,4.789-0.913,6.172-2.222v3.111c-1.531,1.135-3.234,1.852-6.172,1.852c-6.963-0.024-9.925-5.531-9.925-9.901V63.288z"/>
		<path fill="#3E3E3E" d="M319.053,53.486h2.963v19.405h-2.963v-8.32h-9.851v8.32h-2.963V53.486h2.963v8.345h9.851V53.486z"/>
		<path fill="#3E3E3E" d="M344.26,69.484l5.802-15.998h3.186l-7.53,19.405h-3.11l-7.012-19.405h3.185L344.26,69.484z"/>
		<path fill="#3E3E3E" d="M366.379,72.891h-9.062V53.486h9.062v2.765h-6.099v5.556h4.32v2.74h-4.32v5.604h6.099V72.891z"/>
		<path fill="#3E3E3E" d="M370.428,63.288c-0.025-4,2.962-10.049,9.925-10.049c2.74,0,4.813,0.766,6.172,1.852v3.506
			c-1.406-1.407-3.136-2.617-6.172-2.617c-5.013,0-6.864,4.444-6.839,7.309c0,3.135,1.826,7.184,6.839,7.184
			c2.592,0,4.789-0.913,6.172-2.222v3.111c-1.53,1.135-3.233,1.852-6.172,1.852c-6.963-0.024-9.925-5.531-9.925-9.901V63.288z"/>
		<path fill="#3E3E3E" d="M392.646,52.597l-1.58-1.506l3.556-3.679l1.653,1.728L392.646,52.597z M394.424,53.486v19.405h-2.963
			V53.486H394.424z"/>
		<path fill="#3E3E3E" d="M101.998,82.236l7.185,19.404h-3.185l-2.296-6.593h-6.519l-2.321,6.593h-3.185l7.431-19.404H101.998z
			 M98.146,92.309h4.593l-2.271-6.543L98.146,92.309z"/>
		<path fill="#3E3E3E" d="M130.71,101.641h-9.062V82.236h9.062V85h-6.099v5.557h4.32v2.74h-4.32V98.9h6.099V101.641z"/>
		<path fill="#3E3E3E" d="M138.19,82.236v9.283c0,3.998,1.803,7.801,6.271,7.801c3.703,0,6.246-2.938,6.246-7.777v-9.307h2.963
			v9.283c0,6.295-3.802,10.491-9.209,10.491c-6.419,0-9.233-4.37-9.233-10.469v-9.308h2.962V82.236z"/>
		<path fill="#3E3E3E" d="M164.779,94.234c-0.543,0.074-1.109,0.123-1.702,0.123h-1.014v7.283h-2.962V82.236h4.073
			c4.469,0,7.382,1.826,7.382,6.049c0,2.246-1.062,3.9-2.766,4.912l7.679,8.443h-4.173L164.779,94.234z M162.063,91.643h1.137
			c2.566,0,4.173-1.062,4.173-3.408c0-2.245-1.557-3.233-4.1-3.233h-1.21V91.643z"/>
		<path fill="#3E3E3E" d="M186.406,82.113c5.703,0.049,9.776,3.678,9.899,9.529c0.099,5.727-3.999,10.27-10.048,10.368
			c-6.889-0.073-9.852-5.356-9.776-9.975C176.456,88.037,179.443,82.137,186.406,82.113z M186.307,99.271
			c4.346-0.074,7.012-3.383,6.938-7.506c-0.1-4.224-2.74-6.89-6.838-6.912c-5.013,0.022-6.864,4.319-6.84,7.184
			C179.493,95.371,181.345,99.221,186.307,99.271z M185.245,81.348l-1.58-1.506l3.556-3.68l1.654,1.729L185.245,81.348z"/>
		<path fill="#3E3E3E" d="M204.229,94.357v7.283h-2.962V82.236h4.073c4.469,0,7.382,1.826,7.382,6.049
			c0,3.926-3.309,6.072-7.479,6.072H204.229z M204.229,91.643h1.136c2.567,0,4.174-1.062,4.174-3.408c0-2.245-1.557-3.233-4.1-3.233
			h-1.21V91.643z"/>
		<path fill="#3E3E3E" d="M217.093,97.098c0.864,0.988,2.765,2.074,4.32,2.074c1.803,0,3.109-1.037,3.109-2.814
			c0-3.356-8.098-2.889-8.098-8.813c0-3.455,2.864-5.555,5.679-5.555c1.827,0,3.21,0.668,3.976,1.334V87.1
			c-0.691-1.012-2.174-2.371-3.95-2.371c-1.654,0-2.716,1.111-2.716,2.691c0,3.629,8.172,3.012,8.172,8.814
			c0,3.629-3.036,5.752-6.271,5.752c-1.803,0-3.309-0.691-4.222-1.506L217.093,97.098L217.093,97.098z"/>
		<path fill="#3E3E3E" d="M235.484,82.236v9.555l8.47-9.555h3.949l-8.986,9.752l8.913,9.652h-4l-8.346-9.259v9.259h-2.963V82.236
			H235.484z"/>
		<path fill="#3E3E3E" d="M258.494,101.641h-2.964v-7.703l-6.395-11.701h3.407L257.186,91l4.443-8.764h3.407l-6.542,11.752V101.641
			L258.494,101.641z"/>
		<path fill="#3E3E3E" d="M267.283,92.037c-0.025-4,2.962-10.049,9.925-10.049c2.739,0,4.812,0.766,6.172,1.852v3.506
			c-1.407-1.406-3.136-2.617-6.172-2.617c-5.014,0-6.864,4.445-6.839,7.31c0,3.135,1.825,7.185,6.839,7.185
			c2.592,0,4.789-0.912,6.172-2.222v3.11c-1.531,1.136-3.234,1.853-6.172,1.853c-6.963-0.024-9.925-5.53-9.925-9.899V92.037z"/>
		<path fill="#3E3E3E" d="M301.13,82.236h2.963v19.404h-2.963v-8.32h-9.852v8.32h-2.963V82.236h2.963v8.344h9.852V82.236z"/>
		<path fill="#3E3E3E" d="M317.942,82.236h12.642v2.197L321.596,98.9h8.913v2.74h-12.592v-2.197L326.78,85h-8.838V82.236z"/>
		<path fill="#3E3E3E" d="M343.617,82.236l7.185,19.404h-3.185l-2.297-6.593h-6.518l-2.321,6.593h-3.185l7.431-19.404H343.617z
			 M339.766,92.309h4.593l-2.271-6.543L339.766,92.309z M341.494,81.348l-1.58-1.506l3.556-3.68l1.654,1.729L341.494,81.348z"/>
		<path fill="#3E3E3E" d="M364.503,101.641h-10.245V82.236h2.962V98.9h7.283V101.641z"/>
		<path fill="#3E3E3E" d="M377.316,101.641h-9.061V82.236h9.061V85h-6.098v5.557h4.32v2.74h-4.32V98.9h6.098V101.641z"/>
		<path fill="#3E3E3E" d="M381.365,82.236h12.642v2.197L385.019,98.9h8.913v2.74H381.34v-2.197L390.203,85h-8.839V82.236z
			 M391.413,77.1l-2.643,3.777h-2.593l-2.543-3.777h2.444l1.433,2.148l1.407-2.148H391.413z"/>
		<path fill="#3E3E3E" d="M401.905,82.236v19.404h-2.962V82.236H401.905z"/>
		<path fill="#3E3E3E" d="M405.362,82.236h15.604V85h-6.32v16.641h-2.963V85h-6.32L405.362,82.236L405.362,82.236z"/>
		<path fill="#3E3E3E" d="M432.89,82.113c5.703,0.049,9.776,3.678,9.898,9.529c0.101,5.727-3.999,10.27-10.048,10.368
			c-6.889-0.073-9.851-5.356-9.775-9.975C422.939,88.037,425.927,82.137,432.89,82.113z M432.789,99.271
			c4.347-0.074,7.013-3.383,6.938-7.506c-0.1-4.224-2.741-6.89-6.839-6.912c-5.014,0.022-6.864,4.319-6.839,7.184
			C425.977,95.371,427.827,99.221,432.789,99.271z"/>
		<path fill="#3E3E3E" d="M447.43,97.098c0.864,0.988,2.765,2.074,4.32,2.074c1.803,0,3.11-1.037,3.11-2.814
			c0-3.356-8.099-2.889-8.099-8.813c0-3.455,2.863-5.555,5.679-5.555c1.827,0,3.209,0.668,3.976,1.334V87.1
			c-0.691-1.012-2.174-2.371-3.95-2.371c-1.654,0-2.716,1.111-2.716,2.691c0,3.629,8.172,3.012,8.172,8.814
			c0,3.629-3.036,5.752-6.271,5.752c-1.803,0-3.309-0.691-4.222-1.506L447.43,97.098L447.43,97.098z"/>
		<path fill="#3E3E3E" d="M460.885,82.236h15.604V85h-6.319v16.641h-2.964V85h-6.319L460.885,82.236L460.885,82.236z"/>
		<path fill="#3E3E3E" d="M481.621,81.348l-1.58-1.506l3.557-3.68l1.653,1.729L481.621,81.348z M483.399,82.236v19.404h-2.962
			V82.236H483.399z"/>
		<path fill="#3E3E3E" d="M93.086,125.848c0.864,0.988,2.765,2.074,4.319,2.074c1.804,0,3.111-1.037,3.111-2.814
			c0-3.356-8.099-2.889-8.099-8.813c0-3.455,2.863-5.555,5.679-5.555c1.827,0,3.209,0.668,3.975,1.334v3.776
			c-0.69-1.012-2.173-2.371-3.949-2.371c-1.654,0-2.717,1.111-2.717,2.691c0,3.629,8.173,3.012,8.173,8.814
			c0,3.629-3.036,5.752-6.271,5.752c-1.803,0-3.309-0.691-4.222-1.506L93.086,125.848L93.086,125.848z"/>
		<path fill="#3E3E3E" d="M118.761,130.391h-10.245v-19.404h2.962v16.664h7.283V130.391z"/>
		<path fill="#3E3E3E" d="M130.365,110.863c5.703,0.049,9.776,3.678,9.899,9.529c0.099,5.727-3.999,10.27-10.048,10.368
			c-6.889-0.073-9.852-5.356-9.776-9.975C120.415,116.787,123.402,110.887,130.365,110.863z M130.266,128.021
			c4.346-0.074,7.012-3.383,6.938-7.506c-0.1-4.224-2.74-6.89-6.838-6.912c-5.013,0.022-6.864,4.319-6.84,7.184
			C123.452,124.121,125.304,127.971,130.266,128.021z"/>
		<path fill="#3E3E3E" d="M150.684,126.984l5.802-15.998h3.186l-7.53,19.404h-3.11l-7.012-19.404h3.186L150.684,126.984z"/>
		<path fill="#3E3E3E" d="M172.31,130.391h-9.061v-19.404h9.061v2.765h-6.098v5.558h4.319v2.739h-4.319v5.604h6.098V130.391z"/>
		<path fill="#3E3E3E" d="M196.801,110.986v19.404h-2.396l-13.875-14.443v14.443h-2.962v-19.404h2.419l13.852,14.467v-14.467
			H196.801z"/>
		<path fill="#3E3E3E" d="M202.403,125.848c0.864,0.988,2.766,2.074,4.32,2.074c1.803,0,3.11-1.037,3.11-2.814
			c0-3.356-8.099-2.889-8.099-8.813c0-3.455,2.864-5.555,5.68-5.555c1.827,0,3.21,0.668,3.975,1.334v3.776
			c-0.69-1.012-2.173-2.371-3.95-2.371c-1.653,0-2.716,1.111-2.716,2.691c0,3.629,8.172,3.012,8.172,8.814
			c0,3.629-3.036,5.752-6.271,5.752c-1.804,0-3.31-0.691-4.223-1.506L202.403,125.848L202.403,125.848z"/>
		<path fill="#3E3E3E" d="M220.796,110.986v9.555l8.469-9.555h3.95l-8.987,9.752l8.913,9.652h-4l-8.345-9.259v9.259h-2.962v-19.404
			H220.796z"/>
		<path fill="#3E3E3E" d="M246.101,130.391h-9.061v-19.404h9.061v2.765h-6.098v5.558h4.319v2.739h-4.319v5.604h6.098V130.391z"/>
		<path fill="#3E3E3E" d="M249.434,134.637c1.729-1.479,2.567-3.555,2.592-5.998v-17.652h2.987v17.628
			c0,3.479-1.309,6.295-3.679,8.245L249.434,134.637z"/>
		<path fill="#3E3E3E" d="M275.504,122.984c-0.543,0.074-1.11,0.123-1.703,0.123h-1.013v7.283h-2.962v-19.404h4.072
			c4.47,0,7.382,1.826,7.382,6.049c0,2.246-1.062,3.9-2.766,4.912l7.679,8.443h-4.173L275.504,122.984z M272.788,120.393h1.136
			c2.566,0,4.173-1.062,4.173-3.408c0-2.245-1.556-3.233-4.099-3.233h-1.21V120.393z"/>
		<path fill="#3E3E3E" d="M297.105,130.391h-9.061v-19.404h9.061v2.765h-6.098v5.558h4.32v2.739h-4.32v5.604h6.098V130.391z"/>
		<path fill="#3E3E3E" d="M305.079,123.107v7.283h-2.962v-19.404h4.072c4.47,0,7.382,1.826,7.382,6.049
			c0,3.926-3.309,6.072-7.479,6.072H305.079z M305.079,120.393h1.136c2.566,0,4.173-1.062,4.173-3.408
			c0-2.245-1.556-3.233-4.099-3.233h-1.21V120.393z"/>
		<path fill="#3E3E3E" d="M319.991,110.986v9.283c0,3.998,1.802,7.801,6.271,7.801c3.703,0,6.246-2.938,6.246-7.777v-9.307h2.963
			v9.283c0,6.295-3.802,10.491-9.209,10.491c-6.419,0-9.233-4.37-9.233-10.469v-9.308h2.963V110.986z"/>
		<path fill="#3E3E3E" d="M340.902,130.391v-19.404h2.766c4.345,0,7.652,1.357,7.652,5.283c0,1.926-1.036,3.037-2.839,3.58
			c2.79,0.519,4.643,2.023,4.643,4.863c0,4.766-4.567,5.678-8.543,5.678H340.902z M344.68,119.01c2.296,0,3.629-0.791,3.629-2.592
			c0-2.197-2.173-2.691-4.023-2.691h-0.421v5.283H344.68z M345.05,121.75h-1.187v5.9h1.088c3.086,0,5.086-0.396,5.086-2.89
			C350.037,122.268,347.913,121.75,345.05,121.75z"/>
		<path fill="#3E3E3E" d="M368.305,130.391h-10.246v-19.404h2.963v16.664h7.283V130.391z"/>
		<path fill="#3E3E3E" d="M374.65,110.986v19.404h-2.963v-19.404H374.65z"/>
		<path fill="#3E3E3E" d="M384.278,110.986v9.555l8.47-9.555h3.949l-8.986,9.752l8.913,9.652h-4l-8.346-9.259v9.259h-2.962v-19.404
			H384.278z"/>
		<path fill="#3E3E3E" d="M407.042,130.391h-2.963v-7.703l-6.396-11.701h3.407l4.642,8.765l4.443-8.765h3.407l-6.542,11.753
			L407.042,130.391L407.042,130.391z"/>
	</g>
	<g>
		<g>
			<path fill="#DADADA" d="M160.705,41.094H93.377v-2.963h67.328V41.094z"/>
		</g>
		<g>
			<path fill="#3E3E3E" d="M228.002,41.094h-67.328v-2.963h67.328V41.094z"/>
		</g>
		<g>
			<path fill="#474747" d="M295.298,41.094H227.97v-2.963h67.328V41.094z"/>
		</g>
	</g>
</g>
<g id="Vrstva_2">
	<g>
		<g>
			<path fill="#474747" d="M41.724,90.671C28.451,84.275,9.461,71.584,9.461,46.48s1.201-36.521,1.201-36.521h62.124
				c0,0,1.202,11.417,1.202,36.521S55,84.275,41.724,90.671"/>
		</g>
		<g>
			<g>
				<defs>
					<path id="SVGID_1_" d="M41.724,90.671C28.451,84.275,9.461,71.584,9.461,46.48s1.201-36.521,1.201-36.521h31.062h31.063
						c0,0,1.2,11.417,1.2,36.521S55,84.275,41.724,90.671"/>
				</defs>
				<clipPath id="SVGID_2_">
					<use xlink:href="#SVGID_1_"  overflow="visible"/>
				</clipPath>
				<path clip-path="url(#SVGID_2_)" fill="#FFFFFF" d="M44.564,39.897c3.595,0.06,10.607,0.2,16.851-1.891
					c0,0-0.164,2.237-0.164,4.84c0,2.602,0.164,4.836,0.164,4.836c-5.726-1.915-12.801-1.955-16.851-1.904v13.865h-5.676V45.778
					c-4.052-0.051-11.125-0.011-16.853,1.904c0,0,0.165-2.234,0.165-4.836c0-2.603-0.165-4.84-0.165-4.84
					c6.242,2.091,13.256,1.95,16.853,1.891V31.19c-3.276-0.028-7.998,0.128-13.335,1.914c0,0,0.164-2.235,0.164-4.839
					c0-2.601-0.164-4.836-0.164-4.836c5.328,1.781,10.043,1.941,13.318,1.914c-0.168-5.514-1.773-12.465-1.773-12.465
					s3.306,0.257,4.626,0.257c1.324,0,4.629-0.257,4.629-0.257s-1.604,6.951-1.773,12.465c3.275,0.027,7.99-0.133,13.318-1.914
					c0,0-0.164,2.235-0.164,4.836c0,2.604,0.164,4.839,0.164,4.839c-5.336-1.786-10.059-1.942-13.333-1.914L44.564,39.897"/>
			</g>
			<g>
				<defs>
					<path id="SVGID_3_" d="M41.724,90.671C28.451,84.275,9.461,71.584,9.461,46.48s1.201-36.521,1.201-36.521h31.062h31.063
						c0,0,1.2,11.417,1.2,36.521S55,84.275,41.724,90.671"/>
				</defs>
				<clipPath id="SVGID_4_">
					<use xlink:href="#SVGID_3_"  overflow="visible"/>
				</clipPath>
				<path clip-path="url(#SVGID_4_)" fill="#3E3E3E" d="M41.141,98.907L13.636,74.387c0,0,3.514-11.372,10.38-11.372
					c5.454,0,7.444,4.397,7.444,4.397s3.58-9.271,10.264-9.271c6.688,0,10.268,9.271,10.268,9.271s1.989-4.397,7.443-4.397
					c6.865,0,10.379,11.372,10.379,11.372L41.141,98.907"/>
			</g>
		</g>
	</g>
</g>
</svg>
