<svg xmlns="http://www.w3.org/2000/svg" width="74.688" height="16.813" viewBox="0 0 74.688 16.813">
  <g id="tvarchitect" transform="translate(-245.96 -552.673)">
    <path id="Path_65" data-name="Path 65" d="M269.246,559.44h-.262v.6h.262a.3.3,0,1,0,0-.6" fill="#222221"/>
    <path id="Path_66" data-name="Path 66" d="M308.3,559.445a1.019,1.019,0,1,0,1.116,1.017,1.027,1.027,0,0,0-1.116-1.017" fill="#222221"/>
    <path id="Path_67" data-name="Path 67" d="M264.63,560.822h.8l-.413-.814Z" fill="#222221"/>
    <path id="Path_68" data-name="Path 68" d="M315.54,562.263h-.9V560.48a3.057,3.057,0,0,1,.029-.349l-1.087.947-1.109-.947s.022.221.022.366v1.766h-.9V558.65h.409l1.209,1.04c.15.127.347.319.347.319s.222-.209.35-.319l1.215-1.04h.407Zm-7.239.058a1.865,1.865,0,1,1,2.052-1.859,1.879,1.879,0,0,1-2.052,1.859m-3.121-2.364a3.048,3.048,0,0,0-1.582-.511,1.018,1.018,0,1,0,0,2.027,3.118,3.118,0,0,0,1.582-.529v.871a2.871,2.871,0,0,1-1.582.506,1.868,1.868,0,1,1,0-3.718,3.043,3.043,0,0,1,1.582.494Zm-4.623,2.3h-.9v-.825h.9Zm-.959-2.777h-1.257v2.783h-.89V559.48H296.19v-.818H299.6Zm-4.333.477a3.043,3.043,0,0,0-1.581-.511,1.018,1.018,0,1,0,0,2.027,3.108,3.108,0,0,0,1.581-.529v.871a2.866,2.866,0,0,1-1.581.506,1.868,1.868,0,1,1,0-3.718,3.033,3.033,0,0,1,1.581.494Zm-4.518,2.306h-2.412v-3.6h2.273v.818H289.23V560h.849v.761h-.849v.675h1.517Zm-3.511-2.783H285.98v2.783h-.89V559.48h-1.262v-.818h3.408Zm-4.506,2.783h-.9v-3.6h.9Zm-2.385,0h-.906v-1.505h-1.756v1.505h-.9v-3.6h.9v1.272h1.761v-1.272h.9Zm-4.872-2.306a3.043,3.043,0,0,0-1.581-.511,1.018,1.018,0,1,0,0,2.027,3.107,3.107,0,0,0,1.581-.529v.871a2.866,2.866,0,0,1-1.581.506,1.868,1.868,0,1,1,0-3.718,3.033,3.033,0,0,1,1.581.494Zm-5.029,2.306-1.151-1.458h-.309v1.458h-.9v-3.6h1.163c.936,0,1.209.511,1.209,1.074a.832.832,0,0,1-.377.79l1.488,1.737Zm-4.274,0-.384-.738h-1.505l-.378.738h-.954l1.89-3.613h.389l1.907,3.613Zm-11.73-2.822v-.819h3.406v.819H256.59v2.78H255.7v-2.78Zm8.1-.83-1.888,3.61h-.389l-1.848-3.61h1.046l1.022,2.107.965-2.107Zm.954,5.96H251.067v-8.3h12.422v.819h-11.6v6.661h11.6Zm-3.016,1.316H255.7v-.5h4.771Zm-14.513,3.6h74.688V552.673H245.96Z" fill="#222221"/>
  </g>
</svg>
