<?xml version="1.0" encoding="UTF-8"?>
<svg width="695px" height="211px" viewBox="0 0 695 211" version="1.1" xmlns="http://www.w3.org/2000/svg" xmlns:xlink="http://www.w3.org/1999/xlink">
    <title>GPA_30let_logo_rozsirene_sirka</title>
    <g id="Page-1" stroke="none" stroke-width="1" fill="none" fill-rule="evenodd">
        <g id="GPA_30let_logo_rozsirene_sirka" transform="translate(0.000000, 0.000000)" fill-rule="nonzero">
            <g id="Group" transform="translate(-0.000000, 0.000000)">
                <path d="M60,204.52 C96.54,204.52 122.99,182.7 122.99,150.25 C122.99,121.62 104.45,103.62 77.18,98.71 C103.63,93.26 119.17,74.99 119.17,49.63 C119.17,19.09 92.17,0 59.45,0 C33,0 15,12.54 4.64,22.63 L8.19,25.63 C16.92,16.36 35.46,4.09 59.46,4.09 C89.46,4.09 114.82,21.54 114.82,49.63 C114.82,77.99 92.46,96.53 60.55,96.53 L37.64,96.53 L37.64,100.62 L60.55,100.62 C92.45,100.62 118.63,118.34 118.63,150.25 C118.63,180.25 92.72,200.43 60.27,200.43 C36.27,200.43 13.64,189.52 3.82,177.8 L1.42108547e-14,180.8 C10.91,193.88 33,204.52 60,204.52" id="Path" fill="#FFED00"></path>
                <path d="M304.17,82.83 L338.06,73.75 L339.15,77.83 L305.25,86.91 C304.93,85.54 304.57,84.17 304.17,82.83 M296.95,66.86 L327.34,49.32 L329.45,52.98 L299.07,70.52 C298.4,69.27 297.69,68.06 296.95,66.86 M285.84,53.31 L310.67,28.48 L313.66,31.47 L288.83,56.3 C287.86,55.27 286.86,54.28 285.84,53.31 M275.27,45.19 C274.08,44.45 272.86,43.74 271.62,43.07 L289.16,12.68 L292.82,14.79 L275.27,45.19 Z M259.31,37.97 C257.97,37.56 256.6,37.21 255.23,36.89 L264.31,2.99 L268.39,4.08 L259.31,37.97 Z" id="Shape" fill="#FFFFFF"></path>
                <path d="M304.06,121.64 L337.95,130.72 L339.04,126.64 L305.14,117.56 C304.82,118.94 304.46,120.3 304.06,121.64" id="Path" fill="#FFED26"></path>
                <path d="M296.83,137.61 L327.22,155.16 L329.33,151.5 L298.95,133.96 C298.29,135.2 297.58,136.42 296.83,137.61" id="Path" fill="#FFEE38"></path>
                <path d="M285.73,151.16 L310.56,175.99 L313.55,173 L288.73,148.17 C287.75,149.2 286.75,150.2 285.73,151.16" id="Path" fill="#FFEF47"></path>
                <path d="M275.16,159.28 C273.96,160.02 272.75,160.73 271.51,161.4 L289.05,191.78 L292.71,189.67 L275.16,159.28 Z" id="Path" fill="#FFEF55"></path>
                <path d="M259.2,166.5 C257.86,166.9 256.49,167.26 255.12,167.58 L264.2,201.48 L268.28,200.39 L259.2,166.5 Z" id="Path" fill="#FFF062"></path>
                <path d="M239.79,169.36 C239.08,169.36 238.38,169.33 237.68,169.31 L237.68,204.42 L241.91,204.42 L241.91,169.31 C241.2,169.33 240.5,169.36 239.79,169.36" id="Path" fill="#FFF16F"></path>
                <path d="M190.87,148.17 L166.04,173 L169.03,175.99 L193.86,151.16 C192.83,150.2 191.83,149.2 190.87,148.17" id="Path" fill="#FFF494"></path>
                <path d="M180.63,133.96 L150.24,151.5 L152.35,155.16 L182.74,137.61 C182,136.42 181.29,135.2 180.63,133.96" id="Path" fill="#FFF59F"></path>
                <path d="M174.44,117.56 L140.54,126.64 L141.63,130.72 L175.52,121.64 C175.12,120.3 174.76,118.94 174.44,117.56" id="Path" fill="#FFF6AA"></path>
                <path d="M172.72,100.12 L137.61,100.12 L137.61,104.35 L172.72,104.35 C172.7,103.65 172.67,102.95 172.67,102.24 C172.66,101.53 172.7,100.83 172.72,100.12" id="Path" fill="#FFF7B4"></path>
                <path d="M175.53,82.83 L141.64,73.75 L140.55,77.83 L174.45,86.91 C174.76,85.54 175.12,84.17 175.53,82.83" id="Path" fill="#FFF8BE"></path>
                <path d="M182.75,66.86 L152.36,49.31 L150.25,52.97 L180.63,70.51 C181.29,69.27 182,68.06 182.75,66.86" id="Path" fill="#FFF9C9"></path>
                <path d="M193.85,53.31 L169.02,28.48 L166.03,31.47 L190.85,56.29 C191.83,55.27 192.83,54.28 193.85,53.31" id="Path" fill="#FFFAD2"></path>
                <path d="M204.42,45.19 C205.61,44.45 206.83,43.74 208.07,43.07 L190.53,12.69 L186.87,14.8 L204.42,45.19 Z" id="Path" fill="#FFFBDC"></path>
                <path d="M190.53,191.79 L208.07,161.4 C206.83,160.73 205.61,160.02 204.42,159.28 L186.87,189.67 L190.53,191.79 Z" id="Path" fill="#FFF388"></path>
                <path d="M220.38,166.5 L211.3,200.39 L215.38,201.48 L224.46,167.58 C223.09,167.26 221.73,166.91 220.38,166.5" id="Path" fill="#FFF27C"></path>
                <path d="M220.38,37.97 C221.72,37.56 223.09,37.21 224.46,36.89 L215.38,2.99 L211.3,4.08 L220.38,37.97 Z" id="Path" fill="#FFFCE5"></path>
                <path d="M239.79,35.11 C240.5,35.11 241.2,35.14 241.9,35.16 L241.9,0.05 L237.67,0.05 L237.67,35.16 C238.38,35.14 239.08,35.11 239.79,35.11" id="Path" fill="#FFFDEE"></path>
                <rect id="Rectangle" fill="#FFED00" x="239.79" y="100.12" width="102.19" height="4.23"></rect>
            </g>
            <g id="Group" transform="translate(380.250000, 0.010000)" fill="#FFED00">
                <path d="M294.72,78.33 C292.88,78.33 291.44,76.83 291.44,74.91 C291.44,72.93 292.87,71.43 294.72,71.43 C296.56,71.43 298,72.93 298,74.91 C297.99,76.82 296.56,78.33 294.72,78.33 M294.72,83.11 C299.5,83.11 303.33,79.56 303.33,74.91 C303.33,70.06 299.51,66.65 294.72,66.65 C289.94,66.65 286.11,70.07 286.11,74.91 C286.11,79.56 289.93,83.11 294.72,83.11 M294.58,117.73 C304.21,117.73 309.4,111.99 309.4,105.44 L309.4,85.63 L300.59,85.63 L300.59,103.8 C300.59,108.1 297.79,109.81 294.58,109.81 C291.44,109.81 288.57,108.1 288.57,103.8 L288.57,85.63 L279.69,85.63 L279.69,105.44 C279.69,112 285.02,117.73 294.58,117.73 M258.38,73.75 L258.38,85.63 L253.46,85.63 L253.46,93.14 L258.38,93.14 L258.38,110.28 C258.38,116.56 262.96,117.31 267.4,117.31 C269.99,117.31 274.3,116.9 274.3,116.9 L274.3,109.32 C274.3,109.32 272.46,109.52 270.2,109.52 C268.83,109.52 267.26,109.25 267.26,107.27 L267.26,93.13 L274.02,93.13 L274.02,85.62 L267.26,85.62 L267.26,73.74 L258.38,73.74 L258.38,73.75 Z M230.24,69.11 L221.43,69.11 L221.43,116.92 L230.24,116.92 L230.24,104.01 L232.36,104.01 L241.38,116.92 L252.03,116.92 L239.6,99.98 L251.69,85.64 L240.97,85.64 L232.36,96.5 L230.24,96.5 L230.24,69.11 Z M199.78,92.19 C203.54,92.19 206.2,94.79 206.68,97.93 L192.68,97.93 C193.36,94.58 196.03,92.19 199.78,92.19 M216.17,103.53 C216.17,90.42 208.38,84.82 199.78,84.82 C190.42,84.82 183.52,91.72 183.52,101.28 C183.52,110.84 190.55,117.74 199.91,117.74 C206.88,117.74 212.75,114.6 215.55,107.9 L206.33,106.94 C205.1,109.06 202.64,110.15 200.05,110.15 C196.09,110.15 193.36,107.35 192.88,103.87 L216.17,103.87 L216.17,103.53 Z M163.72,73.75 L163.72,85.63 L158.8,85.63 L158.8,93.14 L163.72,93.14 L163.72,110.28 C163.72,116.56 168.3,117.31 172.74,117.31 C175.34,117.31 179.64,116.9 179.64,116.9 L179.64,109.32 C179.64,109.32 177.8,109.52 175.54,109.52 C174.17,109.52 172.6,109.25 172.6,107.27 L172.6,93.13 L179.36,93.13 L179.36,85.62 L172.6,85.62 L172.6,73.74 L163.72,73.74 L163.72,73.75 Z M143.23,74.84 C143.23,78.05 145.76,80.51 148.9,80.51 C152.11,80.51 154.64,78.05 154.64,74.84 C154.64,71.7 152.11,69.1 148.9,69.1 C145.76,69.11 143.23,71.7 143.23,74.84 M153.75,85.63 L140.5,85.63 L140.5,93.14 L144.87,93.14 L144.87,116.91 L153.75,116.91 L153.75,85.63 Z M114.62,89.32 C114.62,89.32 114.76,87.95 114.76,86.86 L114.76,69.1 L106.02,69.1 L106.02,116.91 L114.9,116.91 L114.9,96.62 C116.61,94.5 118.93,93.07 121.53,93.07 C124.33,93.07 126.86,94.71 126.86,98.67 L126.86,116.91 L135.74,116.91 L135.74,96.42 C135.74,89.11 130.89,84.81 124.13,84.81 C120.56,84.81 117.01,86.39 114.62,89.32 M85.52,92.74 C88.8,92.74 91.26,94.65 92.42,97.52 L100.75,94.99 C98.7,88.77 92.55,84.81 85.45,84.81 C76.16,84.81 68.78,91.71 68.78,101.27 C68.78,110.83 76.16,117.73 85.45,117.73 C92.55,117.73 98.7,113.84 100.75,107.62 L92.42,105.02 C91.26,107.96 88.8,109.8 85.52,109.8 C80.88,109.8 77.67,106.18 77.67,101.26 C77.67,96.36 80.88,92.74 85.52,92.74 M66.12,85.5 C65.3,85.3 64.48,85.23 63.66,85.23 C59.77,85.23 56.76,87.28 55.53,90.63 L55.53,85.64 L46.92,85.64 L46.92,116.92 L55.8,116.92 L55.8,101.96 C55.8,96.5 57.85,94.38 62.36,94.38 L66.12,94.38 L66.12,85.5 L66.12,85.5 Z M25.83,95.74 L16.06,95.74 L20.91,79.35 L21.05,79.35 L25.83,95.74 Z M26.78,69.11 L15.44,69.11 L1.13686838e-13,116.92 L9.97,116.92 L13.79,103.87 L28.2,103.87 L32.3,116.92 L42.54,116.92 L26.78,69.11 Z" id="Shape"></path>
                <path d="M282.22,48.62 L292.46,48.62 L297.92,39.26 L303.59,48.62 L313.9,48.62 L303.86,32.84 L313.76,17.34 L303.79,17.34 L298.05,26.7 L292.52,17.34 L282.29,17.34 L292.19,33.05 L282.22,48.62 Z M267.19,6.54 C267.19,9.75 269.72,12.21 272.86,12.21 C276.07,12.21 278.6,9.75 278.6,6.54 C278.6,3.4 276.07,0.8 272.86,0.8 C269.72,0.81 267.19,3.4 267.19,6.54 M277.71,17.34 L264.46,17.34 L264.46,24.85 L268.83,24.85 L268.83,48.62 L277.71,48.62 L277.71,17.34 Z M262,17.2 C261.18,17 260.36,16.93 259.54,16.93 C255.65,16.93 252.64,18.98 251.41,22.33 L251.41,17.34 L242.8,17.34 L242.8,48.62 L251.68,48.62 L251.68,33.66 C251.68,28.2 253.73,26.08 258.24,26.08 L262,26.08 L262,17.2 L262,17.2 Z M219.52,9 C224.71,9 228.47,11.19 228.47,16.51 C228.47,21.84 224.71,24.3 219.52,24.3 L214.19,24.3 L214.19,9 L219.52,9 L219.52,9 Z M214.19,32.43 L220.95,32.43 C232.22,32.43 238.16,25.12 238.16,16.52 C238.16,7.85 232.22,0.81 220.95,0.81 L204.76,0.81 L204.76,48.62 L214.18,48.62 L214.18,32.43 L214.19,32.43 Z M173.42,48.62 L182.3,48.62 L182.3,0.81 L173.42,0.81 L173.42,15.43 C173.42,17.75 173.56,20.35 173.56,21.37 C171.99,18.71 168.37,16.52 163.59,16.52 C154.98,16.52 148.5,23.42 148.5,32.98 C148.5,42.54 155.06,49.44 163.66,49.44 C168.17,49.44 171.86,47.25 173.43,44.66 L173.43,48.62 L173.42,48.62 Z M165.63,24.44 C170.34,24.44 173.62,28.13 173.62,32.98 C173.62,37.76 170.34,41.59 165.63,41.59 C160.92,41.59 157.64,37.77 157.64,32.98 C157.64,28.13 160.92,24.44 165.63,24.44 M121.92,21.02 C121.92,21.02 122.06,19.65 122.06,18.56 L122.06,17.33 L113.39,17.33 L113.39,48.61 L122.27,48.61 L122.27,28.32 C123.98,26.2 126.3,24.77 128.9,24.77 C131.7,24.77 134.23,26.41 134.23,30.37 L134.23,48.61 L143.11,48.61 L143.11,28.12 C143.11,20.81 138.26,16.51 131.5,16.51 C127.87,16.52 124.31,18.09 121.92,21.02 M97.2,28.13 C97.2,29.29 96.52,29.97 95.01,29.97 L88.86,29.97 C81.89,29.97 77.52,33.66 77.52,39.6 C77.52,44.72 81.82,49.44 88.45,49.44 C92,49.44 95.55,48.14 97.19,45.68 L97.19,48.62 L106.07,48.62 L106.07,28.06 C106.07,19.8 99.58,16.52 92.48,16.52 C84.9,16.52 79.09,20.34 79.09,20.34 L82.57,27.03 C84.89,25.66 88.85,24.09 91.99,24.09 C95.4,24.09 97.18,25.52 97.18,27.78 L97.18,28.13 L97.2,28.13 Z M91.12,42.95 C88.39,42.95 86.68,41.38 86.68,39.26 C86.68,37.07 88.32,35.85 91.12,35.85 L94.47,35.85 C95.7,35.85 96.66,35.71 97.2,35.17 L97.2,37.42 C97.2,41.31 94.33,42.95 91.12,42.95 M75.14,17.2 C74.32,17 73.5,16.93 72.68,16.93 C68.79,16.93 65.78,18.98 64.55,22.33 L64.55,17.34 L55.94,17.34 L55.94,48.62 L64.82,48.62 L64.82,33.66 C64.82,28.2 66.87,26.08 71.38,26.08 L75.14,26.08 L75.14,17.2 L75.14,17.2 Z M25.69,49.44 C33.89,49.44 39.28,44.8 41.13,42 L41.13,48.63 L48.85,48.63 L48.85,24.93 L28.57,24.93 L28.57,32.72 L39.02,32.72 C37.72,36.75 33.21,40.71 26.52,40.71 C17.98,40.71 11.36,34.7 11.36,24.73 C11.36,15.58 17.57,8.75 26.59,8.75 C32.94,8.75 37.79,12.16 39.57,17.83 L50.02,17.83 C47.22,6.56 37.38,0 26.59,0 C12.52,0 1.45999287,10.31 1.45999287,24.72 C1.45,39.12 11.9599929,49.44 25.69,49.44" id="Shape"></path>
            </g>
            <g id="Group" transform="translate(381.080000, 143.510000)" fill="#FFED00">
                <polygon id="Path" points="3.98 16 0.85 16 0.85 0 5.03 0 10.42 10.65 10.42 0 13.55 0 13.55 16 9.69 16 3.98 4.89"></polygon>
                <path d="M22.08,9.03 C22.08,8.28 21.49,7.8 20.34,7.8 C19.29,7.8 17.96,8.33 17.19,8.78 L16.02,6.54 C16.02,6.54 17.96,5.26 20.5,5.26 C22.88,5.26 25.05,6.36 25.05,9.12 L25.05,16 L22.08,16 L22.08,15.02 C21.53,15.84 20.34,16.28 19.15,16.28 C16.93,16.28 15.49,14.7 15.49,12.99 C15.49,11 16.95,9.77 19.28,9.77 L21.34,9.77 C21.84,9.77 22.07,9.54 22.07,9.15 L22.07,9.03 L22.08,9.03 Z M22.08,12.25 L22.08,11.5 C21.9,11.68 21.58,11.73 21.17,11.73 L20.05,11.73 C19.11,11.73 18.56,12.14 18.56,12.87 C18.56,13.58 19.13,14.1 20.05,14.1 C21.12,14.11 22.08,13.56 22.08,12.25 Z M20.14,0 L23.93,0 L21.83,3.96 L19,3.96 L20.14,0 Z" id="Shape"></path>
                <path d="M33.69,8.46 L32.43,8.46 C30.92,8.46 30.24,9.17 30.24,11 L30.24,16.01 L27.27,16.01 L27.27,5.54 L30.15,5.54 L30.15,7.21 C30.56,6.09 31.57,5.4 32.87,5.4 C33.14,5.4 33.42,5.42 33.69,5.49 L33.69,8.46 Z" id="Path"></path>
                <path d="M34.47,10.77 C34.47,7.57 36.96,5.26 40.07,5.26 C43.18,5.26 45.67,7.57 45.67,10.77 C45.67,13.97 43.18,16.28 40.07,16.28 C36.96,16.28 34.47,13.97 34.47,10.77 Z M37.44,10.77 C37.44,12.39 38.51,13.63 40.07,13.63 C41.6,13.63 42.68,12.4 42.68,10.77 C42.68,9.12 41.61,7.91 40.07,7.91 C38.51,7.91 37.44,9.12 37.44,10.77 Z" id="Shape"></path>
                <path d="M55.04,14.68 C54.51,15.55 53.28,16.28 51.77,16.28 C48.89,16.28 46.69,13.97 46.69,10.77 C46.69,7.57 48.86,5.26 51.74,5.26 C53.34,5.26 54.55,5.99 55.08,6.88 C55.08,6.54 55.04,5.67 55.04,4.89 L55.04,5.68434189e-14 L58.01,5.68434189e-14 L58.01,16 L55.04,16 L55.04,14.68 Z M49.76,10.77 C49.76,12.37 50.86,13.65 52.43,13.65 C54,13.65 55.1,12.37 55.1,10.77 C55.1,9.15 54,7.91 52.43,7.91 C50.86,7.91 49.76,9.15 49.76,10.77 Z" id="Shape"></path>
                <path d="M66.4,5.26 C68.66,5.26 70.29,6.7 70.29,9.15 L70.29,16.01 L67.32,16.01 L67.32,9.91 C67.32,8.58 66.47,8.04 65.54,8.04 C64.67,8.04 63.89,8.52 63.32,9.23 L63.32,16.02 L60.35,16.02 L60.35,5.55 L63.25,5.55 L63.25,5.96 C63.25,6.33 63.21,6.78 63.21,6.78 C64,5.79 65.18,5.26 66.4,5.26 Z" id="Path"></path>
                <path d="M76.09,16 L73.12,16 L73.12,8.04 L71.66,8.04 L71.66,5.53 L76.09,5.53 L76.09,16 L76.09,16 Z M74.23,0 L78.02,0 L75.92,3.96 L73.09,3.96 L74.23,0 Z" id="Shape"></path>
                <path d="M85.07,10.77 C85.07,12.42 86.14,13.63 87.7,13.63 C88.8,13.63 89.62,13.01 90.01,12.03 L92.8,12.9 C92.11,14.98 90.06,16.28 87.68,16.28 C84.57,16.28 82.1,13.97 82.1,10.77 C82.1,7.57 84.57,5.26 87.68,5.26 C90.06,5.26 92.11,6.59 92.8,8.67 L90.01,9.52 C89.62,8.56 88.8,7.92 87.7,7.92 C86.14,7.91 85.07,9.12 85.07,10.77 Z" id="Path"></path>
                <path d="M104.59,11.64 L96.8,11.64 C96.96,12.81 97.87,13.74 99.2,13.74 C100.07,13.74 100.89,13.37 101.3,12.66 L104.39,12.98 C103.45,15.22 101.49,16.27 99.15,16.27 C96.02,16.27 93.66,13.96 93.66,10.76 C93.66,7.56 95.97,5.25 99.1,5.25 C101.98,5.25 104.59,7.12 104.59,11.51 L104.59,11.64 L104.59,11.64 Z M96.72,9.65 L101.41,9.65 C101.25,8.6 100.36,7.73 99.1,7.73 C97.84,7.73 96.95,8.53 96.72,9.65 Z" id="Shape"></path>
                <path d="M112.17,5.26 C114.43,5.26 116.06,6.7 116.06,9.15 L116.06,16.01 L113.09,16.01 L113.09,9.91 C113.09,8.58 112.24,8.04 111.31,8.04 C110.44,8.04 109.66,8.52 109.09,9.23 L109.09,16.02 L106.12,16.02 L106.12,5.55 L109.02,5.55 L109.02,5.96 C109.02,6.33 108.98,6.78 108.98,6.78 C109.77,5.79 110.96,5.26 112.17,5.26 Z" id="Path"></path>
                <path d="M124.08,9.03 C124.08,8.28 123.49,7.8 122.34,7.8 C121.29,7.8 119.96,8.33 119.19,8.78 L118.02,6.54 C118.02,6.54 119.96,5.26 122.5,5.26 C124.88,5.26 127.05,6.36 127.05,9.12 L127.05,16 L124.08,16 L124.08,15.02 C123.53,15.84 122.34,16.28 121.15,16.28 C118.93,16.28 117.49,14.7 117.49,12.99 C117.49,11 118.95,9.77 121.28,9.77 L123.34,9.77 C123.84,9.77 124.07,9.54 124.07,9.15 L124.07,9.03 L124.08,9.03 Z M124.08,12.25 L124.08,11.5 C123.9,11.68 123.58,11.73 123.17,11.73 L122.05,11.73 C121.11,11.73 120.56,12.14 120.56,12.87 C120.56,13.58 121.13,14.1 122.05,14.1 C123.12,14.11 124.08,13.56 124.08,12.25 Z" id="Shape"></path>
                <polygon id="Path" points="9.03 30.83 3.64 36.36 9.03 36.36 9.03 38.85 0 38.85 0 36.4 5.42 30.89 0.05 30.89 0.05 28.38 9.03 28.38 9.03 30.83"></polygon>
                <path d="M16.73,31.89 C16.73,31.14 16.14,30.66 14.99,30.66 C13.94,30.66 12.61,31.19 11.84,31.64 L10.67,29.4 C10.67,29.4 12.61,28.12 15.15,28.12 C17.53,28.12 19.7,29.22 19.7,31.98 L19.7,38.86 L16.73,38.86 L16.73,37.88 C16.18,38.7 14.99,39.14 13.8,39.14 C11.58,39.14 10.14,37.56 10.14,35.85 C10.14,33.86 11.6,32.63 13.93,32.63 L15.99,32.63 C16.49,32.63 16.72,32.4 16.72,32.01 L16.72,31.89 L16.73,31.89 Z M16.73,35.11 L16.73,34.36 C16.55,34.54 16.23,34.59 15.82,34.59 L14.7,34.59 C13.76,34.59 13.21,35 13.21,35.73 C13.21,36.44 13.78,36.96 14.7,36.96 C15.77,36.96 16.73,36.41 16.73,35.11 Z" id="Shape"></path>
                <path d="M32.07,31.89 C32.07,31.14 31.48,30.66 30.33,30.66 C29.28,30.66 27.95,31.19 27.18,31.64 L26.01,29.4 C26.01,29.4 27.95,28.12 30.49,28.12 C32.87,28.12 35.04,29.22 35.04,31.98 L35.04,38.86 L32.07,38.86 L32.07,37.88 C31.52,38.7 30.33,39.14 29.14,39.14 C26.92,39.14 25.48,37.56 25.48,35.85 C25.48,33.86 26.94,32.63 29.27,32.63 L31.33,32.63 C31.83,32.63 32.06,32.4 32.06,32.01 L32.06,31.89 L32.07,31.89 Z M32.07,35.11 L32.07,34.36 C31.89,34.54 31.57,34.59 31.16,34.59 L30.04,34.59 C29.1,34.59 28.55,35 28.55,35.73 C28.55,36.44 29.12,36.96 30.04,36.96 C31.11,36.96 32.07,36.41 32.07,35.11 Z" id="Shape"></path>
                <path d="M43.68,31.31 L42.42,31.31 C40.91,31.31 40.23,32.02 40.23,33.85 L40.23,38.86 L37.26,38.86 L37.26,28.39 L40.14,28.39 L40.14,30.06 C40.55,28.94 41.56,28.25 42.86,28.25 C43.13,28.25 43.41,28.27 43.68,28.34 L43.68,31.31 Z" id="Path"></path>
                <path d="M47.43,33.62 C47.43,35.27 48.5,36.48 50.06,36.48 C51.16,36.48 51.98,35.86 52.37,34.88 L55.16,35.75 C54.47,37.83 52.42,39.13 50.04,39.13 C46.93,39.13 44.46,36.82 44.46,33.62 C44.46,30.42 46.93,28.11 50.04,28.11 C52.42,28.11 54.47,29.44 55.16,31.52 L52.37,32.37 C51.98,31.41 51.16,30.77 50.06,30.77 C48.5,30.76 47.43,31.98 47.43,33.62 Z" id="Path"></path>
                <path d="M62.74,28.11 C65,28.11 66.63,29.55 66.63,32 L66.63,38.86 L63.66,38.86 L63.66,32.76 C63.66,31.43 62.81,30.88 61.88,30.88 C61.01,30.88 60.23,31.36 59.66,32.07 L59.66,38.86 L56.69,38.86 L56.69,22.86 L59.62,22.86 L59.62,28.8 C59.62,29.17 59.57,29.62 59.57,29.62 C60.36,28.64 61.55,28.11 62.74,28.11 Z" id="Path"></path>
                <path d="M72.43,38.86 L69.46,38.86 L69.46,30.91 L68,30.91 L68,28.4 L72.43,28.4 L72.43,38.86 L72.43,38.86 Z M70.81,22.86 C71.88,22.86 72.73,23.73 72.73,24.78 C72.73,25.85 71.88,26.68 70.81,26.68 C69.76,26.68 68.91,25.86 68.91,24.78 C68.91,23.72 69.75,22.86 70.81,22.86 Z" id="Shape"></path>
                <path d="M78.51,24.41 L78.51,28.39 L80.77,28.39 L80.77,30.9 L78.51,30.9 L78.51,35.63 C78.51,36.29 79.04,36.38 79.49,36.38 C80.24,36.38 80.86,36.31 80.86,36.31 L80.86,38.85 C80.86,38.85 79.42,38.99 78.55,38.99 C77.06,38.99 75.53,38.74 75.53,36.64 L75.53,30.9 L73.88,30.9 L73.88,28.39 L75.53,28.39 L75.53,24.41 L78.51,24.41 Z" id="Path"></path>
                <path d="M92.86,34.49 L85.07,34.49 C85.23,35.66 86.14,36.59 87.47,36.59 C88.34,36.59 89.16,36.22 89.57,35.52 L92.65,35.84 C91.71,38.08 89.75,39.13 87.42,39.13 C84.29,39.13 81.93,36.82 81.93,33.62 C81.93,30.42 84.24,28.11 87.37,28.11 C90.25,28.11 92.86,29.99 92.86,34.37 L92.86,34.49 L92.86,34.49 Z M85,32.5 L89.69,32.5 C89.53,31.45 88.64,30.58 87.38,30.58 C86.12,30.58 85.23,31.38 85,32.5 Z" id="Shape"></path>
                <polygon id="Path" points="97.34 32.02 98.05 32.02 100.93 28.39 104.52 28.39 100.47 33.19 104.63 38.86 101.06 38.86 98.04 34.54 97.33 34.54 97.33 38.86 94.38 38.86 94.38 22.86 97.33 22.86 97.33 32.02"></polygon>
                <path d="M109.5,24.41 L109.5,28.39 L111.76,28.39 L111.76,30.9 L109.5,30.9 L109.5,35.63 C109.5,36.29 110.03,36.38 110.48,36.38 C111.23,36.38 111.85,36.31 111.85,36.31 L111.85,38.85 C111.85,38.85 110.41,38.99 109.54,38.99 C108.05,38.99 106.52,38.74 106.52,36.64 L106.52,30.9 L104.87,30.9 L104.87,28.39 L106.52,28.39 L106.52,24.41 L109.5,24.41 Z" id="Path"></path>
                <path d="M113.43,35.02 L113.43,28.39 L116.4,28.39 L116.4,34.47 C116.4,35.91 117.36,36.48 118.41,36.48 C119.49,36.48 120.42,35.91 120.42,34.47 L120.42,28.39 L123.37,28.39 L123.37,35.02 C123.37,37.21 121.63,39.13 118.41,39.13 C115.21,39.13 113.43,37.21 113.43,35.02 Z" id="Path"></path>
                <path d="M131.96,31.31 L130.7,31.31 C129.19,31.31 128.51,32.02 128.51,33.85 L128.51,38.86 L125.54,38.86 L125.54,28.39 L128.42,28.39 L128.42,30.06 C128.83,28.94 129.84,28.25 131.14,28.25 C131.41,28.25 131.69,28.27 131.96,28.34 L131.96,31.31 Z" id="Path"></path>
                <path d="M133.24,35.02 L133.24,28.39 L136.21,28.39 L136.21,34.47 C136.21,35.91 137.17,36.48 138.22,36.48 C139.3,36.48 140.23,35.91 140.23,34.47 L140.23,28.39 L143.18,28.39 L143.18,35.02 C143.18,37.21 141.44,39.13 138.22,39.13 C135.03,39.13 133.24,37.21 133.24,35.02 Z" id="Path"></path>
            </g>
            <g id="Group" transform="translate(380.250000, 193.690000)" fill="#FFED00">
                <path d="M0.19,13.53 C0.19,13.53 2.89,11.15 4.92,9.23 C6.93,7.33 7.37,6.17 7.37,4.86 C7.37,3.76 6.62,2.8 5.24,2.8 C4.03,2.8 3.11,3.53 3.11,4.7 C3.11,5.11 3.2,5.64 3.52,6.37 L0.59,6.9 C0.11,5.96 0,5.21 0,4.43 C0,2.19 1.87,0 5.28,0 C8.78,0 10.63,2.29 10.63,4.71 C10.63,6.61 10.01,8.44 6.1,11.86 L4.2,13.53 L10.83,13.53 L10.83,16.27 L0.19,16.27 L0.19,13.53 Z" id="Path"></path>
                <path d="M23.12,8.25 C23.12,13.94 20.9,16.55 17.54,16.55 C14.16,16.55 11.94,13.94 11.94,8.25 C11.94,2.65 14.16,5.68434189e-14 17.54,5.68434189e-14 C20.9,5.68434189e-14 23.12,2.65 23.12,8.25 Z M17.54,13.62 C19.12,13.62 19.87,11.81 19.87,8.25 C19.87,4.73 19.12,2.9 17.54,2.9 C15.94,2.9 15.21,4.73 15.21,8.25 C15.21,11.81 15.94,13.62 17.54,13.62 Z" id="Shape"></path>
                <path d="M24.37,13.53 C24.37,13.53 27.07,11.15 29.1,9.23 C31.11,7.33 31.55,6.17 31.55,4.86 C31.55,3.76 30.8,2.8 29.42,2.8 C28.21,2.8 27.29,3.53 27.29,4.7 C27.29,5.11 27.38,5.64 27.7,6.37 L24.77,6.9 C24.29,5.96 24.18,5.21 24.18,4.43 C24.18,2.19 26.05,0 29.46,0 C32.96,0 34.81,2.29 34.81,4.71 C34.81,6.61 34.19,8.44 30.28,11.86 L28.38,13.53 L35.01,13.53 L35.01,16.27 L24.36,16.27 L24.36,13.53 L24.37,13.53 Z" id="Path"></path>
                <path d="M36.26,11.7 L36.26,10.99 L39.51,10.99 L39.51,11.68 C39.51,12.82 40.01,13.92 41.52,13.92 C42.98,13.92 43.62,12.85 43.62,11.38 C43.62,9.91 42.75,8.82 41.04,8.82 C40.56,8.82 39.69,8.89 39.37,8.98 L39.37,6.15 L43.03,3.02 L37.02,3.02 L37.02,0.28 L46.62,0.28 L46.62,3.32 L42.48,6.63 C45.09,6.7 46.94,8.8 46.94,11.34 C46.94,14.4 44.79,16.55 41.59,16.55 C38.18,16.54 36.26,14.51 36.26,11.7 Z" id="Path"></path>
            </g>
        </g>
    </g>
</svg>